<svg width="138" height="104" viewBox="0 0 138 104" fill="none" xmlns="http://www.w3.org/2000/svg">
<path d="M115.25 12.3385C121.855 18.8233 126.992 26.7994 130.114 35.7207" stroke="#624B61" stroke-width="0.9" stroke-miterlimit="10"/>
<path d="M129.081 78.7827C125.136 88.519 118.75 97.0063 110.683 103.484" stroke="#624B61" stroke-width="0.9" stroke-miterlimit="10"/>
<path d="M133.524 59.3549C135.442 59.3549 136.996 57.8002 136.996 55.8824C136.996 53.9646 135.442 52.4099 133.524 52.4099C131.606 52.4099 130.051 53.9646 130.051 55.8824C130.051 57.8002 131.606 59.3549 133.524 59.3549Z" stroke="#624B61" stroke-width="0.9" stroke-miterlimit="10"/>
<path d="M134.769 43.7867C134.769 45.0944 133.709 46.1539 132.402 46.1539C131.094 46.1539 130.035 45.0944 130.035 43.7867C130.035 42.479 131.094 41.4196 132.402 41.4196C133.709 41.4196 134.769 42.48 134.769 43.7867Z" stroke="#624B61" stroke-width="0.9" stroke-miterlimit="10"/>
<path d="M134.769 68.4326C134.769 69.7402 133.709 70.7997 132.402 70.7997C131.094 70.7997 130.035 69.7402 130.035 68.4326C130.035 67.1249 131.094 66.0654 132.402 66.0654C133.709 66.0654 134.769 67.1249 134.769 68.4326Z" stroke="#624B61" stroke-width="0.9" stroke-miterlimit="10"/>
<path d="M22.196 12.3385C15.5911 18.8233 10.4541 26.7994 7.33246 35.7207" stroke="#624B61" stroke-width="0.9" stroke-miterlimit="10"/>
<path d="M8.3656 78.7827C12.3102 88.519 18.6962 97.0063 26.7632 103.484" stroke="#624B61" stroke-width="0.9" stroke-miterlimit="10"/>
<path d="M0.450012 55.8824C0.450012 57.8 2.00498 59.3549 3.92254 59.3549C5.8401 59.3549 7.39506 57.8 7.39506 55.8824C7.39506 53.9648 5.8401 52.4099 3.92254 52.4099C2.00498 52.4099 0.450012 53.9648 0.450012 55.8824Z" stroke="#624B61" stroke-width="0.9" stroke-miterlimit="10"/>
<path d="M2.67834 43.7867C2.67834 45.0944 3.7378 46.1539 5.04549 46.1539C6.35318 46.1539 7.41263 45.0944 7.41263 43.7867C7.41263 42.479 6.35318 41.4196 5.04549 41.4196C3.7378 41.4196 2.67834 42.48 2.67834 43.7867Z" stroke="#624B61" stroke-width="0.9" stroke-miterlimit="10"/>
<path d="M2.67834 68.4326C2.67834 69.7402 3.7378 70.7997 5.04549 70.7997C6.35318 70.7997 7.41263 69.7402 7.41263 68.4326C7.41263 67.1249 6.35318 66.0654 5.04549 66.0654C3.7378 66.0654 2.67834 67.1249 2.67834 68.4326Z" stroke="#624B61" stroke-width="0.9" stroke-miterlimit="10"/>
<mask id="path-11-inside-1_242_759" fill="white">
<path d="M28.3556 97.7729V89.0229H30.5237C31.1006 89.0229 31.5867 89.1104 31.982 89.2854C32.3839 89.4604 32.708 89.6905 32.9543 89.9757C33.2006 90.2544 33.3788 90.559 33.489 90.8896C33.6056 91.2201 33.664 91.5442 33.664 91.8618C33.664 92.1729 33.6089 92.4938 33.4987 92.8243C33.3885 93.1549 33.2103 93.4627 32.964 93.7479C32.7177 94.0331 32.3936 94.2632 31.9918 94.4382C31.5899 94.6132 31.1006 94.7007 30.5237 94.7007H29.464V97.7729H28.3556ZM29.464 93.709H30.4654C30.9904 93.709 31.4052 93.6183 31.7098 93.4368C32.0144 93.2489 32.2316 93.0155 32.3612 92.7368C32.4908 92.4516 32.5556 92.16 32.5556 91.8618C32.5556 91.5766 32.4908 91.2914 32.3612 91.0063C32.2381 90.7211 32.0242 90.4845 31.7195 90.2965C31.4214 90.1086 31.0033 90.0146 30.4654 90.0146H29.464V93.709ZM37.4617 97.8896C36.8525 97.8896 36.3048 97.7535 35.8187 97.4813C35.339 97.209 34.9599 96.8396 34.6812 96.3729C34.4089 95.8998 34.2728 95.3748 34.2728 94.7979C34.2728 94.247 34.4057 93.7479 34.6714 93.3007C34.9372 92.847 35.2937 92.4873 35.7409 92.2215C36.1946 91.9558 36.6937 91.8229 37.2381 91.8229C37.7761 91.8229 38.2687 91.9526 38.7159 92.2118C39.1631 92.4646 39.5196 92.8081 39.7853 93.2424C40.0511 93.6766 40.1839 94.1692 40.1839 94.7201V95.1479H36.3728C36.2043 95.1479 36.0326 95.1414 35.8576 95.1285C35.6826 95.1155 35.5108 95.0961 35.3423 95.0701C35.4136 95.5887 35.6469 96.0229 36.0423 96.3729C36.4441 96.7229 36.9205 96.8979 37.4714 96.8979C37.8409 96.8979 38.1844 96.8137 38.502 96.6451C38.8196 96.4766 39.0756 96.253 39.2701 95.9743L39.5617 97.1701C39.283 97.397 38.9622 97.5752 38.5992 97.7049C38.2427 97.828 37.8636 97.8896 37.4617 97.8896ZM35.3131 94.3604C35.6631 94.3021 36.0164 94.2729 36.3728 94.2729H38.3076C38.4501 94.2729 38.5895 94.2794 38.7256 94.2924C38.8682 94.2989 39.0108 94.3086 39.1534 94.3215C39.0626 93.8678 38.8358 93.4951 38.4728 93.2035C38.1099 92.9053 37.6983 92.7563 37.2381 92.7563C36.765 92.7563 36.3501 92.9151 35.9937 93.2326C35.6372 93.5438 35.4103 93.9197 35.3131 94.3604ZM42.266 97.7729V92.8146H40.9438V91.9396H42.2952V89.9951H43.2869V91.9396H44.7355V92.8146H43.316V97.7729H42.266ZM45.9605 97.7729V91.9396H47.0105V97.7729H45.9605ZM46.4855 90.8896C46.291 90.8896 46.1257 90.8215 45.9896 90.6854C45.8535 90.5493 45.7855 90.384 45.7855 90.1896C45.7855 89.9887 45.8535 89.8234 45.9896 89.6938C46.1257 89.5576 46.291 89.4896 46.4855 89.4896C46.6864 89.4896 46.8517 89.5576 46.9813 89.6938C47.1174 89.8234 47.1855 89.9887 47.1855 90.1896C47.1855 90.384 47.1174 90.5493 46.9813 90.6854C46.8517 90.8215 46.6864 90.8896 46.4855 90.8896ZM49.5531 97.7729V92.8146H48.2309V91.9396H49.5823V89.9951H50.574V91.9396H52.0226V92.8146H50.6031V97.7729H49.5531ZM55.741 97.8896C55.1318 97.8896 54.5841 97.7535 54.098 97.4813C53.6183 97.209 53.2392 96.8396 52.9605 96.3729C52.6882 95.8998 52.5521 95.3748 52.5521 94.7979C52.5521 94.247 52.685 93.7479 52.9507 93.3007C53.2165 92.847 53.573 92.4873 54.0202 92.2215C54.4739 91.9558 54.973 91.8229 55.5174 91.8229C56.0554 91.8229 56.548 91.9526 56.9952 92.2118C57.4424 92.4646 57.7989 92.8081 58.0646 93.2424C58.3304 93.6766 58.4632 94.1692 58.4632 94.7201V95.1479H54.6521C54.4836 95.1479 54.3119 95.1414 54.1369 95.1285C53.9619 95.1155 53.7901 95.0961 53.6216 95.0701C53.6929 95.5887 53.9262 96.0229 54.3216 96.3729C54.7234 96.7229 55.1998 96.8979 55.7507 96.8979C56.1202 96.8979 56.4637 96.8137 56.7813 96.6451C57.0989 96.4766 57.3549 96.253 57.5494 95.9743L57.841 97.1701C57.5623 97.397 57.2415 97.5752 56.8785 97.7049C56.522 97.828 56.1429 97.8896 55.741 97.8896ZM53.5924 94.3604C53.9424 94.3021 54.2956 94.2729 54.6521 94.2729H56.5869C56.7294 94.2729 56.8688 94.2794 57.0049 94.2924C57.1475 94.2989 57.2901 94.3086 57.4327 94.3215C57.3419 93.8678 57.1151 93.4951 56.7521 93.2035C56.3892 92.9053 55.9776 92.7563 55.5174 92.7563C55.0443 92.7563 54.6294 92.9151 54.273 93.2326C53.9165 93.5438 53.6896 93.9197 53.5924 94.3604ZM63.0685 97.7729V89.0229H65.9366C66.7273 89.0229 67.4144 89.1526 67.9977 89.4118C68.5875 89.6711 69.0736 90.0146 69.456 90.4424C69.8384 90.8701 70.1236 91.3433 70.3116 91.8618C70.4996 92.3739 70.5935 92.8859 70.5935 93.3979C70.5935 93.91 70.4996 94.4252 70.3116 94.9438C70.1236 95.4558 69.8384 95.9257 69.456 96.3535C69.0736 96.7813 68.5875 97.1248 67.9977 97.384C67.4144 97.6433 66.7273 97.7729 65.9366 97.7729H63.0685ZM64.1769 96.7813H65.8199C66.494 96.7813 67.0611 96.6776 67.5213 96.4701C67.9815 96.2563 68.3542 95.9808 68.6394 95.6438C68.9246 95.3002 69.1287 94.9308 69.2519 94.5354C69.3815 94.1401 69.4463 93.7609 69.4463 93.3979C69.4463 93.035 69.3815 92.6558 69.2519 92.2604C69.1287 91.8651 68.9246 91.4989 68.6394 91.1618C68.3542 90.8183 67.9815 90.5428 67.5213 90.3354C67.0611 90.1215 66.494 90.0146 65.8199 90.0146H64.1769V96.7813ZM74.7786 97.8896C74.2148 97.8896 73.6995 97.7535 73.2328 97.4813C72.7661 97.209 72.3935 96.8428 72.1148 96.3826C71.8425 95.9225 71.7064 95.4137 71.7064 94.8563C71.7064 94.2924 71.8425 93.7836 72.1148 93.3299C72.3935 92.8697 72.7661 92.5035 73.2328 92.2313C73.6995 91.959 74.2148 91.8229 74.7786 91.8229C75.349 91.8229 75.8643 91.959 76.3245 92.2313C76.7911 92.5035 77.1606 92.8697 77.4328 93.3299C77.7115 93.7836 77.8509 94.2924 77.8509 94.8563C77.8509 95.4137 77.7115 95.9225 77.4328 96.3826C77.1606 96.8428 76.7911 97.209 76.3245 97.4813C75.8643 97.7535 75.349 97.8896 74.7786 97.8896ZM74.7786 96.8979C75.1546 96.8979 75.4949 96.8072 75.7995 96.6257C76.1041 96.4377 76.3472 96.1914 76.5286 95.8868C76.7101 95.5757 76.8009 95.2322 76.8009 94.8563C76.8009 94.4803 76.7101 94.1401 76.5286 93.8354C76.3472 93.5243 76.1041 93.278 75.7995 93.0965C75.4949 92.9086 75.1546 92.8146 74.7786 92.8146C74.4027 92.8146 74.0624 92.9086 73.7578 93.0965C73.4532 93.278 73.2101 93.5243 73.0286 93.8354C72.8472 94.1401 72.7564 94.4803 72.7564 94.8563C72.7564 95.2322 72.8472 95.5757 73.0286 95.8868C73.2101 96.1914 73.4532 96.4377 73.7578 96.6257C74.0624 96.8072 74.4027 96.8979 74.7786 96.8979ZM81.5326 97.8896C81.1242 97.8896 80.7418 97.7891 80.3853 97.5882C80.0289 97.3808 79.7404 97.0826 79.5201 96.6938C79.2997 96.3049 79.1895 95.8382 79.1895 95.2938V91.9396H80.2395V95.1479C80.2395 95.6081 80.3756 96.0164 80.6478 96.3729C80.9265 96.7229 81.3154 96.8979 81.8145 96.8979C82.2228 96.8979 82.5858 96.7521 82.9034 96.4604C83.2275 96.1623 83.3895 95.7345 83.3895 95.1771V91.9396H84.4395V97.7729H83.4673V96.8299C83.2534 97.1734 82.9747 97.4359 82.6312 97.6174C82.2941 97.7989 81.9279 97.8896 81.5326 97.8896ZM88.9895 97.8896C88.4191 97.8896 87.9006 97.7535 87.4339 97.4813C86.9673 97.209 86.5946 96.8428 86.3159 96.3826C86.0372 95.9225 85.8978 95.4137 85.8978 94.8563C85.8978 94.2989 86.0372 93.7901 86.3159 93.3299C86.5946 92.8697 86.9673 92.5035 87.4339 92.2313C87.9006 91.959 88.4191 91.8229 88.9895 91.8229C89.4108 91.8229 89.8062 91.8975 90.1756 92.0465C90.5451 92.1956 90.8691 92.3933 91.1478 92.6396L90.827 93.9618C90.665 93.6377 90.4187 93.3655 90.0881 93.1451C89.764 92.9248 89.3946 92.8146 88.9798 92.8146C88.6039 92.8146 88.2603 92.9086 87.9492 93.0965C87.6446 93.278 87.4015 93.5243 87.2201 93.8354C87.0386 94.1401 86.9478 94.4803 86.9478 94.8563C86.9478 95.2257 87.0386 95.566 87.2201 95.8771C87.4015 96.1882 87.6446 96.4377 87.9492 96.6257C88.2603 96.8072 88.6039 96.8979 88.9798 96.8979C89.3946 96.8979 89.764 96.791 90.0881 96.5771C90.4187 96.3632 90.665 96.0877 90.827 95.7507L91.1478 97.0729C90.8691 97.3192 90.5451 97.5169 90.1756 97.666C89.8062 97.8151 89.4108 97.8896 88.9895 97.8896ZM95.2117 97.8896C94.6025 97.8896 94.0548 97.7535 93.5687 97.4813C93.089 97.209 92.7099 96.8396 92.4312 96.3729C92.1589 95.8998 92.0228 95.3748 92.0228 94.7979C92.0228 94.247 92.1557 93.7479 92.4214 93.3007C92.6872 92.847 93.0437 92.4873 93.4909 92.2215C93.9446 91.9558 94.4437 91.8229 94.9881 91.8229C95.5261 91.8229 96.0187 91.9526 96.4659 92.2118C96.9131 92.4646 97.2696 92.8081 97.5353 93.2424C97.8011 93.6766 97.9339 94.1692 97.9339 94.7201V95.1479H94.1228C93.9543 95.1479 93.7826 95.1414 93.6076 95.1285C93.4326 95.1155 93.2608 95.0961 93.0923 95.0701C93.1636 95.5887 93.3969 96.0229 93.7923 96.3729C94.1941 96.7229 94.6705 96.8979 95.2214 96.8979C95.5909 96.8979 95.9344 96.8137 96.252 96.6451C96.5696 96.4766 96.8256 96.253 97.0201 95.9743L97.3117 97.1701C97.033 97.397 96.7122 97.5752 96.3492 97.7049C95.9927 97.828 95.6136 97.8896 95.2117 97.8896ZM93.0631 94.3604C93.4131 94.3021 93.7664 94.2729 94.1228 94.2729H96.0576C96.2001 94.2729 96.3395 94.2794 96.4756 94.2924C96.6182 94.2989 96.7608 94.3086 96.9034 94.3215C96.8126 93.8678 96.5858 93.4951 96.2228 93.2035C95.8599 92.9053 95.4483 92.7563 94.9881 92.7563C94.515 92.7563 94.1001 92.9151 93.7437 93.2326C93.3872 93.5438 93.1603 93.9197 93.0631 94.3604ZM101.562 97.8896C101.154 97.8896 100.771 97.7891 100.415 97.5882C100.058 97.3808 99.7697 97.0826 99.5494 96.6938C99.329 96.3049 99.2188 95.8382 99.2188 95.2938V91.9396H100.269V95.1479C100.269 95.6081 100.405 96.0164 100.677 96.3729C100.956 96.7229 101.345 96.8979 101.844 96.8979C102.252 96.8979 102.615 96.7521 102.933 96.4604C103.257 96.1623 103.419 95.7345 103.419 95.1771V91.9396H104.469V97.7729H103.497V96.8299C103.283 97.1734 103.004 97.4359 102.66 97.6174C102.323 97.7989 101.957 97.8896 101.562 97.8896ZM106.335 97.7729V91.9396H107.308V93.009C107.515 92.6655 107.791 92.3933 108.134 92.1924C108.478 91.985 108.886 91.8813 109.359 91.8813L109.622 92.9313C109.498 92.8924 109.356 92.8729 109.194 92.8729C108.649 92.8729 108.212 93.0479 107.881 93.3979C107.551 93.7414 107.385 94.234 107.385 94.8757V97.7729H106.335Z"/>
</mask>
<path d="M28.3556 97.7729V89.0229H30.5237C31.1006 89.0229 31.5867 89.1104 31.982 89.2854C32.3839 89.4604 32.708 89.6905 32.9543 89.9757C33.2006 90.2544 33.3788 90.559 33.489 90.8896C33.6056 91.2201 33.664 91.5442 33.664 91.8618C33.664 92.1729 33.6089 92.4938 33.4987 92.8243C33.3885 93.1549 33.2103 93.4627 32.964 93.7479C32.7177 94.0331 32.3936 94.2632 31.9918 94.4382C31.5899 94.6132 31.1006 94.7007 30.5237 94.7007H29.464V97.7729H28.3556ZM29.464 93.709H30.4654C30.9904 93.709 31.4052 93.6183 31.7098 93.4368C32.0144 93.2489 32.2316 93.0155 32.3612 92.7368C32.4908 92.4516 32.5556 92.16 32.5556 91.8618C32.5556 91.5766 32.4908 91.2914 32.3612 91.0063C32.2381 90.7211 32.0242 90.4845 31.7195 90.2965C31.4214 90.1086 31.0033 90.0146 30.4654 90.0146H29.464V93.709ZM37.4617 97.8896C36.8525 97.8896 36.3048 97.7535 35.8187 97.4813C35.339 97.209 34.9599 96.8396 34.6812 96.3729C34.4089 95.8998 34.2728 95.3748 34.2728 94.7979C34.2728 94.247 34.4057 93.7479 34.6714 93.3007C34.9372 92.847 35.2937 92.4873 35.7409 92.2215C36.1946 91.9558 36.6937 91.8229 37.2381 91.8229C37.7761 91.8229 38.2687 91.9526 38.7159 92.2118C39.1631 92.4646 39.5196 92.8081 39.7853 93.2424C40.0511 93.6766 40.1839 94.1692 40.1839 94.7201V95.1479H36.3728C36.2043 95.1479 36.0326 95.1414 35.8576 95.1285C35.6826 95.1155 35.5108 95.0961 35.3423 95.0701C35.4136 95.5887 35.6469 96.0229 36.0423 96.3729C36.4441 96.7229 36.9205 96.8979 37.4714 96.8979C37.8409 96.8979 38.1844 96.8137 38.502 96.6451C38.8196 96.4766 39.0756 96.253 39.2701 95.9743L39.5617 97.1701C39.283 97.397 38.9622 97.5752 38.5992 97.7049C38.2427 97.828 37.8636 97.8896 37.4617 97.8896ZM35.3131 94.3604C35.6631 94.3021 36.0164 94.2729 36.3728 94.2729H38.3076C38.4501 94.2729 38.5895 94.2794 38.7256 94.2924C38.8682 94.2989 39.0108 94.3086 39.1534 94.3215C39.0626 93.8678 38.8358 93.4951 38.4728 93.2035C38.1099 92.9053 37.6983 92.7563 37.2381 92.7563C36.765 92.7563 36.3501 92.9151 35.9937 93.2326C35.6372 93.5438 35.4103 93.9197 35.3131 94.3604ZM42.266 97.7729V92.8146H40.9438V91.9396H42.2952V89.9951H43.2869V91.9396H44.7355V92.8146H43.316V97.7729H42.266ZM45.9605 97.7729V91.9396H47.0105V97.7729H45.9605ZM46.4855 90.8896C46.291 90.8896 46.1257 90.8215 45.9896 90.6854C45.8535 90.5493 45.7855 90.384 45.7855 90.1896C45.7855 89.9887 45.8535 89.8234 45.9896 89.6938C46.1257 89.5576 46.291 89.4896 46.4855 89.4896C46.6864 89.4896 46.8517 89.5576 46.9813 89.6938C47.1174 89.8234 47.1855 89.9887 47.1855 90.1896C47.1855 90.384 47.1174 90.5493 46.9813 90.6854C46.8517 90.8215 46.6864 90.8896 46.4855 90.8896ZM49.5531 97.7729V92.8146H48.2309V91.9396H49.5823V89.9951H50.574V91.9396H52.0226V92.8146H50.6031V97.7729H49.5531ZM55.741 97.8896C55.1318 97.8896 54.5841 97.7535 54.098 97.4813C53.6183 97.209 53.2392 96.8396 52.9605 96.3729C52.6882 95.8998 52.5521 95.3748 52.5521 94.7979C52.5521 94.247 52.685 93.7479 52.9507 93.3007C53.2165 92.847 53.573 92.4873 54.0202 92.2215C54.4739 91.9558 54.973 91.8229 55.5174 91.8229C56.0554 91.8229 56.548 91.9526 56.9952 92.2118C57.4424 92.4646 57.7989 92.8081 58.0646 93.2424C58.3304 93.6766 58.4632 94.1692 58.4632 94.7201V95.1479H54.6521C54.4836 95.1479 54.3119 95.1414 54.1369 95.1285C53.9619 95.1155 53.7901 95.0961 53.6216 95.0701C53.6929 95.5887 53.9262 96.0229 54.3216 96.3729C54.7234 96.7229 55.1998 96.8979 55.7507 96.8979C56.1202 96.8979 56.4637 96.8137 56.7813 96.6451C57.0989 96.4766 57.3549 96.253 57.5494 95.9743L57.841 97.1701C57.5623 97.397 57.2415 97.5752 56.8785 97.7049C56.522 97.828 56.1429 97.8896 55.741 97.8896ZM53.5924 94.3604C53.9424 94.3021 54.2956 94.2729 54.6521 94.2729H56.5869C56.7294 94.2729 56.8688 94.2794 57.0049 94.2924C57.1475 94.2989 57.2901 94.3086 57.4327 94.3215C57.3419 93.8678 57.1151 93.4951 56.7521 93.2035C56.3892 92.9053 55.9776 92.7563 55.5174 92.7563C55.0443 92.7563 54.6294 92.9151 54.273 93.2326C53.9165 93.5438 53.6896 93.9197 53.5924 94.3604ZM63.0685 97.7729V89.0229H65.9366C66.7273 89.0229 67.4144 89.1526 67.9977 89.4118C68.5875 89.6711 69.0736 90.0146 69.456 90.4424C69.8384 90.8701 70.1236 91.3433 70.3116 91.8618C70.4996 92.3739 70.5935 92.8859 70.5935 93.3979C70.5935 93.91 70.4996 94.4252 70.3116 94.9438C70.1236 95.4558 69.8384 95.9257 69.456 96.3535C69.0736 96.7813 68.5875 97.1248 67.9977 97.384C67.4144 97.6433 66.7273 97.7729 65.9366 97.7729H63.0685ZM64.1769 96.7813H65.8199C66.494 96.7813 67.0611 96.6776 67.5213 96.4701C67.9815 96.2563 68.3542 95.9808 68.6394 95.6438C68.9246 95.3002 69.1287 94.9308 69.2519 94.5354C69.3815 94.1401 69.4463 93.7609 69.4463 93.3979C69.4463 93.035 69.3815 92.6558 69.2519 92.2604C69.1287 91.8651 68.9246 91.4989 68.6394 91.1618C68.3542 90.8183 67.9815 90.5428 67.5213 90.3354C67.0611 90.1215 66.494 90.0146 65.8199 90.0146H64.1769V96.7813ZM74.7786 97.8896C74.2148 97.8896 73.6995 97.7535 73.2328 97.4813C72.7661 97.209 72.3935 96.8428 72.1148 96.3826C71.8425 95.9225 71.7064 95.4137 71.7064 94.8563C71.7064 94.2924 71.8425 93.7836 72.1148 93.3299C72.3935 92.8697 72.7661 92.5035 73.2328 92.2313C73.6995 91.959 74.2148 91.8229 74.7786 91.8229C75.349 91.8229 75.8643 91.959 76.3245 92.2313C76.7911 92.5035 77.1606 92.8697 77.4328 93.3299C77.7115 93.7836 77.8509 94.2924 77.8509 94.8563C77.8509 95.4137 77.7115 95.9225 77.4328 96.3826C77.1606 96.8428 76.7911 97.209 76.3245 97.4813C75.8643 97.7535 75.349 97.8896 74.7786 97.8896ZM74.7786 96.8979C75.1546 96.8979 75.4949 96.8072 75.7995 96.6257C76.1041 96.4377 76.3472 96.1914 76.5286 95.8868C76.7101 95.5757 76.8009 95.2322 76.8009 94.8563C76.8009 94.4803 76.7101 94.1401 76.5286 93.8354C76.3472 93.5243 76.1041 93.278 75.7995 93.0965C75.4949 92.9086 75.1546 92.8146 74.7786 92.8146C74.4027 92.8146 74.0624 92.9086 73.7578 93.0965C73.4532 93.278 73.2101 93.5243 73.0286 93.8354C72.8472 94.1401 72.7564 94.4803 72.7564 94.8563C72.7564 95.2322 72.8472 95.5757 73.0286 95.8868C73.2101 96.1914 73.4532 96.4377 73.7578 96.6257C74.0624 96.8072 74.4027 96.8979 74.7786 96.8979ZM81.5326 97.8896C81.1242 97.8896 80.7418 97.7891 80.3853 97.5882C80.0289 97.3808 79.7404 97.0826 79.5201 96.6938C79.2997 96.3049 79.1895 95.8382 79.1895 95.2938V91.9396H80.2395V95.1479C80.2395 95.6081 80.3756 96.0164 80.6478 96.3729C80.9265 96.7229 81.3154 96.8979 81.8145 96.8979C82.2228 96.8979 82.5858 96.7521 82.9034 96.4604C83.2275 96.1623 83.3895 95.7345 83.3895 95.1771V91.9396H84.4395V97.7729H83.4673V96.8299C83.2534 97.1734 82.9747 97.4359 82.6312 97.6174C82.2941 97.7989 81.9279 97.8896 81.5326 97.8896ZM88.9895 97.8896C88.4191 97.8896 87.9006 97.7535 87.4339 97.4813C86.9673 97.209 86.5946 96.8428 86.3159 96.3826C86.0372 95.9225 85.8978 95.4137 85.8978 94.8563C85.8978 94.2989 86.0372 93.7901 86.3159 93.3299C86.5946 92.8697 86.9673 92.5035 87.4339 92.2313C87.9006 91.959 88.4191 91.8229 88.9895 91.8229C89.4108 91.8229 89.8062 91.8975 90.1756 92.0465C90.5451 92.1956 90.8691 92.3933 91.1478 92.6396L90.827 93.9618C90.665 93.6377 90.4187 93.3655 90.0881 93.1451C89.764 92.9248 89.3946 92.8146 88.9798 92.8146C88.6039 92.8146 88.2603 92.9086 87.9492 93.0965C87.6446 93.278 87.4015 93.5243 87.2201 93.8354C87.0386 94.1401 86.9478 94.4803 86.9478 94.8563C86.9478 95.2257 87.0386 95.566 87.2201 95.8771C87.4015 96.1882 87.6446 96.4377 87.9492 96.6257C88.2603 96.8072 88.6039 96.8979 88.9798 96.8979C89.3946 96.8979 89.764 96.791 90.0881 96.5771C90.4187 96.3632 90.665 96.0877 90.827 95.7507L91.1478 97.0729C90.8691 97.3192 90.5451 97.5169 90.1756 97.666C89.8062 97.8151 89.4108 97.8896 88.9895 97.8896ZM95.2117 97.8896C94.6025 97.8896 94.0548 97.7535 93.5687 97.4813C93.089 97.209 92.7099 96.8396 92.4312 96.3729C92.1589 95.8998 92.0228 95.3748 92.0228 94.7979C92.0228 94.247 92.1557 93.7479 92.4214 93.3007C92.6872 92.847 93.0437 92.4873 93.4909 92.2215C93.9446 91.9558 94.4437 91.8229 94.9881 91.8229C95.5261 91.8229 96.0187 91.9526 96.4659 92.2118C96.9131 92.4646 97.2696 92.8081 97.5353 93.2424C97.8011 93.6766 97.9339 94.1692 97.9339 94.7201V95.1479H94.1228C93.9543 95.1479 93.7826 95.1414 93.6076 95.1285C93.4326 95.1155 93.2608 95.0961 93.0923 95.0701C93.1636 95.5887 93.3969 96.0229 93.7923 96.3729C94.1941 96.7229 94.6705 96.8979 95.2214 96.8979C95.5909 96.8979 95.9344 96.8137 96.252 96.6451C96.5696 96.4766 96.8256 96.253 97.0201 95.9743L97.3117 97.1701C97.033 97.397 96.7122 97.5752 96.3492 97.7049C95.9927 97.828 95.6136 97.8896 95.2117 97.8896ZM93.0631 94.3604C93.4131 94.3021 93.7664 94.2729 94.1228 94.2729H96.0576C96.2001 94.2729 96.3395 94.2794 96.4756 94.2924C96.6182 94.2989 96.7608 94.3086 96.9034 94.3215C96.8126 93.8678 96.5858 93.4951 96.2228 93.2035C95.8599 92.9053 95.4483 92.7563 94.9881 92.7563C94.515 92.7563 94.1001 92.9151 93.7437 93.2326C93.3872 93.5438 93.1603 93.9197 93.0631 94.3604ZM101.562 97.8896C101.154 97.8896 100.771 97.7891 100.415 97.5882C100.058 97.3808 99.7697 97.0826 99.5494 96.6938C99.329 96.3049 99.2188 95.8382 99.2188 95.2938V91.9396H100.269V95.1479C100.269 95.6081 100.405 96.0164 100.677 96.3729C100.956 96.7229 101.345 96.8979 101.844 96.8979C102.252 96.8979 102.615 96.7521 102.933 96.4604C103.257 96.1623 103.419 95.7345 103.419 95.1771V91.9396H104.469V97.7729H103.497V96.8299C103.283 97.1734 103.004 97.4359 102.66 97.6174C102.323 97.7989 101.957 97.8896 101.562 97.8896ZM106.335 97.7729V91.9396H107.308V93.009C107.515 92.6655 107.791 92.3933 108.134 92.1924C108.478 91.985 108.886 91.8813 109.359 91.8813L109.622 92.9313C109.498 92.8924 109.356 92.8729 109.194 92.8729C108.649 92.8729 108.212 93.0479 107.881 93.3979C107.551 93.7414 107.385 94.234 107.385 94.8757V97.7729H106.335Z" fill="#624B61"/>
<path d="M28.3556 97.7729H27.3556V98.7729H28.3556V97.7729ZM28.3556 89.0229V88.0229H27.3556V89.0229H28.3556ZM31.982 89.2854L31.5773 90.1999L31.5828 90.2023L31.982 89.2854ZM32.9543 89.9757L32.1974 90.6294L32.2049 90.6379L32.9543 89.9757ZM33.489 90.8896L32.5403 91.2058L32.5431 91.2141L32.546 91.2224L33.489 90.8896ZM33.4987 92.8243L34.4474 93.1405V93.1405L33.4987 92.8243ZM32.964 93.7479L33.7208 94.4015V94.4015L32.964 93.7479ZM31.9918 94.4382L32.391 95.355L31.9918 94.4382ZM29.464 94.7007V93.7007H28.464V94.7007H29.464ZM29.464 97.7729V98.7729H30.464V97.7729H29.464ZM29.464 93.709H28.464V94.709H29.464V93.709ZM31.7098 93.4368L32.2216 94.2959L32.2283 94.2919L32.2349 94.2879L31.7098 93.4368ZM32.3612 92.7368L33.268 93.1586L33.2716 93.1506L32.3612 92.7368ZM32.3612 91.0063L31.4431 91.4027L31.4469 91.4114L31.4508 91.4201L32.3612 91.0063ZM31.7195 90.2965L31.1862 91.1425L31.1944 91.1476L31.7195 90.2965ZM29.464 90.0146V89.0146H28.464V90.0146H29.464ZM28.3556 97.7729H29.3556V89.0229H28.3556H27.3556V97.7729H28.3556ZM28.3556 89.0229V90.0229H30.5237V89.0229V88.0229H28.3556V89.0229ZM30.5237 89.0229V90.0229C31.0053 90.0229 31.3444 90.0968 31.5773 90.1999L31.982 89.2854L32.3868 88.371C31.8289 88.1241 31.1958 88.0229 30.5237 88.0229V89.0229ZM31.982 89.2854L31.5828 90.2023C31.8696 90.3272 32.0639 90.4747 32.1974 90.6293L32.9543 89.9757L33.7111 89.3221C33.3521 88.9064 32.8982 88.5937 32.3813 88.3686L31.982 89.2854ZM32.9543 89.9757L32.2049 90.6379C32.3683 90.8227 32.4754 91.0113 32.5403 91.2058L33.489 90.8896L34.4377 90.5734C34.2821 90.1068 34.0328 89.6861 33.7036 89.3135L32.9543 89.9757ZM33.489 90.8896L32.546 91.2224C32.6288 91.4571 32.664 91.6687 32.664 91.8618H33.664H34.664C34.664 91.4197 34.5825 90.9832 34.432 90.5568L33.489 90.8896ZM33.664 91.8618H32.664C32.664 92.0534 32.6302 92.2674 32.55 92.5081L33.4987 92.8243L34.4474 93.1405C34.5875 92.7201 34.664 92.2925 34.664 91.8618H33.664ZM33.4987 92.8243L32.55 92.5081C32.4844 92.7049 32.3751 92.8999 32.2072 93.0943L32.964 93.7479L33.7208 94.4015C34.0455 94.0256 34.2926 93.6048 34.4474 93.1405L33.4987 92.8243ZM32.964 93.7479L32.2072 93.0943C32.0736 93.249 31.8793 93.3965 31.5925 93.5214L31.9918 94.4382L32.391 95.355C32.9079 95.1299 33.3618 94.8173 33.7208 94.4015L32.964 93.7479ZM31.9918 94.4382L31.5925 93.5214C31.3497 93.6271 31.0045 93.7007 30.5237 93.7007V94.7007V95.7007C31.1966 95.7007 31.8301 95.5993 32.391 95.355L31.9918 94.4382ZM30.5237 94.7007V93.7007H29.464V94.7007V95.7007H30.5237V94.7007ZM29.464 94.7007H28.464V97.7729H29.464H30.464V94.7007H29.464ZM29.464 97.7729V96.7729H28.3556V97.7729V98.7729H29.464V97.7729ZM29.464 93.709V94.709H30.4654V93.709V92.709H29.464V93.709ZM30.4654 93.709V94.709C31.0898 94.709 31.705 94.6037 32.2216 94.2959L31.7098 93.4368L31.198 92.5777C31.1053 92.6329 30.891 92.709 30.4654 92.709V93.709ZM31.7098 93.4368L32.2349 94.2879C32.678 94.0145 33.0429 93.6423 33.2679 93.1585L32.3612 92.7368L31.4545 92.3151C31.4202 92.3888 31.3509 92.4832 31.1847 92.5858L31.7098 93.4368ZM32.3612 92.7368L33.2716 93.1506C33.4572 92.7422 33.5556 92.3099 33.5556 91.8618H32.5556H31.5556C31.5556 92.01 31.5245 92.161 31.4508 92.323L32.3612 92.7368ZM32.5556 91.8618H33.5556C33.5556 91.4203 33.4544 90.9947 33.2716 90.5925L32.3612 91.0063L31.4508 91.4201C31.5273 91.5882 31.5556 91.7329 31.5556 91.8618H32.5556ZM32.3612 91.0063L33.2793 90.6098C33.0629 90.1088 32.6963 89.7242 32.2446 89.4455L31.7195 90.2965L31.1944 91.1476C31.352 91.2448 31.4132 91.3333 31.4431 91.4027L32.3612 91.0063ZM31.7195 90.2965L32.2528 89.4506C31.7318 89.1221 31.1 89.0146 30.4654 89.0146V90.0146V91.0146C30.9067 91.0146 31.1109 91.095 31.1862 91.1425L31.7195 90.2965ZM30.4654 90.0146V89.0146H29.464V90.0146V91.0146H30.4654V90.0146ZM29.464 90.0146H28.464V93.709H29.464H30.464V90.0146H29.464ZM35.8187 97.4813L35.3251 98.351L35.3301 98.3538L35.8187 97.4813ZM34.6812 96.3729L33.8144 96.8716L33.8184 96.8787L33.8226 96.8857L34.6812 96.3729ZM34.6714 93.3007L35.5311 93.8115L35.5343 93.8061L34.6714 93.3007ZM35.7409 92.2215L35.2355 91.3586L35.2301 91.3619L35.7409 92.2215ZM38.7159 92.2118L38.2143 93.077L38.2238 93.0824L38.7159 92.2118ZM40.1839 95.1479V96.1479H41.1839V95.1479H40.1839ZM35.3423 95.0701L35.4943 94.0818L34.1689 93.8779L34.3516 95.2064L35.3423 95.0701ZM36.0423 96.3729L35.3794 97.1217L35.3855 97.127L36.0423 96.3729ZM39.2701 95.9743L40.2416 95.7374L39.7169 93.5862L38.4499 95.4021L39.2701 95.9743ZM39.5617 97.1701L40.193 97.9457L40.6829 97.5469L40.5332 96.9332L39.5617 97.1701ZM38.5992 97.7049L38.9258 98.6501L38.9356 98.6466L38.5992 97.7049ZM35.3131 94.3604L34.3366 94.145L34.0178 95.5901L35.4775 95.3468L35.3131 94.3604ZM38.7256 94.2924L38.6308 95.2879L38.6555 95.2902L38.6802 95.2913L38.7256 94.2924ZM39.1534 94.3215L39.0629 95.3174L40.3966 95.4387L40.134 94.1254L39.1534 94.3215ZM38.4728 93.2035L37.8381 93.9763L37.8464 93.983L38.4728 93.2035ZM35.9937 93.2326L36.6512 93.9861L36.6589 93.9793L35.9937 93.2326ZM37.4617 97.8896V96.8896C37.0071 96.8896 36.6304 96.7897 36.3073 96.6088L35.8187 97.4813L35.3301 98.3538C35.9792 98.7173 36.6978 98.8896 37.4617 98.8896V97.8896ZM35.8187 97.4813L36.3123 96.6116C35.9808 96.4234 35.7283 96.176 35.5397 95.8602L34.6812 96.3729L33.8226 96.8857C34.1914 97.5031 34.6973 97.9946 35.3251 98.3509L35.8187 97.4813ZM34.6812 96.3729L35.5479 95.8742C35.368 95.5615 35.2728 95.2101 35.2728 94.7979H34.2728H33.2728C33.2728 95.5395 33.4499 96.2381 33.8144 96.8716L34.6812 96.3729ZM34.2728 94.7979H35.2728C35.2728 94.4157 35.3627 94.095 35.5311 93.8115L34.6714 93.3007L33.8118 92.7899C33.4487 93.4009 33.2728 94.0783 33.2728 94.7979H34.2728ZM34.6714 93.3007L35.5343 93.8061C35.7155 93.4967 35.9515 93.2596 36.2517 93.0812L35.7409 92.2215L35.2301 91.3619C34.6358 91.715 34.1588 92.1973 33.8086 92.7953L34.6714 93.3007ZM35.7409 92.2215L36.2463 93.0844C36.5411 92.9117 36.8647 92.8229 37.2381 92.8229V91.8229V90.8229C36.5226 90.8229 35.8481 90.9999 35.2355 91.3587L35.7409 92.2215ZM37.2381 91.8229V92.8229C37.6074 92.8229 37.9259 92.9097 38.2144 93.077L38.7159 92.2118L39.2174 91.3467C38.6115 90.9954 37.9447 90.8229 37.2381 90.8229V91.8229ZM38.7159 92.2118L38.2238 93.0824C38.5245 93.2523 38.7562 93.4764 38.9324 93.7643L39.7853 93.2424L40.6383 92.7204C40.283 92.1398 39.8017 91.6769 39.2079 91.3413L38.7159 92.2118ZM39.7853 93.2424L38.9324 93.7643C39.0941 94.0286 39.1839 94.3377 39.1839 94.7201H40.1839H41.1839C41.1839 94.0007 41.0081 93.3247 40.6383 92.7204L39.7853 93.2424ZM40.1839 94.7201H39.1839V95.1479H40.1839H41.1839V94.7201H40.1839ZM40.1839 95.1479V94.1479H36.3728V95.1479V96.1479H40.1839V95.1479ZM36.3728 95.1479V94.1479C36.23 94.1479 36.0829 94.1424 35.9314 94.1312L35.8576 95.1285L35.7837 96.1257C35.9823 96.1405 36.1787 96.1479 36.3728 96.1479V95.1479ZM35.8576 95.1285L35.9314 94.1312C35.7818 94.1201 35.6362 94.1036 35.4943 94.0818L35.3423 95.0701L35.1902 96.0585C35.3854 96.0886 35.5833 96.1109 35.7837 96.1257L35.8576 95.1285ZM35.3423 95.0701L34.3516 95.2064C34.4558 95.964 34.8068 96.6148 35.3794 97.1217L36.0423 96.3729L36.7051 95.6242C36.487 95.4311 36.3714 95.2134 36.333 94.9339L35.3423 95.0701ZM36.0423 96.3729L35.3855 97.127C35.976 97.6414 36.688 97.8979 37.4714 97.8979V96.8979V95.8979C37.153 95.8979 36.9122 95.8045 36.6991 95.6188L36.0423 96.3729ZM37.4714 96.8979V97.8979C37.9996 97.8979 38.5047 97.7758 38.9707 97.5285L38.502 96.6451L38.0333 95.7618C37.8641 95.8516 37.6821 95.8979 37.4714 95.8979V96.8979ZM38.502 96.6451L38.9707 97.5285C39.4201 97.29 39.7997 96.9629 40.0902 96.5465L39.2701 95.9743L38.4499 95.4021C38.3515 95.5432 38.2191 95.6632 38.0333 95.7618L38.502 96.6451ZM39.2701 95.9743L38.2985 96.2113L38.5902 97.4071L39.5617 97.1701L40.5332 96.9332L40.2416 95.7374L39.2701 95.9743ZM39.5617 97.1701L38.9305 96.3946C38.7461 96.5446 38.5266 96.6689 38.2629 96.7631L38.5992 97.7049L38.9356 98.6466C39.3978 98.4815 39.8199 98.2494 40.193 97.9457L39.5617 97.1701ZM38.5992 97.7049L38.2727 96.7597C38.028 96.8442 37.7598 96.8896 37.4617 96.8896V97.8896V98.8896C37.9674 98.8896 38.4575 98.8118 38.9257 98.6501L38.5992 97.7049ZM35.3131 94.3604L35.4775 95.3468C35.7729 95.2976 36.0712 95.2729 36.3728 95.2729V94.2729V93.2729C35.9615 93.2729 35.5533 93.3066 35.1487 93.374L35.3131 94.3604ZM36.3728 94.2729V95.2729H38.3076V94.2729V93.2729H36.3728V94.2729ZM38.3076 94.2729V95.2729C38.4198 95.2729 38.5275 95.278 38.6308 95.2879L38.7256 94.2924L38.8204 93.2969C38.6515 93.2808 38.4805 93.2729 38.3076 93.2729V94.2729ZM38.7256 94.2924L38.6802 95.2913C38.8077 95.2971 38.9352 95.3058 39.0629 95.3174L39.1534 94.3215L39.2439 93.3256C39.0864 93.3113 38.9287 93.3006 38.771 93.2934L38.7256 94.2924ZM39.1534 94.3215L40.134 94.1254C39.9969 93.4401 39.6437 92.8615 39.0992 92.424L38.4728 93.2035L37.8464 93.983C38.0279 94.1288 38.1284 94.2955 38.1728 94.5177L39.1534 94.3215ZM38.4728 93.2035L39.1076 92.4308C38.5698 91.989 37.935 91.7563 37.2381 91.7563V92.7563V93.7563C37.4616 93.7563 37.65 93.8217 37.8381 93.9762L38.4728 93.2035ZM37.2381 92.7563V91.7563C36.5172 91.7563 35.8663 92.0069 35.3285 92.486L35.9937 93.2326L36.6589 93.9793C36.834 93.8233 37.0127 93.7563 37.2381 93.7563V92.7563ZM35.9937 93.2326L35.3361 92.4792C34.8268 92.9237 34.4822 93.4849 34.3366 94.145L35.3131 94.3604L36.2896 94.5758C36.3385 94.3545 36.4475 94.1638 36.6512 93.9861L35.9937 93.2326ZM42.266 97.7729H41.266V98.7729H42.266V97.7729ZM42.266 92.8146H43.266V91.8146H42.266V92.8146ZM40.9438 92.8146H39.9438V93.8146H40.9438V92.8146ZM40.9438 91.9396V90.9396H39.9438V91.9396H40.9438ZM42.2952 91.9396V92.9396H43.2952V91.9396H42.2952ZM42.2952 89.9951V88.9951H41.2952V89.9951H42.2952ZM43.2869 89.9951H44.2869V88.9951H43.2869V89.9951ZM43.2869 91.9396H42.2869V92.9396H43.2869V91.9396ZM44.7355 91.9396H45.7355V90.9396H44.7355V91.9396ZM44.7355 92.8146V93.8146H45.7355V92.8146H44.7355ZM43.316 92.8146V91.8146H42.316V92.8146H43.316ZM43.316 97.7729V98.7729H44.316V97.7729H43.316ZM42.266 97.7729H43.266V92.8146H42.266H41.266V97.7729H42.266ZM42.266 92.8146V91.8146H40.9438V92.8146V93.8146H42.266V92.8146ZM40.9438 92.8146H41.9438V91.9396H40.9438H39.9438V92.8146H40.9438ZM40.9438 91.9396V92.9396H42.2952V91.9396V90.9396H40.9438V91.9396ZM42.2952 91.9396H43.2952V89.9951H42.2952H41.2952V91.9396H42.2952ZM42.2952 89.9951V90.9951H43.2869V89.9951V88.9951H42.2952V89.9951ZM43.2869 89.9951H42.2869V91.9396H43.2869H44.2869V89.9951H43.2869ZM43.2869 91.9396V92.9396H44.7355V91.9396V90.9396H43.2869V91.9396ZM44.7355 91.9396H43.7355V92.8146H44.7355H45.7355V91.9396H44.7355ZM44.7355 92.8146V91.8146H43.316V92.8146V93.8146H44.7355V92.8146ZM43.316 92.8146H42.316V97.7729H43.316H44.316V92.8146H43.316ZM43.316 97.7729V96.7729H42.266V97.7729V98.7729H43.316V97.7729ZM45.9605 97.7729H44.9605V98.7729H45.9605V97.7729ZM45.9605 91.9396V90.9396H44.9605V91.9396H45.9605ZM47.0105 91.9396H48.0105V90.9396H47.0105V91.9396ZM47.0105 97.7729V98.7729H48.0105V97.7729H47.0105ZM45.9896 90.6854L46.6967 89.9783L45.9896 90.6854ZM45.9896 89.6938L46.6793 90.4179L46.6881 90.4095L46.6967 90.4009L45.9896 89.6938ZM46.9813 89.6938L46.2572 90.3834L46.274 90.4011L46.2916 90.4179L46.9813 89.6938ZM46.9813 90.6854L46.2742 89.9783L46.2656 89.9869L46.2572 89.9958L46.9813 90.6854ZM45.9605 97.7729H46.9605V91.9396H45.9605H44.9605V97.7729H45.9605ZM45.9605 91.9396V92.9396H47.0105V91.9396V90.9396H45.9605V91.9396ZM47.0105 91.9396H46.0105V97.7729H47.0105H48.0105V91.9396H47.0105ZM47.0105 97.7729V96.7729H45.9605V97.7729V98.7729H47.0105V97.7729ZM46.4855 90.8896V89.8896C46.5073 89.8896 46.548 89.894 46.5964 89.9139C46.645 89.9339 46.6787 89.9603 46.6967 89.9783L45.9896 90.6854L45.2825 91.3925C45.6083 91.7183 46.0288 91.8896 46.4855 91.8896V90.8896ZM45.9896 90.6854L46.6967 89.9783C46.7148 89.9964 46.7412 90.0301 46.7612 90.0786C46.7811 90.127 46.7855 90.1677 46.7855 90.1896H45.7855H44.7855C44.7855 90.6462 44.9567 91.0668 45.2825 91.3925L45.9896 90.6854ZM45.7855 90.1896H46.7855C46.7855 90.2036 46.7827 90.2434 46.7612 90.2957C46.7391 90.3494 46.7074 90.3911 46.6793 90.4179L45.9896 89.6938L45.3 88.9696C44.9509 89.302 44.7855 89.7361 44.7855 90.1896H45.7855ZM45.9896 89.6938L46.6967 90.4009C46.6787 90.4189 46.645 90.4453 46.5964 90.4653C46.548 90.4852 46.5073 90.4896 46.4855 90.4896V89.4896V88.4896C46.0288 88.4896 45.6083 88.6609 45.2825 88.9867L45.9896 89.6938ZM46.4855 89.4896V90.4896C46.4715 90.4896 46.4316 90.4868 46.3794 90.4653C46.3257 90.4432 46.284 90.4116 46.2572 90.3834L46.9813 89.6938L47.7054 89.0041C47.373 88.6551 46.939 88.4896 46.4855 88.4896V89.4896ZM46.9813 89.6938L46.2916 90.4179C46.2635 90.3911 46.2319 90.3494 46.2097 90.2957C46.1882 90.2434 46.1855 90.2036 46.1855 90.1896H47.1855H48.1855C48.1855 89.7361 48.02 89.302 47.671 88.9696L46.9813 89.6938ZM47.1855 90.1896H46.1855C46.1855 90.1677 46.1898 90.127 46.2097 90.0786C46.2297 90.0301 46.2561 89.9964 46.2742 89.9783L46.9813 90.6854L47.6884 91.3925C48.0142 91.0668 48.1855 90.6462 48.1855 90.1896H47.1855ZM46.9813 90.6854L46.2572 89.9958C46.284 89.9676 46.3257 89.936 46.3794 89.9139C46.4316 89.8924 46.4715 89.8896 46.4855 89.8896V90.8896V91.8896C46.939 91.8896 47.373 91.7241 47.7054 91.3751L46.9813 90.6854ZM49.5531 97.7729H48.5531V98.7729H49.5531V97.7729ZM49.5531 92.8146H50.5531V91.8146H49.5531V92.8146ZM48.2309 92.8146H47.2309V93.8146H48.2309V92.8146ZM48.2309 91.9396V90.9396H47.2309V91.9396H48.2309ZM49.5823 91.9396V92.9396H50.5823V91.9396H49.5823ZM49.5823 89.9951V88.9951H48.5823V89.9951H49.5823ZM50.574 89.9951H51.574V88.9951H50.574V89.9951ZM50.574 91.9396H49.574V92.9396H50.574V91.9396ZM52.0226 91.9396H53.0226V90.9396H52.0226V91.9396ZM52.0226 92.8146V93.8146H53.0226V92.8146H52.0226ZM50.6031 92.8146V91.8146H49.6031V92.8146H50.6031ZM50.6031 97.7729V98.7729H51.6031V97.7729H50.6031ZM49.5531 97.7729H50.5531V92.8146H49.5531H48.5531V97.7729H49.5531ZM49.5531 92.8146V91.8146H48.2309V92.8146V93.8146H49.5531V92.8146ZM48.2309 92.8146H49.2309V91.9396H48.2309H47.2309V92.8146H48.2309ZM48.2309 91.9396V92.9396H49.5823V91.9396V90.9396H48.2309V91.9396ZM49.5823 91.9396H50.5823V89.9951H49.5823H48.5823V91.9396H49.5823ZM49.5823 89.9951V90.9951H50.574V89.9951V88.9951H49.5823V89.9951ZM50.574 89.9951H49.574V91.9396H50.574H51.574V89.9951H50.574ZM50.574 91.9396V92.9396H52.0226V91.9396V90.9396H50.574V91.9396ZM52.0226 91.9396H51.0226V92.8146H52.0226H53.0226V91.9396H52.0226ZM52.0226 92.8146V91.8146H50.6031V92.8146V93.8146H52.0226V92.8146ZM50.6031 92.8146H49.6031V97.7729H50.6031H51.6031V92.8146H50.6031ZM50.6031 97.7729V96.7729H49.5531V97.7729V98.7729H50.6031V97.7729ZM54.098 97.4813L53.6043 98.351L53.6094 98.3538L54.098 97.4813ZM52.9605 96.3729L52.0937 96.8716L52.0977 96.8787L52.1019 96.8857L52.9605 96.3729ZM52.9507 93.3007L53.8104 93.8115L53.8136 93.8061L52.9507 93.3007ZM54.0202 92.2215L53.5148 91.3586L53.5094 91.3619L54.0202 92.2215ZM56.9952 92.2118L56.4936 93.077L56.5031 93.0824L56.9952 92.2118ZM58.4632 95.1479V96.1479H59.4632V95.1479H58.4632ZM53.6216 95.0701L53.7736 94.0818L52.4482 93.8779L52.6309 95.2064L53.6216 95.0701ZM54.3216 96.3729L53.6587 97.1217L53.6648 97.127L54.3216 96.3729ZM57.5494 95.9743L58.5209 95.7374L57.9962 93.5862L56.7292 95.4021L57.5494 95.9743ZM57.841 97.1701L58.4723 97.9457L58.9622 97.5469L58.8125 96.9332L57.841 97.1701ZM56.8785 97.7049L57.2051 98.6501L57.2149 98.6466L56.8785 97.7049ZM53.5924 94.3604L52.6159 94.145L52.2971 95.5901L53.7568 95.3468L53.5924 94.3604ZM57.0049 94.2924L56.9101 95.2879L56.9348 95.2902L56.9595 95.2913L57.0049 94.2924ZM57.4327 94.3215L57.3422 95.3174L58.6759 95.4387L58.4133 94.1254L57.4327 94.3215ZM56.7521 93.2035L56.1174 93.9763L56.1257 93.983L56.7521 93.2035ZM54.273 93.2326L54.9305 93.9861L54.9382 93.9793L54.273 93.2326ZM55.741 97.8896V96.8896C55.2864 96.8896 54.9097 96.7897 54.5866 96.6088L54.098 97.4813L53.6094 98.3538C54.2585 98.7173 54.9771 98.8896 55.741 98.8896V97.8896ZM54.098 97.4813L54.5916 96.6116C54.2601 96.4234 54.0076 96.176 53.819 95.8602L52.9605 96.3729L52.1019 96.8857C52.4707 97.5031 52.9766 97.9946 53.6044 98.3509L54.098 97.4813ZM52.9605 96.3729L53.8272 95.8742C53.6473 95.5615 53.5521 95.2101 53.5521 94.7979H52.5521H51.5521C51.5521 95.5395 51.7292 96.2381 52.0937 96.8716L52.9605 96.3729ZM52.5521 94.7979H53.5521C53.5521 94.4157 53.642 94.095 53.8104 93.8115L52.9507 93.3007L52.0911 92.7899C51.728 93.4009 51.5521 94.0783 51.5521 94.7979H52.5521ZM52.9507 93.3007L53.8136 93.8061C53.9948 93.4967 54.2308 93.2596 54.531 93.0812L54.0202 92.2215L53.5094 91.3619C52.9151 91.715 52.4381 92.1973 52.0879 92.7953L52.9507 93.3007ZM54.0202 92.2215L54.5256 93.0844C54.8204 92.9117 55.144 92.8229 55.5174 92.8229V91.8229V90.8229C54.8019 90.8229 54.1274 90.9999 53.5148 91.3587L54.0202 92.2215ZM55.5174 91.8229V92.8229C55.8867 92.8229 56.2052 92.9097 56.4937 93.077L56.9952 92.2118L57.4967 91.3467C56.8908 90.9954 56.224 90.8229 55.5174 90.8229V91.8229ZM56.9952 92.2118L56.5031 93.0824C56.8038 93.2523 57.0355 93.4764 57.2117 93.7643L58.0646 93.2424L58.9176 92.7204C58.5623 92.1398 58.081 91.6769 57.4872 91.3413L56.9952 92.2118ZM58.0646 93.2424L57.2117 93.7643C57.3734 94.0286 57.4632 94.3377 57.4632 94.7201H58.4632H59.4632C59.4632 94.0007 59.2874 93.3247 58.9176 92.7204L58.0646 93.2424ZM58.4632 94.7201H57.4632V95.1479H58.4632H59.4632V94.7201H58.4632ZM58.4632 95.1479V94.1479H54.6521V95.1479V96.1479H58.4632V95.1479ZM54.6521 95.1479V94.1479C54.5092 94.1479 54.3621 94.1424 54.2107 94.1312L54.1369 95.1285L54.063 96.1257C54.2616 96.1405 54.458 96.1479 54.6521 96.1479V95.1479ZM54.1369 95.1285L54.2107 94.1312C54.0611 94.1201 53.9155 94.1036 53.7736 94.0818L53.6216 95.0701L53.4695 96.0585C53.6647 96.0886 53.8626 96.1109 54.063 96.1257L54.1369 95.1285ZM53.6216 95.0701L52.6309 95.2064C52.7351 95.964 53.0861 96.6148 53.6587 97.1217L54.3216 96.3729L54.9844 95.6242C54.7663 95.4311 54.6507 95.2134 54.6123 94.9339L53.6216 95.0701ZM54.3216 96.3729L53.6648 97.127C54.2553 97.6414 54.9673 97.8979 55.7507 97.8979V96.8979V95.8979C55.4323 95.8979 55.1915 95.8045 54.9784 95.6188L54.3216 96.3729ZM55.7507 96.8979V97.8979C56.2789 97.8979 56.784 97.7758 57.25 97.5285L56.7813 96.6451L56.3126 95.7618C56.1434 95.8516 55.9614 95.8979 55.7507 95.8979V96.8979ZM56.7813 96.6451L57.25 97.5285C57.6994 97.29 58.079 96.9629 58.3695 96.5465L57.5494 95.9743L56.7292 95.4021C56.6308 95.5432 56.4984 95.6632 56.3126 95.7618L56.7813 96.6451ZM57.5494 95.9743L56.5778 96.2113L56.8695 97.4071L57.841 97.1701L58.8125 96.9332L58.5209 95.7374L57.5494 95.9743ZM57.841 97.1701L57.2097 96.3946C57.0254 96.5446 56.8059 96.6689 56.5422 96.7631L56.8785 97.7049L57.2149 98.6466C57.6771 98.4815 58.0992 98.2494 58.4723 97.9457L57.841 97.1701ZM56.8785 97.7049L56.552 96.7597C56.3072 96.8442 56.0391 96.8896 55.741 96.8896V97.8896V98.8896C56.2467 98.8896 56.7368 98.8118 57.205 98.6501L56.8785 97.7049ZM53.5924 94.3604L53.7568 95.3468C54.0522 95.2976 54.3505 95.2729 54.6521 95.2729V94.2729V93.2729C54.2408 93.2729 53.8326 93.3066 53.428 93.374L53.5924 94.3604ZM54.6521 94.2729V95.2729H56.5869V94.2729V93.2729H54.6521V94.2729ZM56.5869 94.2729V95.2729C56.6991 95.2729 56.8068 95.278 56.9101 95.2879L57.0049 94.2924L57.0997 93.2969C56.9308 93.2808 56.7598 93.2729 56.5869 93.2729V94.2729ZM57.0049 94.2924L56.9595 95.2913C57.087 95.2971 57.2145 95.3058 57.3422 95.3174L57.4327 94.3215L57.5232 93.3256C57.3657 93.3113 57.208 93.3006 57.0503 93.2934L57.0049 94.2924ZM57.4327 94.3215L58.4133 94.1254C58.2762 93.4401 57.923 92.8615 57.3785 92.424L56.7521 93.2035L56.1257 93.983C56.3072 94.1288 56.4077 94.2955 56.4521 94.5177L57.4327 94.3215ZM56.7521 93.2035L57.3869 92.4308C56.8491 91.989 56.2143 91.7563 55.5174 91.7563V92.7563V93.7563C55.7409 93.7563 55.9293 93.8217 56.1174 93.9762L56.7521 93.2035ZM55.5174 92.7563V91.7563C54.7965 91.7563 54.1456 92.0069 53.6078 92.486L54.273 93.2326L54.9382 93.9793C55.1133 93.8233 55.292 93.7563 55.5174 93.7563V92.7563ZM54.273 93.2326L53.6154 92.4792C53.1061 92.9237 52.7615 93.4849 52.6159 94.145L53.5924 94.3604L54.5689 94.5758C54.6178 94.3545 54.7268 94.1638 54.9305 93.9861L54.273 93.2326ZM63.0685 97.7729H62.0685V98.7729H63.0685V97.7729ZM63.0685 89.0229V88.0229H62.0685V89.0229H63.0685ZM67.9977 89.4118L67.5916 90.3256L67.5953 90.3273L67.9977 89.4118ZM69.456 90.4424L68.7105 91.1088V91.1088L69.456 90.4424ZM70.3116 91.8618L69.3714 92.2026L69.3728 92.2064L70.3116 91.8618ZM70.3116 94.9438L71.2503 95.2884L71.2517 95.2846L70.3116 94.9438ZM69.456 96.3535L68.7105 95.687L69.456 96.3535ZM67.9977 97.384L67.5953 96.4686L67.5916 96.4702L67.9977 97.384ZM64.1769 96.7813H63.1769V97.7813H64.1769V96.7813ZM67.5213 96.4701L67.9322 97.3819L67.9428 97.377L67.5213 96.4701ZM68.6394 95.6438L69.4028 96.2897L69.4088 96.2825L68.6394 95.6438ZM69.2519 94.5354L68.3016 94.2239L68.2993 94.2309L68.2971 94.238L69.2519 94.5354ZM69.2519 92.2604L68.2971 92.5578L68.2993 92.5649L68.3016 92.572L69.2519 92.2604ZM68.6394 91.1618L67.8699 91.8006L67.876 91.8078L68.6394 91.1618ZM67.5213 90.3354L67.0998 91.2423L67.1104 91.2471L67.5213 90.3354ZM64.1769 90.0146V89.0146H63.1769V90.0146H64.1769ZM63.0685 97.7729H64.0685V89.0229H63.0685H62.0685V97.7729H63.0685ZM63.0685 89.0229V90.0229H65.9366V89.0229V88.0229H63.0685V89.0229ZM65.9366 89.0229V90.0229C66.6199 90.0229 67.1628 90.135 67.5916 90.3256L67.9977 89.4118L68.4038 88.498C67.666 88.1701 66.8348 88.0229 65.9366 88.0229V89.0229ZM67.9977 89.4118L67.5953 90.3273C68.0704 90.5361 68.4344 90.8 68.7105 91.1088L69.456 90.4424L70.2016 89.7759C69.7128 89.2292 69.1046 88.806 68.4001 88.4964L67.9977 89.4118ZM69.456 90.4424L68.7105 91.1088C69.0113 91.4454 69.2287 91.8089 69.3715 92.2026L70.3116 91.8618L71.2517 91.521C71.0185 90.8777 70.6655 90.2949 70.2016 89.7759L69.456 90.4424ZM70.3116 91.8618L69.3728 92.2064C69.523 92.6153 69.5935 93.0109 69.5935 93.3979H70.5935H71.5935C71.5935 92.7608 71.4762 92.1324 71.2503 91.5172L70.3116 91.8618ZM70.5935 93.3979H69.5935C69.5935 93.7851 69.5229 94.1852 69.3715 94.603L70.3116 94.9438L71.2517 95.2846C71.4762 94.6652 71.5935 94.0348 71.5935 93.3979H70.5935ZM70.3116 94.9438L69.3728 94.5992C69.2306 94.9866 69.0132 95.3484 68.7105 95.687L69.456 96.3535L70.2016 97.0199C70.6637 96.503 71.0166 95.925 71.2503 95.2884L70.3116 94.9438ZM69.456 96.3535L68.7105 95.687C68.4344 95.9958 68.0704 96.2597 67.5953 96.4686L67.9977 97.384L68.4001 98.2995C69.1046 97.9898 69.7128 97.5667 70.2016 97.0199L69.456 96.3535ZM67.9977 97.384L67.5916 96.4702C67.1628 96.6608 66.6199 96.7729 65.9366 96.7729V97.7729V98.7729C66.8348 98.7729 67.666 98.6258 68.4038 98.2978L67.9977 97.384ZM65.9366 97.7729V96.7729H63.0685V97.7729V98.7729H65.9366V97.7729ZM64.1769 96.7813V97.7813H65.8199V96.7813V95.7813H64.1769V96.7813ZM65.8199 96.7813V97.7813C66.5906 97.7813 67.3073 97.6635 67.9322 97.3818L67.5213 96.4701L67.1104 95.5585C66.815 95.6916 66.3974 95.7813 65.8199 95.7813V96.7813ZM67.5213 96.4701L67.9428 97.377C68.5149 97.1111 69.0108 96.7529 69.4028 96.2897L68.6394 95.6438L67.876 94.9978C67.6975 95.2087 67.4481 95.4015 67.0998 95.5633L67.5213 96.4701ZM68.6394 95.6438L69.4088 96.2825C69.7709 95.8463 70.0417 95.3625 70.2066 94.8328L69.2519 94.5354L68.2971 94.238C68.2158 94.4991 68.0782 94.7541 67.87 95.005L68.6394 95.6438ZM69.2519 94.5354L70.2021 94.847C70.36 94.3655 70.4463 93.8809 70.4463 93.3979H69.4463H68.4463C68.4463 93.6409 68.403 93.9146 68.3016 94.2239L69.2519 94.5354ZM69.4463 93.3979H70.4463C70.4463 92.9149 70.36 92.4304 70.2021 91.9489L69.2519 92.2604L68.3016 92.572C68.403 92.8812 68.4463 93.155 68.4463 93.3979H69.4463ZM69.2519 92.2604L70.2066 91.963C70.0411 91.4315 69.7686 90.9483 69.4028 90.5159L68.6394 91.1618L67.876 91.8078C68.0805 92.0494 68.2164 92.2986 68.2971 92.5578L69.2519 92.2604ZM68.6394 91.1618L69.4088 90.5231C69.0144 90.048 68.5129 89.6855 67.9322 89.4237L67.5213 90.3354L67.1104 91.2471C67.4501 91.4002 67.694 91.5886 67.87 91.8006L68.6394 91.1618ZM67.5213 90.3354L67.9428 89.4286C67.3147 89.1367 66.5941 89.0146 65.8199 89.0146V90.0146V91.0146C66.3939 91.0146 66.8075 91.1064 67.0998 91.2423L67.5213 90.3354ZM65.8199 90.0146V89.0146H64.1769V90.0146V91.0146H65.8199V90.0146ZM64.1769 90.0146H63.1769V96.7813H64.1769H65.1769V90.0146H64.1769ZM73.2328 97.4813L73.7367 96.6175V96.6175L73.2328 97.4813ZM72.1148 96.3826L71.254 96.8918L71.2594 96.9007L72.1148 96.3826ZM72.1148 93.3299L71.2594 92.8118L71.2573 92.8154L72.1148 93.3299ZM73.2328 92.2313L73.7367 93.095L73.2328 92.2313ZM76.3245 92.2313L75.8153 93.092L75.8206 93.095L76.3245 92.2313ZM77.4328 93.3299L76.5721 93.839L76.5764 93.8462L76.5807 93.8533L77.4328 93.3299ZM77.4328 96.3826L76.5774 95.8646L76.5721 95.8735L77.4328 96.3826ZM76.3245 97.4813L75.8206 96.6175L75.8153 96.6206L76.3245 97.4813ZM75.7995 96.6257L76.3113 97.4848L76.318 97.4808L76.3246 97.4767L75.7995 96.6257ZM76.5286 95.8868L77.3878 96.3986L77.3924 96.3907L76.5286 95.8868ZM76.5286 93.8354L75.6648 94.3393L75.6695 94.3472L76.5286 93.8354ZM75.7995 93.0965L75.2744 93.9476L75.281 93.9517L75.2877 93.9556L75.7995 93.0965ZM73.7578 93.0965L74.2696 93.9556L74.2763 93.9517L74.2829 93.9476L73.7578 93.0965ZM73.0286 93.8354L73.8878 94.3473L73.8924 94.3393L73.0286 93.8354ZM73.0286 95.8868L72.1648 96.3907L72.1695 96.3986L73.0286 95.8868ZM73.7578 96.6257L73.2327 97.4767L73.2393 97.4808L73.246 97.4848L73.7578 96.6257ZM74.7786 97.8896V96.8896C74.3837 96.8896 74.0436 96.7965 73.7367 96.6175L73.2328 97.4813L72.7289 98.345C73.3554 98.7105 74.0458 98.8896 74.7786 98.8896V97.8896ZM73.2328 97.4813L73.7367 96.6175C73.4136 96.429 73.162 96.1814 72.9701 95.8646L72.1148 96.3826L71.2594 96.9007C71.625 97.5043 72.1187 97.9891 72.7289 98.345L73.2328 97.4813ZM72.1148 96.3826L72.9754 95.8735C72.7984 95.5742 72.7064 95.2425 72.7064 94.8563H71.7064H70.7064C70.7064 95.5848 70.8867 96.2707 71.2541 96.8918L72.1148 96.3826ZM71.7064 94.8563H72.7064C72.7064 94.4612 72.7995 94.1324 72.9723 93.8444L72.1148 93.3299L71.2573 92.8154C70.8856 93.4348 70.7064 94.1235 70.7064 94.8563H71.7064ZM72.1148 93.3299L72.9701 93.8479C73.162 93.5311 73.4136 93.2835 73.7367 93.095L73.2328 92.2313L72.7289 91.3675C72.1187 91.7234 71.625 92.2082 71.2594 92.8118L72.1148 93.3299ZM73.2328 92.2313L73.7367 93.095C74.0436 92.916 74.3837 92.8229 74.7786 92.8229V91.8229V90.8229C74.0458 90.8229 73.3554 91.0021 72.7289 91.3675L73.2328 92.2313ZM74.7786 91.8229V92.8229C75.1823 92.8229 75.5197 92.917 75.8153 93.0919L76.3245 92.2313L76.8336 91.3706C76.2089 91.001 75.5157 90.8229 74.7786 90.8229V91.8229ZM76.3245 92.2313L75.8206 93.095C76.1417 93.2823 76.3876 93.5271 76.5721 93.839L77.4328 93.3299L78.2935 92.8207C77.9336 92.2123 77.4406 91.7246 76.8284 91.3675L76.3245 92.2313ZM77.4328 93.3299L76.5807 93.8533C76.7569 94.1401 76.8509 94.4658 76.8509 94.8563H77.8509H78.8509C78.8509 94.119 78.6661 93.427 78.2849 92.8065L77.4328 93.3299ZM77.8509 94.8563H76.8509C76.8509 95.2379 76.758 95.5665 76.5775 95.8646L77.4328 96.3826L78.2882 96.9007C78.665 96.2785 78.8509 95.5894 78.8509 94.8563H77.8509ZM77.4328 96.3826L76.5721 95.8735C76.3876 96.1854 76.1417 96.4302 75.8206 96.6175L76.3245 97.4813L76.8284 98.345C77.4406 97.9879 77.9336 97.5003 78.2935 96.8918L77.4328 96.3826ZM76.3245 97.4813L75.8153 96.6206C75.5197 96.7955 75.1823 96.8896 74.7786 96.8896V97.8896V98.8896C75.5157 98.8896 76.2089 98.7115 76.8336 98.3419L76.3245 97.4813ZM74.7786 96.8979V97.8979C75.3235 97.8979 75.8425 97.7641 76.3113 97.4848L75.7995 96.6257L75.2877 95.7666C75.1473 95.8503 74.9857 95.8979 74.7786 95.8979V96.8979ZM75.7995 96.6257L76.3246 97.4767C76.7649 97.2051 77.1231 96.8429 77.3878 96.3986L76.5286 95.8868L75.6695 95.375C75.5713 95.54 75.4433 95.6704 75.2744 95.7747L75.7995 96.6257ZM76.5286 95.8868L77.3924 96.3907C77.6671 95.9198 77.8009 95.4012 77.8009 94.8563H76.8009H75.8009C75.8009 95.0632 75.7532 95.2316 75.6649 95.3829L76.5286 95.8868ZM76.8009 94.8563H77.8009C77.8009 94.3114 77.6671 93.7925 77.3877 93.3236L76.5286 93.8354L75.6695 94.3472C75.7532 94.4877 75.8009 94.6492 75.8009 94.8563H76.8009ZM76.5286 93.8354L77.3924 93.3316C77.127 92.8765 76.7638 92.507 76.3113 92.2374L75.7995 93.0965L75.2877 93.9556C75.4444 94.049 75.5673 94.1721 75.6649 94.3393L76.5286 93.8354ZM75.7995 93.0965L76.3246 92.2455C75.854 91.9552 75.3303 91.8146 74.7786 91.8146V92.8146V93.8146C74.9789 93.8146 75.1357 93.862 75.2744 93.9476L75.7995 93.0965ZM74.7786 92.8146V91.8146C74.227 91.8146 73.7033 91.9552 73.2327 92.2455L73.7578 93.0965L74.2829 93.9476C74.4216 93.862 74.5784 93.8146 74.7786 93.8146V92.8146ZM73.7578 93.0965L73.246 92.2374C72.7935 92.507 72.4303 92.8765 72.1649 93.3316L73.0286 93.8354L73.8924 94.3393C73.99 94.1721 74.1129 94.049 74.2696 93.9556L73.7578 93.0965ZM73.0286 93.8354L72.1695 93.3236C71.8902 93.7925 71.7564 94.3114 71.7564 94.8563H72.7564H73.7564C73.7564 94.6492 73.8041 94.4877 73.8878 94.3472L73.0286 93.8354ZM72.7564 94.8563H71.7564C71.7564 95.4012 71.8902 95.9198 72.1649 96.3907L73.0286 95.8868L73.8924 95.3829C73.8041 95.2316 73.7564 95.0632 73.7564 94.8563H72.7564ZM73.0286 95.8868L72.1695 96.3986C72.4342 96.8429 72.7924 97.2051 73.2327 97.4767L73.7578 96.6257L74.2829 95.7747C74.114 95.6704 73.986 95.54 73.8878 95.375L73.0286 95.8868ZM73.7578 96.6257L73.246 97.4848C73.7148 97.7641 74.2338 97.8979 74.7786 97.8979V96.8979V95.8979C74.5716 95.8979 74.41 95.8503 74.2696 95.7666L73.7578 96.6257ZM80.3853 97.5882L79.8824 98.4526L79.8943 98.4594L80.3853 97.5882ZM79.5201 96.6938L78.65 97.1868L79.5201 96.6938ZM79.1895 91.9396V90.9396H78.1895V91.9396H79.1895ZM80.2395 91.9396H81.2395V90.9396H80.2395V91.9396ZM80.6478 96.3729L79.8531 96.9798L79.8592 96.9879L79.8656 96.9959L80.6478 96.3729ZM82.9034 96.4604L83.5798 97.197L83.5804 97.1964L82.9034 96.4604ZM83.3895 91.9396V90.9396H82.3895V91.9396H83.3895ZM84.4395 91.9396H85.4395V90.9396H84.4395V91.9396ZM84.4395 97.7729V98.7729H85.4395V97.7729H84.4395ZM83.4673 97.7729H82.4673V98.7729H83.4673V97.7729ZM83.4673 96.8299H84.4673V93.3319L82.6184 96.3013L83.4673 96.8299ZM82.6312 97.6174L82.164 96.7331L82.1571 96.7369L82.6312 97.6174ZM81.5326 97.8896V96.8896C81.2966 96.8896 81.0833 96.8337 80.8763 96.7171L80.3853 97.5882L79.8943 98.4594C80.4003 98.7446 80.9518 98.8896 81.5326 98.8896V97.8896ZM80.3853 97.5882L80.8882 96.7239C80.6976 96.6129 80.5307 96.4489 80.3901 96.2007L79.5201 96.6938L78.65 97.1868C78.9502 97.7164 79.3601 98.1487 79.8824 98.4526L80.3853 97.5882ZM79.5201 96.6938L80.3901 96.2007C80.2716 95.9918 80.1895 95.7029 80.1895 95.2938H79.1895H78.1895C78.1895 95.9735 78.3277 96.618 78.65 97.1868L79.5201 96.6938ZM79.1895 95.2938H80.1895V91.9396H79.1895H78.1895V95.2938H79.1895ZM79.1895 91.9396V92.9396H80.2395V91.9396V90.9396H79.1895V91.9396ZM80.2395 91.9396H79.2395V95.1479H80.2395H81.2395V91.9396H80.2395ZM80.2395 95.1479H79.2395C79.2395 95.8213 79.444 96.4442 79.8531 96.9798L80.6478 96.3729L81.4426 95.766C81.3072 95.5887 81.2395 95.3949 81.2395 95.1479H80.2395ZM80.6478 96.3729L79.8656 96.9959C80.3576 97.6137 81.0508 97.8979 81.8145 97.8979V96.8979V95.8979C81.58 95.8979 81.4955 95.8321 81.4301 95.75L80.6478 96.3729ZM81.8145 96.8979V97.8979C82.4883 97.8979 83.089 97.6477 83.5798 97.197L82.9034 96.4604L82.227 95.7239C82.0826 95.8565 81.9573 95.8979 81.8145 95.8979V96.8979ZM82.9034 96.4604L83.5804 97.1964C84.1622 96.6611 84.3895 95.9349 84.3895 95.1771H83.3895H82.3895C82.3895 95.5341 82.2927 95.6634 82.2263 95.7245L82.9034 96.4604ZM83.3895 95.1771H84.3895V91.9396H83.3895H82.3895V95.1771H83.3895ZM83.3895 91.9396V92.9396H84.4395V91.9396V90.9396H83.3895V91.9396ZM84.4395 91.9396H83.4395V97.7729H84.4395H85.4395V91.9396H84.4395ZM84.4395 97.7729V96.7729H83.4673V97.7729V98.7729H84.4395V97.7729ZM83.4673 97.7729H84.4673V96.8299H83.4673H82.4673V97.7729H83.4673ZM83.4673 96.8299L82.6184 96.3013C82.494 96.5011 82.3444 96.6379 82.164 96.7332L82.6312 97.6174L83.0983 98.5016C83.6049 98.2339 84.0128 97.8457 84.3162 97.3584L83.4673 96.8299ZM82.6312 97.6174L82.1571 96.7369C81.9706 96.8373 81.7681 96.8896 81.5326 96.8896V97.8896V98.8896C82.0878 98.8896 82.6176 98.7604 83.1053 98.4978L82.6312 97.6174ZM87.4339 97.4813L86.9301 98.345L87.4339 97.4813ZM86.3159 96.3826L87.1712 95.8646L86.3159 96.3826ZM86.3159 93.3299L87.1712 93.8479L86.3159 93.3299ZM87.4339 92.2313L86.9301 91.3675L87.4339 92.2313ZM90.1756 92.0465L90.5498 91.1192L90.1756 92.0465ZM91.1478 92.6396L92.1196 92.8754L92.2618 92.2895L91.81 91.8903L91.1478 92.6396ZM90.827 93.9618L89.9326 94.409L91.1545 96.8529L91.7988 94.1976L90.827 93.9618ZM90.0881 93.1451L89.5258 93.9721L89.5334 93.9772L90.0881 93.1451ZM87.9492 93.0965L88.461 93.9557L88.4663 93.9525L87.9492 93.0965ZM87.2201 93.8354L88.0792 94.3473L88.0838 94.3393L87.2201 93.8354ZM87.2201 95.8771L86.3563 96.381L87.2201 95.8771ZM87.9492 96.6257L87.4241 97.4767L87.4347 97.4832L87.4454 97.4895L87.9492 96.6257ZM90.0881 96.5771L89.5448 95.7375L89.5373 95.7425L90.0881 96.5771ZM90.827 95.7507L91.7988 95.5149L91.1387 92.7945L89.9258 95.3174L90.827 95.7507ZM91.1478 97.0729L91.81 97.8223L92.2618 97.423L92.1196 96.8371L91.1478 97.0729ZM90.1756 97.666L90.5498 98.5933L90.1756 97.666ZM88.9895 97.8896V96.8896C88.5859 96.8896 88.2429 96.7955 87.9378 96.6175L87.4339 97.4813L86.9301 98.345C87.5583 98.7115 88.2523 98.8896 88.9895 98.8896V97.8896ZM87.4339 97.4813L87.9378 96.6175C87.6147 96.429 87.3631 96.1814 87.1712 95.8646L86.3159 96.3826L85.4605 96.9007C85.8261 97.5043 86.3199 97.9891 86.9301 98.345L87.4339 97.4813ZM86.3159 96.3826L87.1712 95.8646C86.9907 95.5665 86.8978 95.2379 86.8978 94.8563H85.8978H84.8978C84.8978 95.5894 85.0837 96.2785 85.4605 96.9007L86.3159 96.3826ZM85.8978 94.8563H86.8978C86.8978 94.4746 86.9907 94.1461 87.1712 93.8479L86.3159 93.3299L85.4605 92.8118C85.0837 93.4341 84.8978 94.1231 84.8978 94.8563H85.8978ZM86.3159 93.3299L87.1712 93.8479C87.3631 93.5311 87.6147 93.2835 87.9378 93.095L87.4339 92.2313L86.9301 91.3675C86.3199 91.7234 85.8261 92.2082 85.4605 92.8118L86.3159 93.3299ZM87.4339 92.2313L87.9378 93.095C88.2429 92.9171 88.5859 92.8229 88.9895 92.8229V91.8229V90.8229C88.2523 90.8229 87.5583 91.001 86.9301 91.3675L87.4339 92.2313ZM88.9895 91.8229V92.8229C89.29 92.8229 89.5576 92.8755 89.8014 92.9739L90.1756 92.0465L90.5498 91.1192C90.0547 90.9194 89.5316 90.8229 88.9895 90.8229V91.8229ZM90.1756 92.0465L89.8014 92.9739C90.073 93.0835 90.298 93.2231 90.4856 93.3889L91.1478 92.6396L91.81 91.8903C91.4403 91.5635 91.0171 91.3078 90.5498 91.1192L90.1756 92.0465ZM91.1478 92.6396L90.176 92.4038L89.8552 93.726L90.827 93.9618L91.7988 94.1976L92.1196 92.8754L91.1478 92.6396ZM90.827 93.9618L91.7214 93.5146C91.4742 93.0201 91.1038 92.6204 90.6428 92.3131L90.0881 93.1451L89.5334 93.9772C89.7335 94.1106 89.8557 94.2553 89.9326 94.409L90.827 93.9618ZM90.0881 93.1451L90.6504 92.3182C90.1506 91.9783 89.5828 91.8146 88.9798 91.8146V92.8146V93.8146C89.2064 93.8146 89.3775 93.8712 89.5258 93.9721L90.0881 93.1451ZM88.9798 92.8146V91.8146C88.4281 91.8146 87.9047 91.9551 87.4321 92.2406L87.9492 93.0965L88.4663 93.9525C88.6159 93.8621 88.7796 93.8146 88.9798 93.8146V92.8146ZM87.9492 93.0965L87.4374 92.2374C86.9849 92.507 86.6217 92.8765 86.3563 93.3316L87.2201 93.8354L88.0838 94.3393C88.1814 94.1721 88.3043 94.049 88.461 93.9556L87.9492 93.0965ZM87.2201 93.8354L86.361 93.3236C86.0816 93.7925 85.9478 94.3114 85.9478 94.8563H86.9478H87.9478C87.9478 94.6492 87.9955 94.4877 88.0792 94.3472L87.2201 93.8354ZM86.9478 94.8563H85.9478C85.9478 95.398 86.0832 95.9128 86.3563 96.381L87.2201 95.8771L88.0838 95.3732C87.9939 95.2191 87.9478 95.0534 87.9478 94.8563H86.9478ZM87.2201 95.8771L86.3563 96.381C86.6199 96.8329 86.9789 97.202 87.4241 97.4767L87.9492 96.6257L88.4743 95.7747C88.3103 95.6734 88.1832 95.5435 88.0838 95.3732L87.2201 95.8771ZM87.9492 96.6257L87.4454 97.4895C87.9162 97.7642 88.4349 97.8979 88.9798 97.8979V96.8979V95.8979C88.7728 95.8979 88.6044 95.8502 88.4531 95.7619L87.9492 96.6257ZM88.9798 96.8979V97.8979C89.5764 97.8979 90.1401 97.741 90.639 97.4117L90.0881 96.5771L89.5373 95.7425C89.388 95.841 89.2128 95.8979 88.9798 95.8979V96.8979ZM90.0881 96.5771L90.6314 97.4167C91.1078 97.1084 91.4822 96.6957 91.7283 96.184L90.827 95.7507L89.9258 95.3174C89.8477 95.4798 89.7295 95.618 89.5449 95.7375L90.0881 96.5771ZM90.827 95.7507L89.8552 95.9865L90.176 97.3087L91.1478 97.0729L92.1196 96.8371L91.7988 95.5149L90.827 95.7507ZM91.1478 97.0729L90.4856 96.3236C90.298 96.4894 90.073 96.6291 89.8014 96.7386L90.1756 97.666L90.5498 98.5933C91.0171 98.4048 91.4403 98.149 91.81 97.8223L91.1478 97.0729ZM90.1756 97.666L89.8014 96.7386C89.5576 96.837 89.29 96.8896 88.9895 96.8896V97.8896V98.8896C89.5316 98.8896 90.0547 98.7931 90.5498 98.5933L90.1756 97.666ZM93.5687 97.4813L93.0751 98.351L93.0801 98.3538L93.5687 97.4813ZM92.4312 96.3729L91.5644 96.8716L91.5685 96.8787L91.5726 96.8857L92.4312 96.3729ZM92.4214 93.3007L93.2811 93.8115L93.2843 93.8061L92.4214 93.3007ZM93.4909 92.2215L92.9855 91.3586L92.9801 91.3619L93.4909 92.2215ZM96.4659 92.2118L95.9643 93.077L95.9738 93.0824L96.4659 92.2118ZM97.9339 95.1479V96.1479H98.9339V95.1479H97.9339ZM93.0923 95.0701L93.2443 94.0818L91.9189 93.8779L92.1016 95.2064L93.0923 95.0701ZM93.7923 96.3729L93.1294 97.1217L93.1355 97.127L93.7923 96.3729ZM97.0201 95.9743L97.9916 95.7374L97.4669 93.5862L96.1999 95.4021L97.0201 95.9743ZM97.3117 97.1701L97.943 97.9457L98.4329 97.5469L98.2832 96.9332L97.3117 97.1701ZM96.3492 97.7049L96.6758 98.6501L96.6856 98.6466L96.3492 97.7049ZM93.0631 94.3604L92.0866 94.145L91.7678 95.5901L93.2275 95.3468L93.0631 94.3604ZM96.4756 94.2924L96.3808 95.2879L96.4055 95.2902L96.4302 95.2913L96.4756 94.2924ZM96.9034 94.3215L96.8129 95.3174L98.1466 95.4387L97.884 94.1254L96.9034 94.3215ZM96.2228 93.2035L95.5881 93.9763L95.5964 93.983L96.2228 93.2035ZM93.7437 93.2326L94.4012 93.9861L94.4089 93.9793L93.7437 93.2326ZM95.2117 97.8896V96.8896C94.7571 96.8896 94.3804 96.7897 94.0573 96.6088L93.5687 97.4813L93.0801 98.3538C93.7292 98.7173 94.4478 98.8896 95.2117 98.8896V97.8896ZM93.5687 97.4813L94.0623 96.6116C93.7308 96.4234 93.4783 96.176 93.2897 95.8602L92.4312 96.3729L91.5726 96.8857C91.9414 97.5031 92.4473 97.9946 93.0751 98.3509L93.5687 97.4813ZM92.4312 96.3729L93.2979 95.8742C93.118 95.5615 93.0228 95.2101 93.0228 94.7979H92.0228H91.0228C91.0228 95.5395 91.1999 96.2381 91.5644 96.8716L92.4312 96.3729ZM92.0228 94.7979H93.0228C93.0228 94.4157 93.1127 94.095 93.2811 93.8115L92.4214 93.3007L91.5618 92.7899C91.1987 93.4009 91.0228 94.0783 91.0228 94.7979H92.0228ZM92.4214 93.3007L93.2843 93.8061C93.4655 93.4967 93.7015 93.2596 94.0017 93.0812L93.4909 92.2215L92.9801 91.3619C92.3858 91.715 91.9088 92.1973 91.5586 92.7953L92.4214 93.3007ZM93.4909 92.2215L93.9963 93.0844C94.2911 92.9117 94.6147 92.8229 94.9881 92.8229V91.8229V90.8229C94.2726 90.8229 93.5981 90.9999 92.9855 91.3587L93.4909 92.2215ZM94.9881 91.8229V92.8229C95.3574 92.8229 95.6759 92.9097 95.9644 93.077L96.4659 92.2118L96.9674 91.3467C96.3615 90.9954 95.6947 90.8229 94.9881 90.8229V91.8229ZM96.4659 92.2118L95.9738 93.0824C96.2745 93.2523 96.5062 93.4764 96.6824 93.7643L97.5353 93.2424L98.3883 92.7204C98.033 92.1398 97.5517 91.6769 96.9579 91.3413L96.4659 92.2118ZM97.5353 93.2424L96.6824 93.7643C96.8441 94.0286 96.9339 94.3377 96.9339 94.7201H97.9339H98.9339C98.9339 94.0007 98.7581 93.3247 98.3883 92.7204L97.5353 93.2424ZM97.9339 94.7201H96.9339V95.1479H97.9339H98.9339V94.7201H97.9339ZM97.9339 95.1479V94.1479H94.1228V95.1479V96.1479H97.9339V95.1479ZM94.1228 95.1479V94.1479C93.9799 94.1479 93.8328 94.1424 93.6814 94.1312L93.6076 95.1285L93.5337 96.1257C93.7323 96.1405 93.9287 96.1479 94.1228 96.1479V95.1479ZM93.6076 95.1285L93.6814 94.1312C93.5318 94.1201 93.3862 94.1036 93.2443 94.0818L93.0923 95.0701L92.9402 96.0585C93.1354 96.0886 93.3333 96.1109 93.5337 96.1257L93.6076 95.1285ZM93.0923 95.0701L92.1016 95.2064C92.2058 95.964 92.5568 96.6148 93.1294 97.1217L93.7923 96.3729L94.4551 95.6242C94.237 95.4311 94.1214 95.2134 94.083 94.9339L93.0923 95.0701ZM93.7923 96.3729L93.1355 97.127C93.726 97.6414 94.438 97.8979 95.2214 97.8979V96.8979V95.8979C94.903 95.8979 94.6622 95.8045 94.4491 95.6188L93.7923 96.3729ZM95.2214 96.8979V97.8979C95.7496 97.8979 96.2547 97.7758 96.7207 97.5285L96.252 96.6451L95.7833 95.7618C95.6141 95.8516 95.4321 95.8979 95.2214 95.8979V96.8979ZM96.252 96.6451L96.7207 97.5285C97.1701 97.29 97.5497 96.9629 97.8402 96.5465L97.0201 95.9743L96.1999 95.4021C96.1015 95.5432 95.9691 95.6632 95.7833 95.7618L96.252 96.6451ZM97.0201 95.9743L96.0485 96.2113L96.3402 97.4071L97.3117 97.1701L98.2832 96.9332L97.9916 95.7374L97.0201 95.9743ZM97.3117 97.1701L96.6805 96.3946C96.4961 96.5446 96.2766 96.6689 96.0129 96.7631L96.3492 97.7049L96.6856 98.6466C97.1478 98.4815 97.5699 98.2494 97.943 97.9457L97.3117 97.1701ZM96.3492 97.7049L96.0227 96.7597C95.778 96.8442 95.5098 96.8896 95.2117 96.8896V97.8896V98.8896C95.7174 98.8896 96.2075 98.8118 96.6757 98.6501L96.3492 97.7049ZM93.0631 94.3604L93.2275 95.3468C93.5229 95.2976 93.8212 95.2729 94.1228 95.2729V94.2729V93.2729C93.7115 93.2729 93.3033 93.3066 92.8987 93.374L93.0631 94.3604ZM94.1228 94.2729V95.2729H96.0576V94.2729V93.2729H94.1228V94.2729ZM96.0576 94.2729V95.2729C96.1698 95.2729 96.2775 95.278 96.3808 95.2879L96.4756 94.2924L96.5704 93.2969C96.4015 93.2808 96.2305 93.2729 96.0576 93.2729V94.2729ZM96.4756 94.2924L96.4302 95.2913C96.5577 95.2971 96.6852 95.3058 96.8129 95.3174L96.9034 94.3215L96.9939 93.3256C96.8364 93.3113 96.6787 93.3006 96.521 93.2934L96.4756 94.2924ZM96.9034 94.3215L97.884 94.1254C97.7469 93.4401 97.3937 92.8615 96.8492 92.424L96.2228 93.2035L95.5964 93.983C95.7779 94.1288 95.8784 94.2955 95.9228 94.5177L96.9034 94.3215ZM96.2228 93.2035L96.8576 92.4308C96.3198 91.989 95.685 91.7563 94.9881 91.7563V92.7563V93.7563C95.2116 93.7563 95.4 93.8217 95.5881 93.9762L96.2228 93.2035ZM94.9881 92.7563V91.7563C94.2672 91.7563 93.6163 92.0069 93.0785 92.486L93.7437 93.2326L94.4089 93.9793C94.584 93.8233 94.7627 93.7563 94.9881 93.7563V92.7563ZM93.7437 93.2326L93.0861 92.4792C92.5768 92.9237 92.2322 93.4849 92.0866 94.145L93.0631 94.3604L94.0396 94.5758C94.0885 94.3545 94.1975 94.1638 94.4012 93.9861L93.7437 93.2326ZM100.415 97.5882L99.9117 98.4526L99.9236 98.4594L100.415 97.5882ZM99.5494 96.6938L98.6793 97.1868L99.5494 96.6938ZM99.2188 91.9396V90.9396H98.2188V91.9396H99.2188ZM100.269 91.9396H101.269V90.9396H100.269V91.9396ZM100.677 96.3729L99.8824 96.9798L99.8885 96.9879L99.8949 96.9959L100.677 96.3729ZM102.933 96.4604L103.609 97.197L103.61 97.1964L102.933 96.4604ZM103.419 91.9396V90.9396H102.419V91.9396H103.419ZM104.469 91.9396H105.469V90.9396H104.469V91.9396ZM104.469 97.7729V98.7729H105.469V97.7729H104.469ZM103.497 97.7729H102.497V98.7729H103.497V97.7729ZM103.497 96.8299H104.497V93.3319L102.648 96.3013L103.497 96.8299ZM102.66 97.6174L102.193 96.7331L102.186 96.7369L102.66 97.6174ZM101.562 97.8896V96.8896C101.326 96.8896 101.113 96.8337 100.906 96.7171L100.415 97.5882L99.9236 98.4594C100.43 98.7446 100.981 98.8896 101.562 98.8896V97.8896ZM100.415 97.5882L100.918 96.7239C100.727 96.6129 100.56 96.4489 100.419 96.2007L99.5494 96.6938L98.6793 97.1868C98.9795 97.7164 99.3894 98.1487 99.9117 98.4526L100.415 97.5882ZM99.5494 96.6938L100.419 96.2007C100.301 95.9918 100.219 95.7029 100.219 95.2938H99.2188H98.2188C98.2188 95.9735 98.357 96.618 98.6793 97.1868L99.5494 96.6938ZM99.2188 95.2938H100.219V91.9396H99.2188H98.2188V95.2938H99.2188ZM99.2188 91.9396V92.9396H100.269V91.9396V90.9396H99.2188V91.9396ZM100.269 91.9396H99.2688V95.1479H100.269H101.269V91.9396H100.269ZM100.269 95.1479H99.2688C99.2688 95.8213 99.4733 96.4442 99.8824 96.9798L100.677 96.3729L101.472 95.766C101.336 95.5887 101.269 95.3949 101.269 95.1479H100.269ZM100.677 96.3729L99.8949 96.9959C100.387 97.6137 101.08 97.8979 101.844 97.8979V96.8979V95.8979C101.609 95.8979 101.525 95.8321 101.459 95.75L100.677 96.3729ZM101.844 96.8979V97.8979C102.518 97.8979 103.118 97.6477 103.609 97.197L102.933 96.4604L102.256 95.7239C102.112 95.8565 101.987 95.8979 101.844 95.8979V96.8979ZM102.933 96.4604L103.61 97.1964C104.191 96.6611 104.419 95.9349 104.419 95.1771H103.419H102.419C102.419 95.5341 102.322 95.6634 102.256 95.7245L102.933 96.4604ZM103.419 95.1771H104.419V91.9396H103.419H102.419V95.1771H103.419ZM103.419 91.9396V92.9396H104.469V91.9396V90.9396H103.419V91.9396ZM104.469 91.9396H103.469V97.7729H104.469H105.469V91.9396H104.469ZM104.469 97.7729V96.7729H103.497V97.7729V98.7729H104.469V97.7729ZM103.497 97.7729H104.497V96.8299H103.497H102.497V97.7729H103.497ZM103.497 96.8299L102.648 96.3013C102.523 96.5011 102.374 96.6379 102.193 96.7332L102.66 97.6174L103.128 98.5016C103.634 98.2339 104.042 97.8457 104.345 97.3584L103.497 96.8299ZM102.66 97.6174L102.186 96.7369C102 96.8373 101.797 96.8896 101.562 96.8896V97.8896V98.8896C102.117 98.8896 102.647 98.7604 103.135 98.4978L102.66 97.6174ZM106.335 97.7729H105.335V98.7729H106.335V97.7729ZM106.335 91.9396V90.9396H105.335V91.9396H106.335ZM107.308 91.9396H108.308V90.9396H107.308V91.9396ZM107.308 93.009H106.308V96.6L108.164 93.5259L107.308 93.009ZM108.134 92.1924L108.639 93.0556L108.651 93.0484L108.134 92.1924ZM109.359 91.8813L110.329 91.6387L110.14 90.8813H109.359V91.8813ZM109.622 92.9313L109.32 93.8848L111.025 94.4232L110.592 92.6887L109.622 92.9313ZM107.881 93.3979L108.602 94.0913L108.608 94.0845L107.881 93.3979ZM107.385 97.7729V98.7729H108.385V97.7729H107.385ZM106.335 97.7729H107.335V91.9396H106.335H105.335V97.7729H106.335ZM106.335 91.9396V92.9396H107.308V91.9396V90.9396H106.335V91.9396ZM107.308 91.9396H106.308V93.009H107.308H108.308V91.9396H107.308ZM107.308 93.009L108.164 93.5259C108.286 93.3241 108.441 93.1714 108.639 93.0556L108.134 92.1924L107.629 91.3292C107.14 91.6151 106.745 92.0069 106.452 92.4922L107.308 93.009ZM108.134 92.1924L108.651 93.0484C108.812 92.9509 109.035 92.8813 109.359 92.8813V91.8813V90.8813C108.737 90.8813 108.143 91.019 107.617 91.3363L108.134 92.1924ZM109.359 91.8813L108.389 92.1238L108.651 93.1738L109.622 92.9313L110.592 92.6887L110.329 91.6387L109.359 91.8813ZM109.622 92.9313L109.923 91.9777C109.681 91.9014 109.433 91.8729 109.194 91.8729V92.8729V93.8729C109.278 93.8729 109.316 93.8834 109.32 93.8848L109.622 92.9313ZM109.194 92.8729V91.8729C108.414 91.8729 107.699 92.1342 107.154 92.7113L107.881 93.3979L108.608 94.0845C108.724 93.9617 108.885 93.8729 109.194 93.8729V92.8729ZM107.881 93.3979L107.161 92.7045C106.596 93.2913 106.385 94.067 106.385 94.8757H107.385H108.385C108.385 94.401 108.505 94.1916 108.602 94.0913L107.881 93.3979ZM107.385 94.8757H106.385V97.7729H107.385H108.385V94.8757H107.385ZM107.385 97.7729V96.7729H106.335V97.7729V98.7729H107.385V97.7729Z" fill="#624B61" mask="url(#path-11-inside-1_242_759)"/>
<path d="M39.9218 54.6387C40.7214 54.9694 41.5334 55.2251 42.3564 55.4238L47.7245 80.8154C47.5144 80.7596 47.322 80.7008 47.1572 80.6367C46.9832 80.569 46.8609 80.5051 46.7851 80.4502C46.7544 80.4279 46.7388 80.4114 46.7314 80.4033C44.4621 71.8152 42.1916 63.227 39.9218 54.6387Z" stroke="#624B61"/>
<path d="M45.7363 55.9555C46.9035 56.0567 48.0889 56.0912 49.2852 56.1039L53.2217 81.7406C52.5191 81.6384 51.818 81.5299 51.1191 81.4086L45.7363 55.9555Z" stroke="#624B61"/>
<path d="M58.1998 82.3236C57.6426 82.2733 57.086 82.2183 56.5299 82.1585L52.526 56.0824C53.8309 56.022 55.2596 55.8589 56.5338 55.513L58.1998 82.3236Z" stroke="#624B61"/>
<path d="M59.7222 55.0097C61.1284 55.629 62.5587 56.1552 64.0083 56.5829L63.6509 82.6796C62.9115 82.6477 62.1725 82.6099 61.4341 82.5653L59.7222 55.0097Z" stroke="#624B61"/>
<path d="M67.2139 57.3582C68.3355 57.5687 69.4668 57.7178 70.6055 57.8026L69.2793 82.8231C68.4747 82.8152 67.6696 82.8019 66.8643 82.784L67.2139 57.3582Z" stroke="#624B61"/>
<path d="M74.8656 82.8387C74.0759 82.8443 73.287 82.8447 72.4994 82.8426L73.8207 57.865C75.221 57.8162 76.6289 57.6669 78.0414 57.41L74.8656 82.8387Z" stroke="#624B61"/>
<path d="M42.3885 30.279C41.9246 32.2667 41.9566 34.4368 42.327 36.0768V36.0778C43.569 42.291 46.6005 46.3792 51.3593 50.0798L51.3671 50.0856C53.2616 51.4987 55.2264 52.7468 57.2469 53.8102C56.6914 54.0978 56.0388 54.3342 55.3368 54.5153C54.3093 54.7804 53.2104 54.9237 52.2294 54.9655C44.9162 55.2759 38.1696 54.1532 34.0262 47.8425V47.8415C31.8355 44.5054 31.9772 40.178 33.7577 36.6208C35.4389 33.262 38.5409 30.6709 42.3885 30.279Z" stroke="#624B61"/>
<path d="M86.262 82.1205C85.7753 82.1905 85.2873 82.2544 84.7981 82.312L89.1545 51.6909C90.3747 51.6513 91.5743 51.5497 92.7395 51.3764L86.262 82.1205Z" stroke="#624B61"/>
<path d="M100.567 48.92L100.345 49.8878C99.065 54.8458 97.7845 59.8036 96.5043 64.7618C95.1345 70.0692 93.7631 75.3756 92.393 80.6837C92.0236 80.9369 91.504 81.1316 90.9008 81.2862C90.4861 81.3925 90.0605 81.4729 89.6508 81.546L96.1684 50.6163C97.7837 50.127 99.2919 49.4558 100.645 48.5734C100.618 48.6945 100.591 48.8104 100.567 48.92Z" stroke="#624B61"/>
<path d="M48.5256 26.0703C48.5742 27.6034 48.7212 28.9825 48.8234 29.8486V29.8505C49.2755 33.5641 51.2688 36.4422 53.8371 38.8115C56.3966 41.1727 59.567 43.0632 62.4182 44.791C67.5079 47.9826 77.5572 51.4255 86.8254 51.6914C86.6426 52.0418 86.3503 52.3981 85.9484 52.7529C85.3327 53.2965 84.5126 53.7988 83.6105 54.2441C81.807 55.1344 79.7559 55.7585 78.5773 56.0341C68.1562 58.4738 56.6205 53.7198 49.1603 46.3486C46.4317 43.6533 44.7723 40.2348 43.843 36.5214L43.6672 35.7744L43.5949 35.4228C43.26 33.6327 43.3047 31.4036 43.9533 29.5791C44.6378 27.6538 45.9571 26.2489 48.1828 26.1543L48.1818 26.1533C48.3022 26.1483 48.4185 26.118 48.5256 26.0703Z" stroke="#624B61"/>
<path d="M52.402 18.2731C52.6509 18.4905 52.9019 18.7023 53.154 18.9098C53.1795 20.9311 53.7167 23.0658 54.2595 24.3844L54.2643 24.3971C55.3801 26.9073 57.4253 28.2333 59.6696 29.1667C60.788 29.6317 61.9757 30.0075 63.1325 30.3795C64.2966 30.754 65.4325 31.125 66.489 31.5895V31.5905C70.583 33.4199 75.5666 35.3008 80.6501 36.2868C85.7285 37.2717 90.9548 37.3734 95.5026 35.5905L95.5095 35.5876L95.5173 35.5836C96.6145 35.1125 97.9418 34.8582 98.5593 33.2282L98.9069 32.36L98.9557 32.2399L98.9391 32.112C98.937 32.095 98.9335 32.0781 98.9313 32.0612C101.594 32.6152 103.79 33.6844 104.908 35.9157L105.021 36.154C105.605 37.4494 105.427 39.2104 104.816 40.9899C104.211 42.752 103.219 44.4231 102.332 45.4723V45.4733C100.488 47.6538 97.7166 48.8852 94.9265 49.654C85.3806 52.2863 73.4222 49.1449 64.7663 44.6208H64.7673C59.8586 42.0541 54.6789 38.7685 51.7175 34.1491H51.7165C51.2534 33.426 50.7598 32.1252 50.3679 30.5251C49.9787 28.936 49.7005 27.0962 49.6481 25.3219C49.5955 23.5407 49.7717 21.863 50.2604 20.5758C50.7134 19.3829 51.4093 18.5797 52.402 18.2731Z" stroke="#624B61"/>
<mask id="path-24-inside-2_242_759" fill="white">
<path d="M56.8039 13.9581C56.8155 13.9664 56.8273 13.9743 56.8386 13.9828C56.9938 13.9671 57.155 13.9581 57.3242 13.9581H56.8039Z"/>
</mask>
<path d="M56.8039 13.9581V12.9581H53.7036L56.2196 14.7696L56.8039 13.9581ZM56.8386 13.9828L56.236 14.7809L56.5492 15.0173L56.9396 14.9777L56.8386 13.9828ZM56.8039 13.9581L56.2196 14.7696C56.2271 14.775 56.2337 14.7797 56.2381 14.7828C56.2403 14.7843 56.2424 14.7858 56.2438 14.7867C56.2454 14.7879 56.2463 14.7885 56.2471 14.789C56.2486 14.7901 56.248 14.7897 56.2463 14.7885C56.2445 14.7872 56.2409 14.7845 56.236 14.7809L56.8386 13.9828L57.4412 13.1848C57.421 13.1695 57.4035 13.1572 57.3956 13.1517C57.3935 13.1502 57.3915 13.1488 57.3901 13.1479C57.3886 13.1468 57.3878 13.1462 57.3871 13.1457C57.3857 13.1447 57.3864 13.1453 57.3882 13.1465L56.8039 13.9581ZM56.8386 13.9828L56.9396 14.9777C57.0634 14.9652 57.1908 14.9581 57.3242 14.9581V13.9581V12.9581C57.1191 12.9581 56.9241 12.969 56.7377 12.9879L56.8386 13.9828ZM57.3242 13.9581V12.9581H56.8039V13.9581V14.9581H57.3242V13.9581Z" fill="#624B61" mask="url(#path-24-inside-2_242_759)"/>
<path d="M57.0079 15.0925C57.9231 18.4516 59.6925 20.4415 62.0714 21.6345C64.4539 22.8293 67.4119 23.2062 70.6007 23.4578L70.6105 23.4588C75.5197 23.7479 80.7083 24.1575 85.7296 24.1843C87.2977 24.4208 88.8749 24.5867 90.4181 24.5867C91.2237 24.5868 92.2923 25.0155 93.3927 25.7752C94.4793 26.5253 95.5326 27.5539 96.3029 28.6541C97.0801 29.7642 97.53 30.8905 97.506 31.8435C97.4942 32.3106 97.3692 32.7356 97.1124 33.1111C96.8544 33.4883 96.4455 33.842 95.8263 34.1345C91.3245 36.2607 86.3454 36.2525 81.3702 35.2459C76.3918 34.2385 71.4696 32.2426 67.0968 30.4461C66.1467 30.0557 65.1641 29.7284 64.1945 29.4109C63.2195 29.0916 62.2599 28.7827 61.3282 28.4265C59.4678 27.7152 57.7708 26.8302 56.4298 25.3611C55.9518 24.8373 55.4764 23.9603 55.1066 22.8914C54.7396 21.8307 54.4901 20.6206 54.4366 19.4578C54.383 18.289 54.5291 17.2051 54.9181 16.3728C55.2697 15.6206 55.8159 15.0751 56.6222 14.8289C56.7506 14.9178 56.879 15.0058 57.0079 15.0925Z" stroke="#624B61"/>
<path d="M62.7882 8.42929C62.5864 9.45429 62.6053 10.353 62.8322 11.1334C63.0736 11.9636 63.5418 12.6272 64.1661 13.148C65.1265 14.643 66.8326 15.6132 69.3273 16.3258L69.338 16.3287L69.3478 16.3307C71.3077 16.801 74.0109 17.2485 76.4015 16.982C78.6393 16.7325 80.742 15.8309 81.5704 13.5982C81.6653 13.6408 81.7789 13.6969 81.9093 13.775C82.2342 13.9697 82.5976 14.2412 82.9552 14.5348C83.6692 15.121 84.3145 15.7574 84.5177 15.9547V15.9557C86.0982 17.4896 87.0375 19.6596 87.8058 21.8023C87.9127 22.2107 88.0436 22.6109 88.1964 23.0035C87.6433 23.0891 86.9404 23.0989 86.1759 23.0699C85.6683 23.0506 85.1538 23.0165 84.6622 22.984C84.175 22.9518 83.7056 22.9209 83.3038 22.9117C80.5173 22.8488 77.7321 22.662 74.9347 22.4869C70.6714 22.2207 66.3326 22.2534 62.5743 20.4332C60.1215 19.245 58.3595 16.0884 58.2921 13.2691C58.2589 11.8761 58.642 10.6287 59.4933 9.75644C60.1903 9.04241 61.2506 8.53052 62.7882 8.42929Z" stroke="#624B61"/>
<mask id="path-28-inside-3_242_759" fill="white">
<path d="M63.3367 8.25045C62.8321 10.4226 63.3743 11.8736 64.5435 12.8138C63.7899 11.596 63.601 10.0368 63.8506 7.98878C63.6487 7.98113 63.3754 8.08465 63.3367 8.25045Z"/>
</mask>
<path d="M63.3367 8.25045L62.3629 8.02331L62.3627 8.02418L63.3367 8.25045ZM64.5435 12.8138L63.9168 13.5931L65.3938 12.2877L64.5435 12.8138ZM63.8506 7.98878L64.8433 8.10977L64.9748 7.0306L63.8884 6.98949L63.8506 7.98878ZM63.3367 8.25045L62.3627 8.02418C62.082 9.2324 62.0744 10.3179 62.3522 11.2733C62.6331 12.2394 63.187 13.0062 63.9168 13.5931L64.5435 12.8138L65.1701 12.0345C64.7308 11.6812 64.429 11.2525 64.2727 10.7149C64.1133 10.1668 64.0869 9.44066 64.3108 8.47673L63.3367 8.25045ZM64.5435 12.8138L65.3938 12.2877C64.8121 11.3474 64.6061 10.0556 64.8433 8.10977L63.8506 7.98878L62.8579 7.86778C62.5959 10.018 62.7678 11.8446 63.6931 13.34L64.5435 12.8138ZM63.8506 7.98878L63.8884 6.98949C63.6235 6.97947 63.348 7.03776 63.1116 7.14745C62.9186 7.237 62.488 7.48681 62.3629 8.02331L63.3367 8.25045L64.3106 8.4776C64.2653 8.67171 64.1634 8.79649 64.0981 8.85931C64.0333 8.92161 63.9772 8.9506 63.9533 8.96169C63.9137 8.98008 63.8757 8.99044 63.8128 8.98806L63.8506 7.98878Z" fill="#624B61" mask="url(#path-28-inside-3_242_759)"/>
<mask id="path-30-inside-4_242_759" fill="white">
<path d="M102.082 32.1022C101.038 31.6217 99.9529 31.2873 98.8471 31.0497C98.575 27.8327 94.0739 24.763 91.7832 23.6517C91.3027 23.4187 90.4257 23.3624 89.5508 23.3402C88.5509 19.6452 87.0075 16.3699 83.9762 13.9249C83.0207 13.1536 82.4003 12.7995 81.7617 12.689C82.8815 8.42668 77.7399 2.70915 74.5597 1.08906C70.105 -1.1829 66.083 0.185002 63.5806 4.3987C63.4778 4.57215 63.7413 4.593 63.9697 4.53719C63.8951 4.60527 63.8222 4.67428 63.7527 4.74537C63.5582 4.94661 64.2742 4.88755 64.4187 4.73726C68.4972 0.521703 70.6475 8.67262 64.139 7.3383C64.0352 7.31676 63.7684 7.35219 63.6341 7.45107C59.5677 7.49206 57.2587 10.4652 57.1202 13.7452C57.101 13.7475 57.0813 13.7489 57.0623 13.751C56.9285 13.6785 56.6923 13.7364 56.5515 13.8406C54.5252 14.2834 53.544 15.6872 53.2701 17.4594C53.2601 17.4509 53.2502 17.4425 53.2402 17.4337C53.1251 17.333 52.932 17.3564 52.7868 17.4374C52.7752 17.292 52.6217 17.1612 52.3737 17.2177C49.049 17.9707 48.5453 21.8813 48.6062 25.1236C48.5594 25.165 48.5261 25.2118 48.5182 25.26C48.483 25.1859 48.3925 25.1328 48.229 25.1395C44.9969 25.2766 43.3511 27.0757 42.6828 29.5167C36.6943 30.1232 31.9408 35.222 31.1583 41.2058C30.5727 45.678 33.3391 49.6587 36.5281 52.4355C37.0201 52.8637 37.5463 53.2342 38.0986 53.5577C38.989 56.9257 39.8789 60.2935 40.7691 63.6612C41.9066 67.9662 43.0438 72.2704 44.182 76.5751C44.3717 77.2942 44.7771 80.853 45.5631 81.1364C48.269 82.1127 51.242 82.4689 54.0767 82.8241C62.0066 83.8192 70.0992 83.885 78.0746 83.5811C82.2709 83.4211 86.5469 83.1152 90.6337 82.0903C91.5759 81.8543 92.7889 81.5778 93.6034 80.9669C93.6897 80.9269 93.753 80.8789 93.7669 80.8252C96.6817 69.5374 99.5956 58.2496 102.51 46.9618C103.213 46.3092 103.827 45.5763 104.315 44.7565C107.165 39.9581 107.586 34.6329 102.082 32.1022ZM65.1109 7.90009C65.6467 7.94594 66.3623 7.87114 66.881 7.73243C67.7439 7.50109 69.1027 6.87676 69.1194 5.77795C69.169 2.5702 66.2389 2.81012 64.3525 4.22109C69.7199 -4.42422 82.1739 4.74398 80.9349 12.83C80.255 17.2674 74.073 16.5081 70.9507 15.9401C67.8316 15.3718 64.864 14.0215 64.1897 10.6792C63.9477 9.48405 63.6378 7.77411 65.1109 7.90009ZM63.52 7.91237C63.001 13.2636 66.0568 15.4897 71.179 16.4227C74.5134 17.0296 79.0087 17.1994 81.1406 14.0567C81.3522 13.7445 81.5157 13.4194 81.6382 13.0834C82.7329 13.4909 84.5123 15.253 84.8659 15.596C86.5406 17.2216 87.5118 19.4982 88.2832 21.6521C88.4349 22.2375 88.6354 22.806 88.886 23.356C87.5114 23.8154 84.8485 23.447 83.2926 23.4111C80.4938 23.3479 77.6976 23.1605 74.9039 22.9857C70.6994 22.7231 66.2273 22.7578 62.3563 20.883C57.1246 18.3491 55.0414 7.77898 63.52 7.91237ZM56.715 14.2871C56.8527 14.3841 56.9924 14.477 57.1316 14.5715C57.2788 16.7228 58.3552 18.9102 60.4762 20.4143C63.7853 22.7608 67.9453 23.0359 71.8742 23.2742C75.5905 23.4991 79.3042 23.7492 83.0263 23.874C84.5239 23.9242 86.3716 24.163 87.9926 23.9641C88.8089 24.0412 89.6189 24.087 90.4176 24.087C94.2376 24.087 101.509 32.0031 96.0393 34.587C86.7673 38.9661 75.6412 34.4981 66.9063 30.9094C63.1809 29.3789 58.8945 28.8039 56.0601 25.6986C53.8937 23.3242 52.3468 15.2951 56.715 14.2871ZM48.1614 25.6546C48.3816 25.6455 48.5265 25.4878 48.5351 25.3496C48.5502 25.3767 48.5742 25.4033 48.6115 25.4285L48.6127 25.4295C48.6352 26.189 48.6856 26.9041 48.7333 27.5231C49.2782 34.5687 53.1705 38.6511 58.8959 42.4112C67.2061 47.8684 77.3625 51.5176 87.4472 51.4979C86.6302 54.1163 81.0165 55.9779 78.6912 56.5214C68.0576 59.0108 56.3542 54.1598 48.8086 46.7039C45.812 43.7437 44.0829 39.9498 43.1788 35.8831C42.3264 32.0525 43.1798 25.8667 48.1614 25.6546ZM33.6084 48.1164C29.0661 41.2001 34.1144 30.3886 42.62 29.7564C41.65 33.73 43.1362 39.2655 44.5847 42.1826C47.1047 47.2554 52.0928 51.3944 57.7434 54.1091C56.2428 54.9784 54.0521 55.3885 52.2505 55.4654C44.8957 55.7776 37.9041 54.6595 33.6084 48.1164ZM46.256 80.5603C43.9305 71.7603 41.6044 62.9598 39.2789 54.1596C40.3993 54.6556 41.5983 54.9928 42.825 55.2239L48.3765 81.4773C47.3555 81.2768 46.3685 80.985 46.256 80.5603ZM50.7001 81.8439L45.1391 55.5467C46.3312 55.6616 47.5187 55.7099 48.6562 55.7375C48.9684 55.7451 49.3352 55.7565 49.7395 55.766L53.8191 82.3339C52.7761 82.1905 51.7364 82.0287 50.7001 81.8439ZM56.0953 82.6169L51.9728 55.7725C53.6309 55.7326 55.4781 55.5682 57.0077 55.0687L58.735 82.8751C57.8538 82.8005 56.9739 82.7148 56.0953 82.6169ZM60.9629 83.0393L59.2074 54.7737C60.9449 55.5191 62.7284 56.13 64.5095 56.5941L64.1438 83.2025C63.083 83.1611 62.0224 83.1071 60.9629 83.0393ZM69.7546 83.3287C68.6236 83.3202 67.4914 83.3028 66.3584 83.2745L66.718 57.0936C68.2112 57.3801 69.6865 57.5572 71.116 57.6179L69.7546 83.3287ZM71.9731 83.3426L73.3333 57.6253C74.9279 57.5801 76.7481 57.4523 78.5764 57.1652L75.3086 83.3364C74.1939 83.347 73.0816 83.3473 71.9731 83.3426ZM77.5394 83.297L80.8581 56.7145C82.7551 56.2546 84.5563 55.5775 86.0052 54.5919L81.952 83.0858C80.4843 83.1935 79.0122 83.2588 77.5394 83.297ZM84.2122 82.8841L88.6804 51.4752C90.0198 51.4321 91.3569 51.3272 92.6863 51.1477C92.8952 51.1195 93.1069 51.0871 93.3195 51.0521L86.6786 82.5685C85.8603 82.6912 85.0375 82.7963 84.2122 82.8841ZM100.829 50.0126C99.5488 54.9705 98.2689 59.9281 96.9887 64.8863C95.6042 70.2506 94.2184 75.6157 92.8336 80.9808C91.9175 81.7193 90.202 81.9523 89.0092 82.1681L95.6757 50.5336C97.6524 49.9857 99.6349 49.1388 101.3 47.9451C101.079 48.9112 100.9 49.7393 100.829 50.0126ZM102.714 45.7958C100.774 48.0907 97.8858 49.3577 95.059 50.1365C85.3383 52.8169 73.243 49.6159 64.5352 45.0645C59.6175 42.4932 54.3335 39.1573 51.2962 34.4196C49.266 31.2505 47.1945 18.932 52.5108 17.7276C52.5434 17.7199 52.5717 17.7104 52.5981 17.6991C52.6011 17.7526 52.6275 17.8068 52.6861 17.8587C52.8544 18.0062 53.0237 18.1511 53.1934 18.2935C53.0705 21.7912 55.2396 26.2629 57.5056 27.8469C59.3248 29.1182 61.6926 29.6828 63.7691 30.3539C66.4839 31.2318 69.068 32.5005 71.7394 33.5058C77.1089 35.5272 82.7627 36.8134 88.5173 36.7057C91.6943 36.6457 97.2435 36.0476 98.6107 32.6374C98.7575 32.2708 98.8353 31.9024 98.8545 31.5347C101.748 32.1092 104.278 33.2833 105.478 35.9489C106.802 38.8901 104.571 43.6001 102.714 45.7958Z"/>
</mask>
<path d="M102.082 32.1022C101.038 31.6217 99.9529 31.2873 98.8471 31.0497C98.575 27.8327 94.0739 24.763 91.7832 23.6517C91.3027 23.4187 90.4257 23.3624 89.5508 23.3402C88.5509 19.6452 87.0075 16.3699 83.9762 13.9249C83.0207 13.1536 82.4003 12.7995 81.7617 12.689C82.8815 8.42668 77.7399 2.70915 74.5597 1.08906C70.105 -1.1829 66.083 0.185002 63.5806 4.3987C63.4778 4.57215 63.7413 4.593 63.9697 4.53719C63.8951 4.60527 63.8222 4.67428 63.7527 4.74537C63.5582 4.94661 64.2742 4.88755 64.4187 4.73726C68.4972 0.521703 70.6475 8.67262 64.139 7.3383C64.0352 7.31676 63.7684 7.35219 63.6341 7.45107C59.5677 7.49206 57.2587 10.4652 57.1202 13.7452C57.101 13.7475 57.0813 13.7489 57.0623 13.751C56.9285 13.6785 56.6923 13.7364 56.5515 13.8406C54.5252 14.2834 53.544 15.6872 53.2701 17.4594C53.2601 17.4509 53.2502 17.4425 53.2402 17.4337C53.1251 17.333 52.932 17.3564 52.7868 17.4374C52.7752 17.292 52.6217 17.1612 52.3737 17.2177C49.049 17.9707 48.5453 21.8813 48.6062 25.1236C48.5594 25.165 48.5261 25.2118 48.5182 25.26C48.483 25.1859 48.3925 25.1328 48.229 25.1395C44.9969 25.2766 43.3511 27.0757 42.6828 29.5167C36.6943 30.1232 31.9408 35.222 31.1583 41.2058C30.5727 45.678 33.3391 49.6587 36.5281 52.4355C37.0201 52.8637 37.5463 53.2342 38.0986 53.5577C38.989 56.9257 39.8789 60.2935 40.7691 63.6612C41.9066 67.9662 43.0438 72.2704 44.182 76.5751C44.3717 77.2942 44.7771 80.853 45.5631 81.1364C48.269 82.1127 51.242 82.4689 54.0767 82.8241C62.0066 83.8192 70.0992 83.885 78.0746 83.5811C82.2709 83.4211 86.5469 83.1152 90.6337 82.0903C91.5759 81.8543 92.7889 81.5778 93.6034 80.9669C93.6897 80.9269 93.753 80.8789 93.7669 80.8252C96.6817 69.5374 99.5956 58.2496 102.51 46.9618C103.213 46.3092 103.827 45.5763 104.315 44.7565C107.165 39.9581 107.586 34.6329 102.082 32.1022ZM65.1109 7.90009C65.6467 7.94594 66.3623 7.87114 66.881 7.73243C67.7439 7.50109 69.1027 6.87676 69.1194 5.77795C69.169 2.5702 66.2389 2.81012 64.3525 4.22109C69.7199 -4.42422 82.1739 4.74398 80.9349 12.83C80.255 17.2674 74.073 16.5081 70.9507 15.9401C67.8316 15.3718 64.864 14.0215 64.1897 10.6792C63.9477 9.48405 63.6378 7.77411 65.1109 7.90009ZM63.52 7.91237C63.001 13.2636 66.0568 15.4897 71.179 16.4227C74.5134 17.0296 79.0087 17.1994 81.1406 14.0567C81.3522 13.7445 81.5157 13.4194 81.6382 13.0834C82.7329 13.4909 84.5123 15.253 84.8659 15.596C86.5406 17.2216 87.5118 19.4982 88.2832 21.6521C88.4349 22.2375 88.6354 22.806 88.886 23.356C87.5114 23.8154 84.8485 23.447 83.2926 23.4111C80.4938 23.3479 77.6976 23.1605 74.9039 22.9857C70.6994 22.7231 66.2273 22.7578 62.3563 20.883C57.1246 18.3491 55.0414 7.77898 63.52 7.91237ZM56.715 14.2871C56.8527 14.3841 56.9924 14.477 57.1316 14.5715C57.2788 16.7228 58.3552 18.9102 60.4762 20.4143C63.7853 22.7608 67.9453 23.0359 71.8742 23.2742C75.5905 23.4991 79.3042 23.7492 83.0263 23.874C84.5239 23.9242 86.3716 24.163 87.9926 23.9641C88.8089 24.0412 89.6189 24.087 90.4176 24.087C94.2376 24.087 101.509 32.0031 96.0393 34.587C86.7673 38.9661 75.6412 34.4981 66.9063 30.9094C63.1809 29.3789 58.8945 28.8039 56.0601 25.6986C53.8937 23.3242 52.3468 15.2951 56.715 14.2871ZM48.1614 25.6546C48.3816 25.6455 48.5265 25.4878 48.5351 25.3496C48.5502 25.3767 48.5742 25.4033 48.6115 25.4285L48.6127 25.4295C48.6352 26.189 48.6856 26.9041 48.7333 27.5231C49.2782 34.5687 53.1705 38.6511 58.8959 42.4112C67.2061 47.8684 77.3625 51.5176 87.4472 51.4979C86.6302 54.1163 81.0165 55.9779 78.6912 56.5214C68.0576 59.0108 56.3542 54.1598 48.8086 46.7039C45.812 43.7437 44.0829 39.9498 43.1788 35.8831C42.3264 32.0525 43.1798 25.8667 48.1614 25.6546ZM33.6084 48.1164C29.0661 41.2001 34.1144 30.3886 42.62 29.7564C41.65 33.73 43.1362 39.2655 44.5847 42.1826C47.1047 47.2554 52.0928 51.3944 57.7434 54.1091C56.2428 54.9784 54.0521 55.3885 52.2505 55.4654C44.8957 55.7776 37.9041 54.6595 33.6084 48.1164ZM46.256 80.5603C43.9305 71.7603 41.6044 62.9598 39.2789 54.1596C40.3993 54.6556 41.5983 54.9928 42.825 55.2239L48.3765 81.4773C47.3555 81.2768 46.3685 80.985 46.256 80.5603ZM50.7001 81.8439L45.1391 55.5467C46.3312 55.6616 47.5187 55.7099 48.6562 55.7375C48.9684 55.7451 49.3352 55.7565 49.7395 55.766L53.8191 82.3339C52.7761 82.1905 51.7364 82.0287 50.7001 81.8439ZM56.0953 82.6169L51.9728 55.7725C53.6309 55.7326 55.4781 55.5682 57.0077 55.0687L58.735 82.8751C57.8538 82.8005 56.9739 82.7148 56.0953 82.6169ZM60.9629 83.0393L59.2074 54.7737C60.9449 55.5191 62.7284 56.13 64.5095 56.5941L64.1438 83.2025C63.083 83.1611 62.0224 83.1071 60.9629 83.0393ZM69.7546 83.3287C68.6236 83.3202 67.4914 83.3028 66.3584 83.2745L66.718 57.0936C68.2112 57.3801 69.6865 57.5572 71.116 57.6179L69.7546 83.3287ZM71.9731 83.3426L73.3333 57.6253C74.9279 57.5801 76.7481 57.4523 78.5764 57.1652L75.3086 83.3364C74.1939 83.347 73.0816 83.3473 71.9731 83.3426ZM77.5394 83.297L80.8581 56.7145C82.7551 56.2546 84.5563 55.5775 86.0052 54.5919L81.952 83.0858C80.4843 83.1935 79.0122 83.2588 77.5394 83.297ZM84.2122 82.8841L88.6804 51.4752C90.0198 51.4321 91.3569 51.3272 92.6863 51.1477C92.8952 51.1195 93.1069 51.0871 93.3195 51.0521L86.6786 82.5685C85.8603 82.6912 85.0375 82.7963 84.2122 82.8841ZM100.829 50.0126C99.5488 54.9705 98.2689 59.9281 96.9887 64.8863C95.6042 70.2506 94.2184 75.6157 92.8336 80.9808C91.9175 81.7193 90.202 81.9523 89.0092 82.1681L95.6757 50.5336C97.6524 49.9857 99.6349 49.1388 101.3 47.9451C101.079 48.9112 100.9 49.7393 100.829 50.0126ZM102.714 45.7958C100.774 48.0907 97.8858 49.3577 95.059 50.1365C85.3383 52.8169 73.243 49.6159 64.5352 45.0645C59.6175 42.4932 54.3335 39.1573 51.2962 34.4196C49.266 31.2505 47.1945 18.932 52.5108 17.7276C52.5434 17.7199 52.5717 17.7104 52.5981 17.6991C52.6011 17.7526 52.6275 17.8068 52.6861 17.8587C52.8544 18.0062 53.0237 18.1511 53.1934 18.2935C53.0705 21.7912 55.2396 26.2629 57.5056 27.8469C59.3248 29.1182 61.6926 29.6828 63.7691 30.3539C66.4839 31.2318 69.068 32.5005 71.7394 33.5058C77.1089 35.5272 82.7627 36.8134 88.5173 36.7057C91.6943 36.6457 97.2435 36.0476 98.6107 32.6374C98.7575 32.2708 98.8353 31.9024 98.8545 31.5347C101.748 32.1092 104.278 33.2833 105.478 35.9489C106.802 38.8901 104.571 43.6001 102.714 45.7958Z" fill="#624B61" stroke="#624B61" stroke-width="2" mask="url(#path-30-inside-4_242_759)"/>
<path d="M76.2498 7.16217C76.4115 7.39174 76.556 7.63484 76.6805 7.88873L76.6863 7.89947C76.965 8.435 77.1381 9.03113 77.244 9.67682V9.67779C77.2879 9.98554 77.2979 10.3061 77.2723 10.6417V10.6436C77.2508 10.94 77.149 11.3385 77.0154 11.587L77.0106 11.5958L77.0067 11.6046C76.7182 12.1954 76.1566 12.6804 75.5633 12.8975C74.9303 13.1281 74.2902 13.1838 73.6902 13.1036H73.6854C73.4026 13.0685 73.1251 13.0121 72.8563 12.9376C73.1366 12.9504 73.4137 12.9508 73.6863 12.9376H73.6893C74.8875 12.872 76.0888 12.4102 76.576 11.3614L76.574 11.3604C76.7166 11.0767 76.7608 10.8792 76.7996 10.5889L76.7986 10.5879C76.8194 10.4454 76.8309 10.3007 76.8348 10.1573L76.8309 9.72662C76.8152 9.12247 76.6743 8.5232 76.5311 7.97369L76.5281 7.9649L76.5252 7.95514C76.4462 7.6935 76.3556 7.42725 76.2498 7.16217Z" stroke="#624B61"/>
<path d="M62.8625 17.6281C63.0874 17.849 63.327 18.049 63.5872 18.216L63.5891 18.217C64.2063 18.6094 64.9299 18.8624 65.6487 19.05L65.6536 19.051C66.3571 19.2276 67.1068 19.3867 67.8518 19.4406V19.4416H67.8567L67.8801 19.4465V19.4455C68.6014 19.5958 69.4039 19.5832 70.1907 19.4983C70.5841 19.4725 70.9797 19.426 71.3665 19.3791C71.7644 19.3309 72.154 19.2835 72.5491 19.2541L72.5588 19.2531C72.95 19.2167 73.3421 19.1908 73.7336 19.1867C73.345 19.2628 72.9617 19.352 72.5872 19.4358L72.5774 19.4377C71.8232 19.6225 71.0508 19.7859 70.2424 19.925C69.4392 20.0252 68.6478 20.0936 67.8284 19.9309L67.8293 19.9279L67.7385 19.9143L67.7375 19.9152C66.9679 19.8217 66.2375 19.6736 65.5315 19.4279C64.7824 19.1546 64.0738 18.8542 63.4954 18.3313L63.4836 18.3215C63.2433 18.1172 63.0399 17.8816 62.8625 17.6281Z" fill="#624B61" stroke="#624B61"/>
<path d="M74.9795 29.8632C75.5794 30.0027 76.172 30.1781 76.749 30.3944V30.3935C78.0718 30.9159 79.3283 31.4479 80.6855 31.8212V31.8222C82.0146 32.2126 83.3755 32.5132 84.7588 32.6728H84.7617C86.1054 32.8218 87.5533 33.0393 88.9082 33.1034V33.1044C90.2392 33.1819 91.7773 33.1432 92.9111 32.5019L92.9102 32.5009C93.4889 32.1814 93.8748 31.613 94.0352 30.9716C93.9572 31.5902 93.5745 32.2548 93.0381 32.6181L93.0322 32.622L93.0264 32.6269C92.4261 33.0596 91.7337 33.2644 91.0293 33.3778H91.0273C90.3174 33.4943 89.6111 33.5247 88.9004 33.5185C87.4587 33.4905 86.1392 33.2964 84.6963 33.162H84.6973C83.2885 32.9705 81.8997 32.6578 80.5625 32.2138H80.5635C79.2347 31.7676 77.9079 31.1714 76.7119 30.5556L76.7012 30.5497L76.6904 30.5448C76.1329 30.2898 75.562 30.0631 74.9795 29.8632Z" fill="#624B61" stroke="#624B61"/>
<path d="M99.8748 40.1351C99.8867 40.8491 99.8082 41.5691 99.658 42.2992C99.4252 43.1571 99.0246 43.9419 98.4461 44.6195L98.1854 44.9047C97.4697 45.6402 96.5611 46.1715 95.6277 46.5385H95.6268C94.6846 46.9112 93.7193 47.1412 92.7576 47.3031L92.7557 47.3041C92.271 47.3874 91.7936 47.4559 91.3221 47.5062L90.6024 47.5834L89.8494 47.6371C87.895 47.7426 85.9019 47.5274 84.0096 47.0873H84.0106C82.1067 46.639 80.3032 46.006 78.5359 45.3451H78.5369C76.8347 44.6859 75.0048 44.1507 73.2313 43.558V43.557H73.2283C71.437 42.9696 69.6407 42.3062 67.9178 41.475C67.2785 41.1533 66.6521 40.8078 66.0516 40.432C68.5187 41.2652 71.0463 41.7484 73.576 42.2582C75.4264 42.6406 77.2745 43.0221 79.119 43.6146L79.1238 43.6156C80.6882 44.1005 82.2451 44.605 83.7938 44.9935L84.4578 45.1527C86.2304 45.5711 88.0058 45.7983 89.8123 45.8021H89.8162L90.4598 45.7982H90.4793L91.1717 45.767H91.1766C91.6295 45.7429 92.0906 45.7201 92.5438 45.682H92.5457C93.4452 45.6025 94.3403 45.4849 95.1854 45.2621C96.0396 45.0393 96.8372 44.6983 97.532 44.1957C98.2492 43.6955 98.8205 42.9549 99.1981 42.1859L99.2029 42.1762C99.5013 41.532 99.7207 40.8386 99.8748 40.1351Z" fill="#624B61" stroke="#624B61"/>
<path d="M55.2212 48.05C55.5276 48.2665 55.8392 48.4746 56.1567 48.672L56.1597 48.674C57.5737 49.5364 59.0738 50.2478 60.6333 50.8185C62.1816 51.4112 63.7835 51.8603 65.3931 52.2609L65.396 52.2619C65.768 52.352 66.1415 52.4367 66.5161 52.5197C66.1336 52.4993 65.7508 52.4693 65.3687 52.4279H65.3657C63.9061 52.2766 62.4602 51.9566 61.0542 51.4875L60.4546 51.2765C58.8743 50.6683 57.3593 49.875 56.062 48.8039L56.0591 48.8009C55.7678 48.564 55.4875 48.3132 55.2212 48.05Z" fill="#624B61" stroke="#624B61"/>
<path d="M38.1436 36.5583C37.6482 38.099 37.4977 39.5821 37.6387 41.0075L37.6827 41.3844C37.8141 42.3765 38.0701 43.334 38.4249 44.2526V44.2516C38.7313 45.0534 39.1224 45.8489 39.585 46.5514L39.7872 46.8464C40.8918 48.4795 42.2883 49.8266 44.0518 50.8971V50.8981C45.4023 51.7339 46.9428 52.3707 48.5919 52.9743C46.8799 53.3024 45.0646 53.2263 43.293 52.6891L43.2911 52.6882L42.8633 52.5505C40.7376 51.8067 38.7827 50.2873 37.5196 48.3717L37.5157 48.3659L37.2559 47.9665C36.6745 47.0274 36.2627 46.0385 36.0001 44.9938C35.7 43.798 35.594 42.5483 35.7471 41.3327C35.9045 40.1157 36.3036 38.9395 36.9444 37.9577L36.9434 37.9567C37.2893 37.4289 37.695 36.9579 38.1436 36.5583Z" fill="#624B61" stroke="#624B61"/>
</svg>
