<svg width="534" height="414" viewBox="0 0 534 414" fill="none" xmlns="http://www.w3.org/2000/svg">
<path d="M447.392 47.9236C473.046 73.1107 492.998 104.091 505.123 138.741" stroke="#624B61" stroke-width="3" stroke-miterlimit="10"/>
<path d="M501.11 305.997C485.789 343.814 460.985 376.779 429.652 401.939" stroke="#624B61" stroke-width="3" stroke-miterlimit="10"/>
<path d="M518.367 230.538C525.816 230.538 531.855 224.5 531.855 217.051C531.855 209.602 525.816 203.563 518.367 203.563C510.918 203.563 504.88 209.602 504.88 217.051C504.88 224.5 510.918 230.538 518.367 230.538Z" stroke="#624B61" stroke-width="3" stroke-miterlimit="10"/>
<path d="M523.204 170.07C523.204 175.15 519.089 179.265 514.01 179.265C508.93 179.265 504.816 175.15 504.816 170.07C504.816 164.991 508.93 160.876 514.01 160.876C519.089 160.876 523.204 164.995 523.204 170.07Z" stroke="#624B61" stroke-width="3" stroke-miterlimit="10"/>
<path d="M523.204 265.796C523.204 270.876 519.089 274.991 514.01 274.991C508.93 274.991 504.816 270.876 504.816 265.796C504.816 260.717 508.93 256.602 514.01 256.602C519.089 256.602 523.204 260.717 523.204 265.796Z" stroke="#624B61" stroke-width="3" stroke-miterlimit="10"/>
<path d="M85.9628 47.9236C60.3088 73.1107 40.3566 104.091 28.2319 138.741" stroke="#624B61" stroke-width="3" stroke-miterlimit="10"/>
<path d="M32.2446 305.997C47.5657 343.814 72.3693 376.779 103.702 401.939" stroke="#624B61" stroke-width="3" stroke-miterlimit="10"/>
<path d="M1.5 217.051C1.5 224.499 7.53959 230.538 14.9875 230.538C22.4354 230.538 28.475 224.499 28.475 217.051C28.475 209.603 22.4354 203.563 14.9875 203.563C7.53959 203.563 1.5 209.603 1.5 217.051Z" stroke="#624B61" stroke-width="3" stroke-miterlimit="10"/>
<path d="M10.1549 170.07C10.1549 175.15 14.2699 179.265 19.3491 179.265C24.4283 179.265 28.5432 175.15 28.5432 170.07C28.5432 164.991 24.4283 160.876 19.3491 160.876C14.2699 160.876 10.1549 164.995 10.1549 170.07Z" stroke="#624B61" stroke-width="3" stroke-miterlimit="10"/>
<path d="M10.1549 265.796C10.1549 270.876 14.2699 274.991 19.3491 274.991C24.4283 274.991 28.5432 270.876 28.5432 265.796C28.5432 260.717 24.4283 256.602 19.3491 256.602C14.2699 256.602 10.1549 260.717 10.1549 265.796Z" stroke="#624B61" stroke-width="3" stroke-miterlimit="10"/>
<mask id="path-11-inside-1_242_623" fill="white">
<path d="M128.152 373V343H135.585C137.563 343 139.23 343.3 140.585 343.9C141.963 344.5 143.074 345.289 143.919 346.267C144.763 347.222 145.374 348.267 145.752 349.4C146.152 350.533 146.352 351.644 146.352 352.733C146.352 353.8 146.163 354.9 145.785 356.033C145.407 357.167 144.796 358.222 143.952 359.2C143.107 360.178 141.996 360.967 140.619 361.567C139.241 362.167 137.563 362.467 135.585 362.467H131.952V373H128.152ZM131.952 359.067H135.385C137.185 359.067 138.607 358.756 139.652 358.133C140.696 357.489 141.441 356.689 141.885 355.733C142.33 354.756 142.552 353.756 142.552 352.733C142.552 351.756 142.33 350.778 141.885 349.8C141.463 348.822 140.73 348.011 139.685 347.367C138.663 346.722 137.23 346.4 135.385 346.4H131.952V359.067ZM159.373 373.4C157.284 373.4 155.406 372.933 153.739 372C152.095 371.067 150.795 369.8 149.839 368.2C148.906 366.578 148.439 364.778 148.439 362.8C148.439 360.911 148.895 359.2 149.806 357.667C150.717 356.111 151.939 354.878 153.473 353.967C155.028 353.056 156.739 352.6 158.606 352.6C160.45 352.6 162.139 353.044 163.673 353.933C165.206 354.8 166.428 355.978 167.339 357.467C168.25 358.956 168.706 360.644 168.706 362.533V364H155.639C155.062 364 154.473 363.978 153.873 363.933C153.273 363.889 152.684 363.822 152.106 363.733C152.35 365.511 153.15 367 154.506 368.2C155.884 369.4 157.517 370 159.406 370C160.673 370 161.85 369.711 162.939 369.133C164.028 368.556 164.906 367.789 165.573 366.833L166.573 370.933C165.617 371.711 164.517 372.322 163.273 372.767C162.05 373.189 160.75 373.4 159.373 373.4ZM152.006 361.3C153.206 361.1 154.417 361 155.639 361H162.273C162.762 361 163.239 361.022 163.706 361.067C164.195 361.089 164.684 361.122 165.173 361.167C164.862 359.611 164.084 358.333 162.839 357.333C161.595 356.311 160.184 355.8 158.606 355.8C156.984 355.8 155.562 356.344 154.339 357.433C153.117 358.5 152.339 359.789 152.006 361.3ZM175.845 373V356H171.311V353H175.945V346.333H179.345V353H184.311V356H179.445V373H175.845ZM188.511 373V353H192.111V373H188.511ZM190.311 349.4C189.645 349.4 189.078 349.167 188.611 348.7C188.145 348.233 187.911 347.667 187.911 347C187.911 346.311 188.145 345.744 188.611 345.3C189.078 344.833 189.645 344.6 190.311 344.6C191 344.6 191.567 344.833 192.011 345.3C192.478 345.744 192.711 346.311 192.711 347C192.711 347.667 192.478 348.233 192.011 348.7C191.567 349.167 191 349.4 190.311 349.4ZM200.829 373V356H196.296V353H200.929V346.333H204.329V353H209.296V356H204.429V373H200.829ZM222.045 373.4C219.956 373.4 218.078 372.933 216.411 372C214.767 371.067 213.467 369.8 212.511 368.2C211.578 366.578 211.111 364.778 211.111 362.8C211.111 360.911 211.567 359.2 212.478 357.667C213.389 356.111 214.611 354.878 216.145 353.967C217.7 353.056 219.411 352.6 221.278 352.6C223.122 352.6 224.811 353.044 226.345 353.933C227.878 354.8 229.1 355.978 230.011 357.467C230.922 358.956 231.378 360.644 231.378 362.533V364H218.311C217.733 364 217.145 363.978 216.545 363.933C215.945 363.889 215.356 363.822 214.778 363.733C215.022 365.511 215.822 367 217.178 368.2C218.556 369.4 220.189 370 222.078 370C223.345 370 224.522 369.711 225.611 369.133C226.7 368.556 227.578 367.789 228.245 366.833L229.245 370.933C228.289 371.711 227.189 372.322 225.945 372.767C224.722 373.189 223.422 373.4 222.045 373.4ZM214.678 361.3C215.878 361.1 217.089 361 218.311 361H224.945C225.433 361 225.911 361.022 226.378 361.067C226.867 361.089 227.356 361.122 227.845 361.167C227.533 359.611 226.756 358.333 225.511 357.333C224.267 356.311 222.856 355.8 221.278 355.8C219.656 355.8 218.233 356.344 217.011 357.433C215.789 358.5 215.011 359.789 214.678 361.3ZM247.167 373V343H257.001C259.712 343 262.067 343.444 264.067 344.333C266.09 345.222 267.756 346.4 269.067 347.867C270.379 349.333 271.356 350.956 272.001 352.733C272.645 354.489 272.967 356.244 272.967 358C272.967 359.756 272.645 361.522 272.001 363.3C271.356 365.056 270.379 366.667 269.067 368.133C267.756 369.6 266.09 370.778 264.067 371.667C262.067 372.556 259.712 373 257.001 373H247.167ZM250.967 369.6H256.601C258.912 369.6 260.856 369.244 262.434 368.533C264.012 367.8 265.29 366.856 266.267 365.7C267.245 364.522 267.945 363.256 268.367 361.9C268.812 360.544 269.034 359.244 269.034 358C269.034 356.756 268.812 355.456 268.367 354.1C267.945 352.744 267.245 351.489 266.267 350.333C265.29 349.156 264.012 348.211 262.434 347.5C260.856 346.767 258.912 346.4 256.601 346.4H250.967V369.6ZM287.316 373.4C285.383 373.4 283.616 372.933 282.016 372C280.416 371.067 279.139 369.811 278.183 368.233C277.25 366.656 276.783 364.911 276.783 363C276.783 361.067 277.25 359.322 278.183 357.767C279.139 356.189 280.416 354.933 282.016 354C283.616 353.067 285.383 352.6 287.316 352.6C289.272 352.6 291.039 353.067 292.616 354C294.216 354.933 295.483 356.189 296.416 357.767C297.372 359.322 297.85 361.067 297.85 363C297.85 364.911 297.372 366.656 296.416 368.233C295.483 369.811 294.216 371.067 292.616 372C291.039 372.933 289.272 373.4 287.316 373.4ZM287.316 370C288.605 370 289.772 369.689 290.816 369.067C291.861 368.422 292.694 367.578 293.316 366.533C293.939 365.467 294.25 364.289 294.25 363C294.25 361.711 293.939 360.544 293.316 359.5C292.694 358.433 291.861 357.589 290.816 356.967C289.772 356.322 288.605 356 287.316 356C286.028 356 284.861 356.322 283.816 356.967C282.772 357.589 281.939 358.433 281.316 359.5C280.694 360.544 280.383 361.711 280.383 363C280.383 364.289 280.694 365.467 281.316 366.533C281.939 367.578 282.772 368.422 283.816 369.067C284.861 369.689 286.028 370 287.316 370ZM310.473 373.4C309.073 373.4 307.762 373.056 306.539 372.367C305.317 371.656 304.328 370.633 303.573 369.3C302.817 367.967 302.439 366.367 302.439 364.5V353H306.039V364C306.039 365.578 306.506 366.978 307.439 368.2C308.395 369.4 309.728 370 311.439 370C312.839 370 314.084 369.5 315.173 368.5C316.284 367.478 316.839 366.011 316.839 364.1V353H320.439V373H317.106V369.767C316.373 370.944 315.417 371.844 314.239 372.467C313.084 373.089 311.828 373.4 310.473 373.4ZM336.039 373.4C334.084 373.4 332.306 372.933 330.706 372C329.106 371.067 327.828 369.811 326.873 368.233C325.917 366.656 325.439 364.911 325.439 363C325.439 361.089 325.917 359.344 326.873 357.767C327.828 356.189 329.106 354.933 330.706 354C332.306 353.067 334.084 352.6 336.039 352.6C337.484 352.6 338.839 352.856 340.106 353.367C341.373 353.878 342.484 354.556 343.439 355.4L342.339 359.933C341.784 358.822 340.939 357.889 339.806 357.133C338.695 356.378 337.428 356 336.006 356C334.717 356 333.539 356.322 332.473 356.967C331.428 357.589 330.595 358.433 329.973 359.5C329.35 360.544 329.039 361.711 329.039 363C329.039 364.267 329.35 365.433 329.973 366.5C330.595 367.567 331.428 368.422 332.473 369.067C333.539 369.689 334.717 370 336.006 370C337.428 370 338.695 369.633 339.806 368.9C340.939 368.167 341.784 367.222 342.339 366.067L343.439 370.6C342.484 371.444 341.373 372.122 340.106 372.633C338.839 373.144 337.484 373.4 336.039 373.4ZM357.373 373.4C355.284 373.4 353.406 372.933 351.739 372C350.095 371.067 348.795 369.8 347.839 368.2C346.906 366.578 346.439 364.778 346.439 362.8C346.439 360.911 346.895 359.2 347.806 357.667C348.717 356.111 349.939 354.878 351.473 353.967C353.028 353.056 354.739 352.6 356.606 352.6C358.45 352.6 360.139 353.044 361.673 353.933C363.206 354.8 364.428 355.978 365.339 357.467C366.25 358.956 366.706 360.644 366.706 362.533V364H353.639C353.062 364 352.473 363.978 351.873 363.933C351.273 363.889 350.684 363.822 350.106 363.733C350.35 365.511 351.15 367 352.506 368.2C353.884 369.4 355.517 370 357.406 370C358.673 370 359.85 369.711 360.939 369.133C362.028 368.556 362.906 367.789 363.573 366.833L364.573 370.933C363.617 371.711 362.517 372.322 361.273 372.767C360.05 373.189 358.75 373.4 357.373 373.4ZM350.006 361.3C351.206 361.1 352.417 361 353.639 361H360.273C360.762 361 361.239 361.022 361.706 361.067C362.195 361.089 362.684 361.122 363.173 361.167C362.862 359.611 362.084 358.333 360.839 357.333C359.595 356.311 358.184 355.8 356.606 355.8C354.984 355.8 353.562 356.344 352.339 357.433C351.117 358.5 350.339 359.789 350.006 361.3ZM379.145 373.4C377.745 373.4 376.433 373.056 375.211 372.367C373.989 371.656 373 370.633 372.245 369.3C371.489 367.967 371.111 366.367 371.111 364.5V353H374.711V364C374.711 365.578 375.178 366.978 376.111 368.2C377.067 369.4 378.4 370 380.111 370C381.511 370 382.756 369.5 383.845 368.5C384.956 367.478 385.511 366.011 385.511 364.1V353H389.111V373H385.778V369.767C385.045 370.944 384.089 371.844 382.911 372.467C381.756 373.089 380.5 373.4 379.145 373.4ZM395.511 373V353H398.845V356.667C399.556 355.489 400.5 354.556 401.678 353.867C402.856 353.156 404.256 352.8 405.878 352.8L406.778 356.4C406.356 356.267 405.867 356.2 405.311 356.2C403.445 356.2 401.945 356.8 400.811 358C399.678 359.178 399.111 360.867 399.111 363.067V373H395.511Z"/>
</mask>
<path d="M128.152 373V343H135.585C137.563 343 139.23 343.3 140.585 343.9C141.963 344.5 143.074 345.289 143.919 346.267C144.763 347.222 145.374 348.267 145.752 349.4C146.152 350.533 146.352 351.644 146.352 352.733C146.352 353.8 146.163 354.9 145.785 356.033C145.407 357.167 144.796 358.222 143.952 359.2C143.107 360.178 141.996 360.967 140.619 361.567C139.241 362.167 137.563 362.467 135.585 362.467H131.952V373H128.152ZM131.952 359.067H135.385C137.185 359.067 138.607 358.756 139.652 358.133C140.696 357.489 141.441 356.689 141.885 355.733C142.33 354.756 142.552 353.756 142.552 352.733C142.552 351.756 142.33 350.778 141.885 349.8C141.463 348.822 140.73 348.011 139.685 347.367C138.663 346.722 137.23 346.4 135.385 346.4H131.952V359.067ZM159.373 373.4C157.284 373.4 155.406 372.933 153.739 372C152.095 371.067 150.795 369.8 149.839 368.2C148.906 366.578 148.439 364.778 148.439 362.8C148.439 360.911 148.895 359.2 149.806 357.667C150.717 356.111 151.939 354.878 153.473 353.967C155.028 353.056 156.739 352.6 158.606 352.6C160.45 352.6 162.139 353.044 163.673 353.933C165.206 354.8 166.428 355.978 167.339 357.467C168.25 358.956 168.706 360.644 168.706 362.533V364H155.639C155.062 364 154.473 363.978 153.873 363.933C153.273 363.889 152.684 363.822 152.106 363.733C152.35 365.511 153.15 367 154.506 368.2C155.884 369.4 157.517 370 159.406 370C160.673 370 161.85 369.711 162.939 369.133C164.028 368.556 164.906 367.789 165.573 366.833L166.573 370.933C165.617 371.711 164.517 372.322 163.273 372.767C162.05 373.189 160.75 373.4 159.373 373.4ZM152.006 361.3C153.206 361.1 154.417 361 155.639 361H162.273C162.762 361 163.239 361.022 163.706 361.067C164.195 361.089 164.684 361.122 165.173 361.167C164.862 359.611 164.084 358.333 162.839 357.333C161.595 356.311 160.184 355.8 158.606 355.8C156.984 355.8 155.562 356.344 154.339 357.433C153.117 358.5 152.339 359.789 152.006 361.3ZM175.845 373V356H171.311V353H175.945V346.333H179.345V353H184.311V356H179.445V373H175.845ZM188.511 373V353H192.111V373H188.511ZM190.311 349.4C189.645 349.4 189.078 349.167 188.611 348.7C188.145 348.233 187.911 347.667 187.911 347C187.911 346.311 188.145 345.744 188.611 345.3C189.078 344.833 189.645 344.6 190.311 344.6C191 344.6 191.567 344.833 192.011 345.3C192.478 345.744 192.711 346.311 192.711 347C192.711 347.667 192.478 348.233 192.011 348.7C191.567 349.167 191 349.4 190.311 349.4ZM200.829 373V356H196.296V353H200.929V346.333H204.329V353H209.296V356H204.429V373H200.829ZM222.045 373.4C219.956 373.4 218.078 372.933 216.411 372C214.767 371.067 213.467 369.8 212.511 368.2C211.578 366.578 211.111 364.778 211.111 362.8C211.111 360.911 211.567 359.2 212.478 357.667C213.389 356.111 214.611 354.878 216.145 353.967C217.7 353.056 219.411 352.6 221.278 352.6C223.122 352.6 224.811 353.044 226.345 353.933C227.878 354.8 229.1 355.978 230.011 357.467C230.922 358.956 231.378 360.644 231.378 362.533V364H218.311C217.733 364 217.145 363.978 216.545 363.933C215.945 363.889 215.356 363.822 214.778 363.733C215.022 365.511 215.822 367 217.178 368.2C218.556 369.4 220.189 370 222.078 370C223.345 370 224.522 369.711 225.611 369.133C226.7 368.556 227.578 367.789 228.245 366.833L229.245 370.933C228.289 371.711 227.189 372.322 225.945 372.767C224.722 373.189 223.422 373.4 222.045 373.4ZM214.678 361.3C215.878 361.1 217.089 361 218.311 361H224.945C225.433 361 225.911 361.022 226.378 361.067C226.867 361.089 227.356 361.122 227.845 361.167C227.533 359.611 226.756 358.333 225.511 357.333C224.267 356.311 222.856 355.8 221.278 355.8C219.656 355.8 218.233 356.344 217.011 357.433C215.789 358.5 215.011 359.789 214.678 361.3ZM247.167 373V343H257.001C259.712 343 262.067 343.444 264.067 344.333C266.09 345.222 267.756 346.4 269.067 347.867C270.379 349.333 271.356 350.956 272.001 352.733C272.645 354.489 272.967 356.244 272.967 358C272.967 359.756 272.645 361.522 272.001 363.3C271.356 365.056 270.379 366.667 269.067 368.133C267.756 369.6 266.09 370.778 264.067 371.667C262.067 372.556 259.712 373 257.001 373H247.167ZM250.967 369.6H256.601C258.912 369.6 260.856 369.244 262.434 368.533C264.012 367.8 265.29 366.856 266.267 365.7C267.245 364.522 267.945 363.256 268.367 361.9C268.812 360.544 269.034 359.244 269.034 358C269.034 356.756 268.812 355.456 268.367 354.1C267.945 352.744 267.245 351.489 266.267 350.333C265.29 349.156 264.012 348.211 262.434 347.5C260.856 346.767 258.912 346.4 256.601 346.4H250.967V369.6ZM287.316 373.4C285.383 373.4 283.616 372.933 282.016 372C280.416 371.067 279.139 369.811 278.183 368.233C277.25 366.656 276.783 364.911 276.783 363C276.783 361.067 277.25 359.322 278.183 357.767C279.139 356.189 280.416 354.933 282.016 354C283.616 353.067 285.383 352.6 287.316 352.6C289.272 352.6 291.039 353.067 292.616 354C294.216 354.933 295.483 356.189 296.416 357.767C297.372 359.322 297.85 361.067 297.85 363C297.85 364.911 297.372 366.656 296.416 368.233C295.483 369.811 294.216 371.067 292.616 372C291.039 372.933 289.272 373.4 287.316 373.4ZM287.316 370C288.605 370 289.772 369.689 290.816 369.067C291.861 368.422 292.694 367.578 293.316 366.533C293.939 365.467 294.25 364.289 294.25 363C294.25 361.711 293.939 360.544 293.316 359.5C292.694 358.433 291.861 357.589 290.816 356.967C289.772 356.322 288.605 356 287.316 356C286.028 356 284.861 356.322 283.816 356.967C282.772 357.589 281.939 358.433 281.316 359.5C280.694 360.544 280.383 361.711 280.383 363C280.383 364.289 280.694 365.467 281.316 366.533C281.939 367.578 282.772 368.422 283.816 369.067C284.861 369.689 286.028 370 287.316 370ZM310.473 373.4C309.073 373.4 307.762 373.056 306.539 372.367C305.317 371.656 304.328 370.633 303.573 369.3C302.817 367.967 302.439 366.367 302.439 364.5V353H306.039V364C306.039 365.578 306.506 366.978 307.439 368.2C308.395 369.4 309.728 370 311.439 370C312.839 370 314.084 369.5 315.173 368.5C316.284 367.478 316.839 366.011 316.839 364.1V353H320.439V373H317.106V369.767C316.373 370.944 315.417 371.844 314.239 372.467C313.084 373.089 311.828 373.4 310.473 373.4ZM336.039 373.4C334.084 373.4 332.306 372.933 330.706 372C329.106 371.067 327.828 369.811 326.873 368.233C325.917 366.656 325.439 364.911 325.439 363C325.439 361.089 325.917 359.344 326.873 357.767C327.828 356.189 329.106 354.933 330.706 354C332.306 353.067 334.084 352.6 336.039 352.6C337.484 352.6 338.839 352.856 340.106 353.367C341.373 353.878 342.484 354.556 343.439 355.4L342.339 359.933C341.784 358.822 340.939 357.889 339.806 357.133C338.695 356.378 337.428 356 336.006 356C334.717 356 333.539 356.322 332.473 356.967C331.428 357.589 330.595 358.433 329.973 359.5C329.35 360.544 329.039 361.711 329.039 363C329.039 364.267 329.35 365.433 329.973 366.5C330.595 367.567 331.428 368.422 332.473 369.067C333.539 369.689 334.717 370 336.006 370C337.428 370 338.695 369.633 339.806 368.9C340.939 368.167 341.784 367.222 342.339 366.067L343.439 370.6C342.484 371.444 341.373 372.122 340.106 372.633C338.839 373.144 337.484 373.4 336.039 373.4ZM357.373 373.4C355.284 373.4 353.406 372.933 351.739 372C350.095 371.067 348.795 369.8 347.839 368.2C346.906 366.578 346.439 364.778 346.439 362.8C346.439 360.911 346.895 359.2 347.806 357.667C348.717 356.111 349.939 354.878 351.473 353.967C353.028 353.056 354.739 352.6 356.606 352.6C358.45 352.6 360.139 353.044 361.673 353.933C363.206 354.8 364.428 355.978 365.339 357.467C366.25 358.956 366.706 360.644 366.706 362.533V364H353.639C353.062 364 352.473 363.978 351.873 363.933C351.273 363.889 350.684 363.822 350.106 363.733C350.35 365.511 351.15 367 352.506 368.2C353.884 369.4 355.517 370 357.406 370C358.673 370 359.85 369.711 360.939 369.133C362.028 368.556 362.906 367.789 363.573 366.833L364.573 370.933C363.617 371.711 362.517 372.322 361.273 372.767C360.05 373.189 358.75 373.4 357.373 373.4ZM350.006 361.3C351.206 361.1 352.417 361 353.639 361H360.273C360.762 361 361.239 361.022 361.706 361.067C362.195 361.089 362.684 361.122 363.173 361.167C362.862 359.611 362.084 358.333 360.839 357.333C359.595 356.311 358.184 355.8 356.606 355.8C354.984 355.8 353.562 356.344 352.339 357.433C351.117 358.5 350.339 359.789 350.006 361.3ZM379.145 373.4C377.745 373.4 376.433 373.056 375.211 372.367C373.989 371.656 373 370.633 372.245 369.3C371.489 367.967 371.111 366.367 371.111 364.5V353H374.711V364C374.711 365.578 375.178 366.978 376.111 368.2C377.067 369.4 378.4 370 380.111 370C381.511 370 382.756 369.5 383.845 368.5C384.956 367.478 385.511 366.011 385.511 364.1V353H389.111V373H385.778V369.767C385.045 370.944 384.089 371.844 382.911 372.467C381.756 373.089 380.5 373.4 379.145 373.4ZM395.511 373V353H398.845V356.667C399.556 355.489 400.5 354.556 401.678 353.867C402.856 353.156 404.256 352.8 405.878 352.8L406.778 356.4C406.356 356.267 405.867 356.2 405.311 356.2C403.445 356.2 401.945 356.8 400.811 358C399.678 359.178 399.111 360.867 399.111 363.067V373H395.511Z" fill="#624B61"/>
<path d="M128.152 373H127.152V374H128.152V373ZM128.152 343V342H127.152V343H128.152ZM140.585 343.9L140.18 344.814L140.186 344.817L140.585 343.9ZM143.919 346.267L143.162 346.92L143.169 346.929L143.919 346.267ZM145.752 349.4L144.803 349.716L144.806 349.725L144.809 349.733L145.752 349.4ZM145.785 356.033L146.734 356.35V356.35L145.785 356.033ZM143.952 359.2L144.709 359.854V359.854L143.952 359.2ZM140.619 361.567L141.018 362.484L140.619 361.567ZM131.952 362.467V361.467H130.952V362.467H131.952ZM131.952 373V374H132.952V373H131.952ZM131.952 359.067H130.952V360.067H131.952V359.067ZM139.652 358.133L140.164 358.992L140.17 358.988L140.177 358.984L139.652 358.133ZM141.885 355.733L142.792 356.155L142.796 356.147L141.885 355.733ZM141.885 349.8L140.967 350.196L140.971 350.205L140.975 350.214L141.885 349.8ZM139.685 347.367L139.152 348.213L139.16 348.218L139.685 347.367ZM131.952 346.4V345.4H130.952V346.4H131.952ZM128.152 373H129.152V343H128.152H127.152V373H128.152ZM128.152 343V344H135.585V343V342H128.152V343ZM135.585 343V344C137.468 344 138.987 344.286 140.18 344.814L140.585 343.9L140.99 342.986C139.472 342.314 137.658 342 135.585 342V343ZM140.585 343.9L140.186 344.817C141.449 345.367 142.43 346.073 143.162 346.92L143.919 346.267L144.675 345.613C143.718 344.505 142.477 343.633 140.984 342.983L140.585 343.9ZM143.919 346.267L143.169 346.929C143.931 347.791 144.471 348.719 144.803 349.716L145.752 349.4L146.701 349.084C146.277 347.814 145.595 346.654 144.668 345.604L143.919 346.267ZM145.752 349.4L144.809 349.733C145.175 350.77 145.352 351.769 145.352 352.733H146.352H147.352C147.352 351.52 147.129 350.296 146.695 349.067L145.752 349.4ZM146.352 352.733H145.352C145.352 353.68 145.184 354.674 144.836 355.717L145.785 356.033L146.734 356.35C147.142 355.126 147.352 353.92 147.352 352.733H146.352ZM145.785 356.033L144.836 355.717C144.503 356.717 143.961 357.659 143.195 358.546L143.952 359.2L144.709 359.854C145.631 358.785 146.312 357.617 146.734 356.35L145.785 356.033ZM143.952 359.2L143.195 358.546C142.463 359.394 141.482 360.1 140.219 360.65L140.619 361.567L141.018 362.484C142.511 361.833 143.751 360.962 144.709 359.854L143.952 359.2ZM140.619 361.567L140.219 360.65C139 361.181 137.467 361.467 135.585 361.467V362.467V363.467C137.659 363.467 139.481 363.153 141.018 362.484L140.619 361.567ZM135.585 362.467V361.467H131.952V362.467V363.467H135.585V362.467ZM131.952 362.467H130.952V373H131.952H132.952V362.467H131.952ZM131.952 373V372H128.152V373V374H131.952V373ZM131.952 359.067V360.067H135.385V359.067V358.067H131.952V359.067ZM135.385 359.067V360.067C137.285 360.067 138.907 359.741 140.164 358.992L139.652 358.133L139.14 357.274C138.308 357.77 137.086 358.067 135.385 358.067V359.067ZM139.652 358.133L140.177 358.984C141.36 358.255 142.252 357.316 142.792 356.155L141.885 355.733L140.978 355.312C140.629 356.062 140.033 356.723 139.127 357.282L139.652 358.133ZM141.885 355.733L142.796 356.147C143.296 355.046 143.552 353.906 143.552 352.733H142.552H141.552C141.552 353.606 141.363 354.465 140.975 355.32L141.885 355.733ZM142.552 352.733H143.552C143.552 351.599 143.293 350.481 142.796 349.386L141.885 349.8L140.975 350.214C141.366 351.075 141.552 351.912 141.552 352.733H142.552ZM141.885 349.8L142.803 349.404C142.288 348.21 141.402 347.251 140.21 346.516L139.685 347.367L139.16 348.218C140.057 348.771 140.638 349.434 140.967 350.196L141.885 349.8ZM139.685 347.367L140.218 346.521C138.973 345.736 137.326 345.4 135.385 345.4V346.4V347.4C137.133 347.4 138.353 347.709 139.152 348.213L139.685 347.367ZM135.385 346.4V345.4H131.952V346.4V347.4H135.385V346.4ZM131.952 346.4H130.952V359.067H131.952H132.952V346.4H131.952ZM153.739 372L153.246 372.87L153.251 372.873L153.739 372ZM149.839 368.2L148.973 368.699L148.977 368.706L148.981 368.713L149.839 368.2ZM149.806 357.667L150.666 358.178L150.669 358.172L149.806 357.667ZM153.473 353.967L152.967 353.104L152.962 353.107L153.473 353.967ZM163.673 353.933L163.171 354.799L163.181 354.804L163.673 353.933ZM168.706 364V365H169.706V364H168.706ZM152.106 363.733L152.258 362.745L150.933 362.541L151.115 363.87L152.106 363.733ZM154.506 368.2L153.843 368.949L153.849 368.954L154.506 368.2ZM165.573 366.833L166.544 366.596L166.02 364.445L164.753 366.261L165.573 366.833ZM166.573 370.933L167.204 371.709L167.694 371.31L167.544 370.696L166.573 370.933ZM163.273 372.767L163.599 373.712L163.609 373.708L163.273 372.767ZM152.006 361.3L151.029 361.085L150.711 362.53L152.17 362.286L152.006 361.3ZM163.706 361.067L163.611 362.062L163.636 362.065L163.661 362.066L163.706 361.067ZM165.173 361.167L165.082 362.163L166.416 362.284L166.153 360.971L165.173 361.167ZM162.839 357.333L162.205 358.106L162.213 358.113L162.839 357.333ZM154.339 357.433L154.997 358.187L155.005 358.18L154.339 357.433ZM159.373 373.4V372.4C157.438 372.4 155.732 371.97 154.228 371.127L153.739 372L153.251 372.873C155.08 373.897 157.129 374.4 159.373 374.4V373.4ZM153.739 372L154.233 371.13C152.737 370.281 151.563 369.136 150.698 367.687L149.839 368.2L148.981 368.713C150.026 370.464 151.453 371.852 153.246 372.87L153.739 372ZM149.839 368.2L150.706 367.701C149.865 366.239 149.439 364.613 149.439 362.8H148.439H147.439C147.439 364.942 147.947 366.916 148.973 368.699L149.839 368.2ZM148.439 362.8H149.439C149.439 361.08 149.852 359.547 150.666 358.177L149.806 357.667L148.946 357.156C147.938 358.853 147.439 360.742 147.439 362.8H148.439ZM149.806 357.667L150.669 358.172C151.495 356.761 152.597 355.65 153.984 354.826L153.473 353.967L152.962 353.107C151.281 354.105 149.939 355.461 148.943 357.161L149.806 357.667ZM153.473 353.967L153.978 354.83C155.375 354.011 156.91 353.6 158.606 353.6V352.6V351.6C156.568 351.6 154.682 352.1 152.967 353.104L153.473 353.967ZM158.606 352.6V353.6C160.282 353.6 161.797 354.002 163.171 354.798L163.673 353.933L164.174 353.068C162.482 352.087 160.619 351.6 158.606 351.6V352.6ZM163.673 353.933L163.181 354.804C164.567 355.588 165.665 356.646 166.486 357.989L167.339 357.467L168.192 356.945C167.192 355.309 165.845 354.012 164.165 353.063L163.673 353.933ZM167.339 357.467L166.486 357.989C167.293 359.308 167.706 360.813 167.706 362.533H168.706H169.706C169.706 360.476 169.207 358.604 168.192 356.945L167.339 357.467ZM168.706 362.533H167.706V364H168.706H169.706V362.533H168.706ZM168.706 364V363H155.639V364V365H168.706V364ZM155.639 364V363C155.087 363 154.523 362.979 153.947 362.936L153.873 363.933L153.799 364.931C154.422 364.977 155.036 365 155.639 365V364ZM153.873 363.933L153.947 362.936C153.372 362.894 152.809 362.83 152.258 362.745L152.106 363.733L151.954 364.722C152.558 364.815 153.173 364.884 153.799 364.931L153.873 363.933ZM152.106 363.733L151.115 363.87C151.393 365.886 152.31 367.592 153.843 368.949L154.506 368.2L155.169 367.451C153.991 366.408 153.308 365.136 153.097 363.597L152.106 363.733ZM154.506 368.2L153.849 368.954C155.416 370.318 157.285 371 159.406 371V370V369C157.75 369 156.352 368.482 155.163 367.446L154.506 368.2ZM159.406 370V371C160.831 371 162.171 370.673 163.408 370.017L162.939 369.133L162.471 368.25C161.53 368.749 160.514 369 159.406 369V370ZM162.939 369.133L163.408 370.017C164.629 369.369 165.63 368.499 166.393 367.406L165.573 366.833L164.753 366.261C164.182 367.079 163.428 367.742 162.471 368.25L162.939 369.133ZM165.573 366.833L164.601 367.07L165.601 371.17L166.573 370.933L167.544 370.696L166.544 366.596L165.573 366.833ZM166.573 370.933L165.941 370.158C165.08 370.859 164.082 371.416 162.936 371.825L163.273 372.767L163.609 373.708C164.953 373.229 166.154 372.563 167.204 371.709L166.573 370.933ZM163.273 372.767L162.946 371.821C161.836 372.205 160.647 372.4 159.373 372.4V373.4V374.4C160.854 374.4 162.265 374.173 163.599 373.712L163.273 372.767ZM152.006 361.3L152.17 362.286C153.316 362.095 154.472 362 155.639 362V361V360C154.362 360 153.096 360.105 151.842 360.314L152.006 361.3ZM155.639 361V362H162.273V361V360H155.639V361ZM162.273 361V362C162.731 362 163.177 362.021 163.611 362.062L163.706 361.067L163.801 360.071C163.301 360.024 162.792 360 162.273 360V361ZM163.706 361.067L163.661 362.066C164.134 362.087 164.608 362.119 165.082 362.163L165.173 361.167L165.263 360.171C164.759 360.125 164.255 360.091 163.751 360.068L163.706 361.067ZM165.173 361.167L166.153 360.971C165.796 359.183 164.892 357.7 163.466 356.554L162.839 357.333L162.213 358.113C163.276 358.967 163.927 360.039 164.192 361.363L165.173 361.167ZM162.839 357.333L163.474 356.561C162.055 355.395 160.42 354.8 158.606 354.8V355.8V356.8C159.947 356.8 161.135 357.227 162.205 358.106L162.839 357.333ZM158.606 355.8V354.8C156.736 354.8 155.078 355.436 153.674 356.687L154.339 357.433L155.005 358.18C156.045 357.253 157.232 356.8 158.606 356.8V355.8ZM154.339 357.433L153.682 356.68C152.307 357.88 151.411 359.354 151.029 361.085L152.006 361.3L152.983 361.515C153.267 360.224 153.927 359.12 154.997 358.187L154.339 357.433ZM175.845 373H174.845V374H175.845V373ZM175.845 356H176.845V355H175.845V356ZM171.311 356H170.311V357H171.311V356ZM171.311 353V352H170.311V353H171.311ZM175.945 353V354H176.945V353H175.945ZM175.945 346.333V345.333H174.945V346.333H175.945ZM179.345 346.333H180.345V345.333H179.345V346.333ZM179.345 353H178.345V354H179.345V353ZM184.311 353H185.311V352H184.311V353ZM184.311 356V357H185.311V356H184.311ZM179.445 356V355H178.445V356H179.445ZM179.445 373V374H180.445V373H179.445ZM175.845 373H176.845V356H175.845H174.845V373H175.845ZM175.845 356V355H171.311V356V357H175.845V356ZM171.311 356H172.311V353H171.311H170.311V356H171.311ZM171.311 353V354H175.945V353V352H171.311V353ZM175.945 353H176.945V346.333H175.945H174.945V353H175.945ZM175.945 346.333V347.333H179.345V346.333V345.333H175.945V346.333ZM179.345 346.333H178.345V353H179.345H180.345V346.333H179.345ZM179.345 353V354H184.311V353V352H179.345V353ZM184.311 353H183.311V356H184.311H185.311V353H184.311ZM184.311 356V355H179.445V356V357H184.311V356ZM179.445 356H178.445V373H179.445H180.445V356H179.445ZM179.445 373V372H175.845V373V374H179.445V373ZM188.511 373H187.511V374H188.511V373ZM188.511 353V352H187.511V353H188.511ZM192.111 353H193.111V352H192.111V353ZM192.111 373V374H193.111V373H192.111ZM188.611 345.3L189.301 346.024L189.31 346.016L189.318 346.007L188.611 345.3ZM192.011 345.3L191.287 345.99L191.304 346.007L191.322 346.024L192.011 345.3ZM192.011 348.7L191.304 347.993L191.295 348.002L191.287 348.01L192.011 348.7ZM188.511 373H189.511V353H188.511H187.511V373H188.511ZM188.511 353V354H192.111V353V352H188.511V353ZM192.111 353H191.111V373H192.111H193.111V353H192.111ZM192.111 373V372H188.511V373V374H192.111V373ZM190.311 349.4V348.4C189.907 348.4 189.595 348.27 189.318 347.993L188.611 348.7L187.904 349.407C188.56 350.063 189.382 350.4 190.311 350.4V349.4ZM188.611 348.7L189.318 347.993C189.041 347.716 188.911 347.404 188.911 347H187.911H186.911C186.911 347.929 187.248 348.751 187.904 349.407L188.611 348.7ZM187.911 347H188.911C188.911 346.564 189.047 346.266 189.301 346.024L188.611 345.3L187.922 344.576C187.242 345.223 186.911 346.058 186.911 347H187.911ZM188.611 345.3L189.318 346.007C189.595 345.73 189.907 345.6 190.311 345.6V344.6V343.6C189.382 343.6 188.56 343.937 187.904 344.593L188.611 345.3ZM190.311 344.6V345.6C190.747 345.6 191.045 345.736 191.287 345.99L192.011 345.3L192.735 344.61C192.088 343.931 191.253 343.6 190.311 343.6V344.6ZM192.011 345.3L191.322 346.024C191.575 346.266 191.711 346.564 191.711 347H192.711H193.711C193.711 346.058 193.38 345.223 192.701 344.576L192.011 345.3ZM192.711 347H191.711C191.711 347.404 191.581 347.716 191.304 347.993L192.011 348.7L192.718 349.407C193.375 348.751 193.711 347.929 193.711 347H192.711ZM192.011 348.7L191.287 348.01C191.045 348.264 190.747 348.4 190.311 348.4V349.4V350.4C191.253 350.4 192.088 350.069 192.735 349.39L192.011 348.7ZM200.829 373H199.829V374H200.829V373ZM200.829 356H201.829V355H200.829V356ZM196.296 356H195.296V357H196.296V356ZM196.296 353V352H195.296V353H196.296ZM200.929 353V354H201.929V353H200.929ZM200.929 346.333V345.333H199.929V346.333H200.929ZM204.329 346.333H205.329V345.333H204.329V346.333ZM204.329 353H203.329V354H204.329V353ZM209.296 353H210.296V352H209.296V353ZM209.296 356V357H210.296V356H209.296ZM204.429 356V355H203.429V356H204.429ZM204.429 373V374H205.429V373H204.429ZM200.829 373H201.829V356H200.829H199.829V373H200.829ZM200.829 356V355H196.296V356V357H200.829V356ZM196.296 356H197.296V353H196.296H195.296V356H196.296ZM196.296 353V354H200.929V353V352H196.296V353ZM200.929 353H201.929V346.333H200.929H199.929V353H200.929ZM200.929 346.333V347.333H204.329V346.333V345.333H200.929V346.333ZM204.329 346.333H203.329V353H204.329H205.329V346.333H204.329ZM204.329 353V354H209.296V353V352H204.329V353ZM209.296 353H208.296V356H209.296H210.296V353H209.296ZM209.296 356V355H204.429V356V357H209.296V356ZM204.429 356H203.429V373H204.429H205.429V356H204.429ZM204.429 373V372H200.829V373V374H204.429V373ZM216.411 372L215.918 372.87L215.923 372.873L216.411 372ZM212.511 368.2L211.644 368.699L211.648 368.706L211.653 368.713L212.511 368.2ZM212.478 357.667L213.338 358.178L213.341 358.172L212.478 357.667ZM216.145 353.967L215.639 353.104L215.634 353.107L216.145 353.967ZM226.345 353.933L225.843 354.799L225.852 354.804L226.345 353.933ZM231.378 364V365H232.378V364H231.378ZM214.778 363.733L214.93 362.745L213.605 362.541L213.787 363.87L214.778 363.733ZM217.178 368.2L216.515 368.949L216.521 368.954L217.178 368.2ZM228.245 366.833L229.216 366.596L228.691 364.445L227.424 366.261L228.245 366.833ZM229.245 370.933L229.876 371.709L230.366 371.31L230.216 370.696L229.245 370.933ZM225.945 372.767L226.271 373.712L226.281 373.708L225.945 372.767ZM214.678 361.3L213.701 361.085L213.383 362.53L214.842 362.286L214.678 361.3ZM226.378 361.067L226.283 362.062L226.308 362.065L226.332 362.066L226.378 361.067ZM227.845 361.167L227.754 362.163L229.088 362.284L228.825 360.971L227.845 361.167ZM225.511 357.333L224.876 358.106L224.885 358.113L225.511 357.333ZM217.011 357.433L217.669 358.187L217.676 358.18L217.011 357.433ZM222.045 373.4V372.4C220.11 372.4 218.404 371.97 216.9 371.127L216.411 372L215.923 372.873C217.752 373.897 219.801 374.4 222.045 374.4V373.4ZM216.411 372L216.905 371.13C215.409 370.281 214.235 369.136 213.37 367.687L212.511 368.2L211.653 368.713C212.698 370.464 214.125 371.852 215.918 372.87L216.411 372ZM212.511 368.2L213.378 367.701C212.537 366.239 212.111 364.613 212.111 362.8H211.111H210.111C210.111 364.942 210.619 366.916 211.644 368.699L212.511 368.2ZM211.111 362.8H212.111C212.111 361.08 212.524 359.547 213.338 358.177L212.478 357.667L211.618 357.156C210.61 358.853 210.111 360.742 210.111 362.8H211.111ZM212.478 357.667L213.341 358.172C214.167 356.761 215.269 355.65 216.655 354.826L216.145 353.967L215.634 353.107C213.953 354.105 212.611 355.461 211.615 357.161L212.478 357.667ZM216.145 353.967L216.65 354.83C218.047 354.011 219.582 353.6 221.278 353.6V352.6V351.6C219.24 351.6 217.354 352.1 215.639 353.104L216.145 353.967ZM221.278 352.6V353.6C222.954 353.6 224.468 354.002 225.843 354.798L226.345 353.933L226.846 353.068C225.154 352.087 223.291 351.6 221.278 351.6V352.6ZM226.345 353.933L225.852 354.804C227.239 355.588 228.337 356.646 229.158 357.989L230.011 357.467L230.864 356.945C229.864 355.309 228.517 354.012 226.837 353.063L226.345 353.933ZM230.011 357.467L229.158 357.989C229.965 359.308 230.378 360.813 230.378 362.533H231.378H232.378C232.378 360.476 231.879 358.604 230.864 356.945L230.011 357.467ZM231.378 362.533H230.378V364H231.378H232.378V362.533H231.378ZM231.378 364V363H218.311V364V365H231.378V364ZM218.311 364V363C217.759 363 217.195 362.979 216.618 362.936L216.545 363.933L216.471 364.931C217.094 364.977 217.708 365 218.311 365V364ZM216.545 363.933L216.618 362.936C216.044 362.894 215.481 362.83 214.93 362.745L214.778 363.733L214.626 364.722C215.23 364.815 215.845 364.884 216.471 364.931L216.545 363.933ZM214.778 363.733L213.787 363.87C214.065 365.886 214.982 367.592 216.515 368.949L217.178 368.2L217.841 367.451C216.662 366.408 215.98 365.136 215.769 363.597L214.778 363.733ZM217.178 368.2L216.521 368.954C218.088 370.318 219.956 371 222.078 371V370V369C220.421 369 219.024 368.482 217.835 367.446L217.178 368.2ZM222.078 370V371C223.503 371 224.843 370.673 226.08 370.017L225.611 369.133L225.143 368.25C224.202 368.749 223.186 369 222.078 369V370ZM225.611 369.133L226.08 370.017C227.301 369.369 228.302 368.499 229.065 367.406L228.245 366.833L227.424 366.261C226.854 367.079 226.1 367.742 225.143 368.25L225.611 369.133ZM228.245 366.833L227.273 367.07L228.273 371.17L229.245 370.933L230.216 370.696L229.216 366.596L228.245 366.833ZM229.245 370.933L228.613 370.158C227.752 370.859 226.753 371.416 225.608 371.825L225.945 372.767L226.281 373.708C227.625 373.229 228.826 372.563 229.876 371.709L229.245 370.933ZM225.945 372.767L225.618 371.821C224.508 372.205 223.319 372.4 222.045 372.4V373.4V374.4C223.526 374.4 224.937 374.173 226.271 373.712L225.945 372.767ZM214.678 361.3L214.842 362.286C215.988 362.095 217.144 362 218.311 362V361V360C217.034 360 215.768 360.105 214.513 360.314L214.678 361.3ZM218.311 361V362H224.945V361V360H218.311V361ZM224.945 361V362C225.403 362 225.849 362.021 226.283 362.062L226.378 361.067L226.473 360.071C225.973 360.024 225.464 360 224.945 360V361ZM226.378 361.067L226.332 362.066C226.806 362.087 227.28 362.119 227.754 362.163L227.845 361.167L227.935 360.171C227.431 360.125 226.927 360.091 226.423 360.068L226.378 361.067ZM227.845 361.167L228.825 360.971C228.468 359.183 227.564 357.7 226.138 356.554L225.511 357.333L224.885 358.113C225.948 358.967 226.599 360.039 226.864 361.363L227.845 361.167ZM225.511 357.333L226.146 356.561C224.727 355.395 223.092 354.8 221.278 354.8V355.8V356.8C222.619 356.8 223.807 357.227 224.876 358.106L225.511 357.333ZM221.278 355.8V354.8C219.408 354.8 217.75 355.436 216.346 356.687L217.011 357.433L217.676 358.18C218.717 357.253 219.903 356.8 221.278 356.8V355.8ZM217.011 357.433L216.354 356.68C214.979 357.88 214.083 359.354 213.701 361.085L214.678 361.3L215.654 361.515C215.939 360.224 216.599 359.12 217.669 358.187L217.011 357.433ZM247.167 373H246.167V374H247.167V373ZM247.167 343V342H246.167V343H247.167ZM264.067 344.333L263.661 345.247L263.665 345.249L264.067 344.333ZM269.067 347.867L268.322 348.533V348.533L269.067 347.867ZM272.001 352.733L271.061 353.074L271.062 353.078L272.001 352.733ZM272.001 363.3L272.94 363.645L272.941 363.641L272.001 363.3ZM269.067 368.133L268.322 367.467V367.467L269.067 368.133ZM264.067 371.667L263.665 370.751L263.661 370.753L264.067 371.667ZM250.967 369.6H249.967V370.6H250.967V369.6ZM262.434 368.533L262.845 369.445L262.856 369.44L262.434 368.533ZM266.267 365.7L267.031 366.346L267.037 366.339L266.267 365.7ZM268.367 361.9L267.417 361.588L267.415 361.596L267.413 361.603L268.367 361.9ZM268.367 354.1L267.413 354.397L267.415 354.404L267.417 354.412L268.367 354.1ZM266.267 350.333L265.498 350.972L265.504 350.979L266.267 350.333ZM262.434 347.5L262.013 348.407L262.023 348.412L262.434 347.5ZM250.967 346.4V345.4H249.967V346.4H250.967ZM247.167 373H248.167V343H247.167H246.167V373H247.167ZM247.167 343V344H257.001V343V342H247.167V343ZM257.001 343V344C259.604 344 261.816 344.427 263.661 345.247L264.067 344.333L264.474 343.42C262.319 342.462 259.819 342 257.001 342V343ZM264.067 344.333L263.665 345.249C265.573 346.087 267.117 347.185 268.322 348.533L269.067 347.867L269.813 347.2C268.396 345.615 266.607 344.357 264.47 343.418L264.067 344.333ZM269.067 347.867L268.322 348.533C269.551 349.909 270.461 351.421 271.061 353.074L272.001 352.733L272.941 352.393C272.251 350.49 271.206 348.758 269.813 347.2L269.067 347.867ZM272.001 352.733L271.062 353.078C271.669 354.73 271.967 356.37 271.967 358H272.967H273.967C273.967 356.119 273.622 354.247 272.94 352.389L272.001 352.733ZM272.967 358H271.967C271.967 359.631 271.669 361.282 271.061 362.959L272.001 363.3L272.941 363.641C273.622 361.762 273.967 359.88 273.967 358H272.967ZM272.001 363.3L271.062 362.955C270.463 364.586 269.553 366.089 268.322 367.467L269.067 368.133L269.813 368.8C271.204 367.244 272.249 365.525 272.94 363.645L272.001 363.3ZM269.067 368.133L268.322 367.467C267.117 368.815 265.573 369.913 263.665 370.751L264.067 371.667L264.47 372.582C266.607 371.643 268.396 370.385 269.813 368.8L269.067 368.133ZM264.067 371.667L263.661 370.753C261.816 371.573 259.604 372 257.001 372V373V374C259.819 374 262.319 373.538 264.474 372.58L264.067 371.667ZM257.001 373V372H247.167V373V374H257.001V373ZM250.967 369.6V370.6H256.601V369.6V368.6H250.967V369.6ZM256.601 369.6V370.6C259.008 370.6 261.102 370.23 262.845 369.445L262.434 368.533L262.023 367.622C260.61 368.258 258.815 368.6 256.601 368.6V369.6ZM262.434 368.533L262.856 369.44C264.545 368.655 265.946 367.628 267.031 366.346L266.267 365.7L265.504 365.054C264.633 366.083 263.478 366.945 262.013 367.626L262.434 368.533ZM266.267 365.7L267.037 366.339C268.092 365.068 268.858 363.687 269.322 362.197L268.367 361.9L267.413 361.603C267.032 362.824 266.399 363.976 265.498 365.061L266.267 365.7ZM268.367 361.9L269.318 362.212C269.79 360.77 270.034 359.364 270.034 358H269.034H268.034C268.034 359.124 267.833 360.319 267.417 361.588L268.367 361.9ZM269.034 358H270.034C270.034 356.636 269.79 355.23 269.318 353.788L268.367 354.1L267.417 354.412C267.833 355.681 268.034 356.876 268.034 358H269.034ZM268.367 354.1L269.322 353.803C268.858 352.311 268.089 350.938 267.031 349.687L266.267 350.333L265.504 350.979C266.401 352.039 267.033 353.178 267.413 354.397L268.367 354.1ZM266.267 350.333L267.037 349.695C265.95 348.385 264.543 347.354 262.845 346.588L262.434 347.5L262.023 348.412C263.481 349.068 264.629 349.926 265.498 350.972L266.267 350.333ZM262.434 347.5L262.856 346.593C261.11 345.782 259.012 345.4 256.601 345.4V346.4V347.4C258.812 347.4 260.603 347.752 262.013 348.407L262.434 347.5ZM256.601 346.4V345.4H250.967V346.4V347.4H256.601V346.4ZM250.967 346.4H249.967V369.6H250.967H251.967V346.4H250.967ZM282.016 372L282.52 371.136L282.016 372ZM278.183 368.233L277.322 368.742L277.328 368.751L278.183 368.233ZM278.183 357.767L277.328 357.249L277.326 357.252L278.183 357.767ZM282.016 354L282.52 354.864L282.016 354ZM292.616 354L292.107 354.861L292.113 354.864L292.616 354ZM296.416 357.767L295.556 358.276L295.56 358.283L295.564 358.29L296.416 357.767ZM296.416 368.233L295.561 367.715L295.556 367.724L296.416 368.233ZM292.616 372L292.113 371.136L292.107 371.139L292.616 372ZM290.816 369.067L291.328 369.926L291.335 369.922L291.342 369.918L290.816 369.067ZM293.316 366.533L294.176 367.045L294.18 367.037L293.316 366.533ZM293.316 359.5L292.453 360.004L292.457 360.012L293.316 359.5ZM290.816 356.967L290.291 357.818L290.298 357.822L290.305 357.826L290.816 356.967ZM283.816 356.967L284.328 357.826L284.335 357.822L284.342 357.818L283.816 356.967ZM281.316 359.5L282.176 360.012L282.18 360.004L281.316 359.5ZM281.316 366.533L280.453 367.037L280.457 367.045L281.316 366.533ZM283.816 369.067L283.291 369.918L283.298 369.922L283.305 369.926L283.816 369.067ZM287.316 373.4V372.4C285.552 372.4 283.961 371.976 282.52 371.136L282.016 372L281.513 372.864C283.272 373.89 285.214 374.4 287.316 374.4V373.4ZM282.016 372L282.52 371.136C281.064 370.287 279.907 369.15 279.038 367.715L278.183 368.233L277.328 368.751C278.37 370.473 279.769 371.847 281.513 372.864L282.016 372ZM278.183 368.233L279.044 367.724C278.206 366.307 277.783 364.74 277.783 363H276.783H275.783C275.783 365.082 276.294 367.004 277.322 368.742L278.183 368.233ZM276.783 363H277.783C277.783 361.236 278.207 359.671 279.041 358.281L278.183 357.767L277.326 357.252C276.293 358.973 275.783 360.898 275.783 363H276.783ZM278.183 357.767L279.038 358.285C279.907 356.85 281.064 355.713 282.52 354.864L282.016 354L281.513 353.136C279.769 354.153 278.37 355.527 277.328 357.249L278.183 357.767ZM282.016 354L282.52 354.864C283.961 354.024 285.552 353.6 287.316 353.6V352.6V351.6C285.214 351.6 283.272 352.11 281.513 353.136L282.016 354ZM287.316 352.6V353.6C289.105 353.6 290.694 354.025 292.107 354.861L292.616 354L293.126 353.139C291.383 352.109 289.439 351.6 287.316 351.6V352.6ZM292.616 354L292.113 354.864C293.567 355.712 294.71 356.846 295.556 358.276L296.416 357.767L297.277 357.258C296.256 355.531 294.866 354.154 293.12 353.136L292.616 354ZM296.416 357.767L295.564 358.29C296.417 359.679 296.85 361.24 296.85 363H297.85H298.85C298.85 360.893 298.327 358.966 297.269 357.243L296.416 357.767ZM297.85 363H296.85C296.85 364.735 296.418 366.3 295.561 367.715L296.416 368.233L297.272 368.751C298.325 367.012 298.85 365.087 298.85 363H297.85ZM296.416 368.233L295.556 367.724C294.71 369.154 293.567 370.288 292.113 371.136L292.616 372L293.12 372.864C294.866 371.846 296.256 370.469 297.277 368.742L296.416 368.233ZM292.616 372L292.107 371.139C290.694 371.975 289.105 372.4 287.316 372.4V373.4V374.4C289.439 374.4 291.383 373.891 293.126 372.861L292.616 372ZM287.316 370V371C288.774 371 290.12 370.646 291.328 369.926L290.816 369.067L290.305 368.208C289.424 368.732 288.436 369 287.316 369V370ZM290.816 369.067L291.342 369.918C292.522 369.19 293.47 368.229 294.176 367.045L293.316 366.533L292.457 366.022C291.918 366.926 291.2 367.655 290.291 368.216L290.816 369.067ZM293.316 366.533L294.18 367.037C294.896 365.811 295.25 364.458 295.25 363H294.25H293.25C293.25 364.12 292.982 365.123 292.453 366.029L293.316 366.533ZM294.25 363H295.25C295.25 361.542 294.896 360.197 294.176 358.988L293.316 359.5L292.457 360.012C292.982 360.892 293.25 361.88 293.25 363H294.25ZM293.316 359.5L294.18 358.996C293.474 357.786 292.521 356.818 291.328 356.108L290.816 356.967L290.305 357.826C291.201 358.36 291.914 359.081 292.453 360.004L293.316 359.5ZM290.816 356.967L291.342 356.116C290.131 355.369 288.781 355 287.316 355V356V357C288.43 357 289.413 357.276 290.291 357.818L290.816 356.967ZM287.316 356V355C285.852 355 284.502 355.369 283.291 356.116L283.816 356.967L284.342 357.818C285.22 357.276 286.203 357 287.316 357V356ZM283.816 356.967L283.305 356.108C282.112 356.818 281.159 357.786 280.453 358.996L281.316 359.5L282.18 360.004C282.718 359.081 283.432 358.36 284.328 357.826L283.816 356.967ZM281.316 359.5L280.457 358.988C279.737 360.197 279.383 361.542 279.383 363H280.383H281.383C281.383 361.88 281.651 360.892 282.176 360.012L281.316 359.5ZM280.383 363H279.383C279.383 364.458 279.737 365.811 280.453 367.037L281.316 366.533L282.18 366.029C281.651 365.123 281.383 364.12 281.383 363H280.383ZM281.316 366.533L280.457 367.045C281.163 368.229 282.111 369.19 283.291 369.918L283.816 369.067L284.342 368.216C283.433 367.655 282.715 366.926 282.176 366.022L281.316 366.533ZM283.816 369.067L283.305 369.926C284.513 370.646 285.859 371 287.316 371V370V369C286.196 369 285.208 368.732 284.328 368.208L283.816 369.067ZM306.539 372.367L306.036 373.231L306.048 373.238L306.539 372.367ZM303.573 369.3L302.703 369.793L303.573 369.3ZM302.439 353V352H301.439V353H302.439ZM306.039 353H307.039V352H306.039V353ZM307.439 368.2L306.645 368.807L306.651 368.815L306.657 368.823L307.439 368.2ZM315.173 368.5L315.849 369.237L315.85 369.236L315.173 368.5ZM316.839 353V352H315.839V353H316.839ZM320.439 353H321.439V352H320.439V353ZM320.439 373V374H321.439V373H320.439ZM317.106 373H316.106V374H317.106V373ZM317.106 369.767H318.106V366.269L316.257 369.238L317.106 369.767ZM314.239 372.467L313.772 371.582L313.765 371.586L314.239 372.467ZM310.473 373.4V372.4C309.245 372.4 308.103 372.1 307.03 371.496L306.539 372.367L306.048 373.238C307.42 374.011 308.9 374.4 310.473 374.4V373.4ZM306.539 372.367L307.042 371.502C305.986 370.888 305.118 370 304.443 368.807L303.573 369.3L302.703 369.793C303.538 371.267 304.648 372.423 306.036 373.231L306.539 372.367ZM303.573 369.3L304.443 368.807C303.789 367.654 303.439 366.231 303.439 364.5H302.439H301.439C301.439 366.502 301.845 368.28 302.703 369.793L303.573 369.3ZM302.439 364.5H303.439V353H302.439H301.439V364.5H302.439ZM302.439 353V354H306.039V353V352H302.439V353ZM306.039 353H305.039V364H306.039H307.039V353H306.039ZM306.039 364H305.039C305.039 365.791 305.574 367.406 306.645 368.807L307.439 368.2L308.234 367.593C307.438 366.55 307.039 365.365 307.039 364H306.039ZM307.439 368.2L306.657 368.823C307.826 370.291 309.464 371 311.439 371V370V369C309.993 369 308.964 368.509 308.222 367.577L307.439 368.2ZM311.439 370V371C313.105 371 314.587 370.396 315.849 369.237L315.173 368.5L314.496 367.763C313.581 368.604 312.574 369 311.439 369V370ZM315.173 368.5L315.85 369.236C317.219 367.977 317.839 366.212 317.839 364.1H316.839H315.839C315.839 365.811 315.349 366.979 314.496 367.764L315.173 368.5ZM316.839 364.1H317.839V353H316.839H315.839V364.1H316.839ZM316.839 353V354H320.439V353V352H316.839V353ZM320.439 353H319.439V373H320.439H321.439V353H320.439ZM320.439 373V372H317.106V373V374H320.439V373ZM317.106 373H318.106V369.767H317.106H316.106V373H317.106ZM317.106 369.767L316.257 369.238C315.613 370.272 314.787 371.046 313.772 371.582L314.239 372.467L314.706 373.351C316.047 372.642 317.132 371.617 317.955 370.295L317.106 369.767ZM314.239 372.467L313.765 371.586C312.76 372.127 311.668 372.4 310.473 372.4V373.4V374.4C311.988 374.4 313.407 374.05 314.713 373.347L314.239 372.467ZM330.706 372L330.202 372.864L330.706 372ZM326.873 368.233L327.728 367.715V367.715L326.873 368.233ZM326.873 357.767L327.728 358.285L326.873 357.767ZM330.706 354L330.202 353.136L330.706 354ZM340.106 353.367L340.48 352.439L340.106 353.367ZM343.439 355.4L344.411 355.636L344.553 355.05L344.102 354.651L343.439 355.4ZM342.339 359.933L341.445 360.381L342.667 362.824L343.311 360.169L342.339 359.933ZM339.806 357.133L339.244 357.96L339.251 357.965L339.806 357.133ZM332.473 356.967L332.984 357.826L332.99 357.823L332.473 356.967ZM329.973 359.5L330.832 360.012L330.836 360.004L329.973 359.5ZM329.973 366.5L329.109 367.004L329.973 366.5ZM332.473 369.067L331.948 369.918L331.958 369.924L331.969 369.93L332.473 369.067ZM339.806 368.9L339.263 368.06L339.255 368.065L339.806 368.9ZM342.339 366.067L343.311 365.831L342.651 363.11L341.438 365.633L342.339 366.067ZM343.439 370.6L344.102 371.349L344.553 370.95L344.411 370.364L343.439 370.6ZM340.106 372.633L340.48 373.561L340.106 372.633ZM336.039 373.4V372.4C334.251 372.4 332.648 371.975 331.21 371.136L330.706 372L330.202 372.864C331.964 373.891 333.917 374.4 336.039 374.4V373.4ZM330.706 372L331.21 371.136C329.753 370.287 328.597 369.15 327.728 367.715L326.873 368.233L326.017 368.751C327.06 370.473 328.459 371.847 330.202 372.864L330.706 372ZM326.873 368.233L327.728 367.715C326.871 366.3 326.439 364.735 326.439 363H325.439H324.439C324.439 365.087 324.964 367.012 326.017 368.751L326.873 368.233ZM325.439 363H326.439C326.439 361.265 326.871 359.7 327.728 358.285L326.873 357.767L326.017 357.249C324.964 358.988 324.439 360.913 324.439 363H325.439ZM326.873 357.767L327.728 358.285C328.597 356.85 329.753 355.713 331.21 354.864L330.706 354L330.202 353.136C328.459 354.153 327.06 355.527 326.017 357.249L326.873 357.767ZM330.706 354L331.21 354.864C332.648 354.025 334.251 353.6 336.039 353.6V352.6V351.6C333.917 351.6 331.964 352.109 330.202 353.136L330.706 354ZM336.039 352.6V353.6C337.363 353.6 338.591 353.834 339.732 354.294L340.106 353.367L340.48 352.439C339.088 351.878 337.605 351.6 336.039 351.6V352.6ZM340.106 353.367L339.732 354.294C340.901 354.766 341.913 355.385 342.777 356.149L343.439 355.4L344.102 354.651C343.055 353.726 341.845 352.99 340.48 352.439L340.106 353.367ZM343.439 355.4L342.468 355.164L341.368 359.698L342.339 359.933L343.311 360.169L344.411 355.636L343.439 355.4ZM342.339 359.933L343.234 359.486C342.593 358.205 341.624 357.144 340.361 356.301L339.806 357.133L339.251 357.965C340.254 358.634 340.975 359.44 341.445 360.381L342.339 359.933ZM339.806 357.133L340.368 356.306C339.081 355.431 337.616 355 336.006 355V356V357C337.24 357 338.308 357.324 339.244 357.96L339.806 357.133ZM336.006 356V355C334.541 355 333.184 355.369 331.956 356.111L332.473 356.967L332.99 357.823C333.895 357.276 334.893 357 336.006 357V356ZM332.473 356.967L331.961 356.108C330.769 356.818 329.815 357.786 329.109 358.996L329.973 359.5L330.836 360.004C331.375 359.081 332.088 358.36 332.984 357.826L332.473 356.967ZM329.973 359.5L329.114 358.988C328.394 360.197 328.039 361.542 328.039 363H329.039H330.039C330.039 361.88 330.307 360.892 330.832 360.012L329.973 359.5ZM329.039 363H328.039C328.039 364.439 328.395 365.78 329.109 367.004L329.973 366.5L330.836 365.996C330.306 365.086 330.039 364.094 330.039 363H329.039ZM329.973 366.5L329.109 367.004C329.813 368.211 330.763 369.187 331.948 369.918L332.473 369.067L332.998 368.216C332.094 367.658 331.377 366.922 330.836 365.996L329.973 366.5ZM332.473 369.067L331.969 369.93C333.195 370.646 334.548 371 336.006 371V370V369C334.886 369 333.883 368.732 332.977 368.203L332.473 369.067ZM336.006 370V371C337.61 371 339.071 370.583 340.357 369.735L339.806 368.9L339.255 368.065C338.319 368.683 337.246 369 336.006 369V370ZM339.806 368.9L340.349 369.74C341.628 368.912 342.601 367.83 343.241 366.5L342.339 366.067L341.438 365.633C340.967 366.614 340.25 367.422 339.263 368.06L339.806 368.9ZM342.339 366.067L341.368 366.302L342.468 370.836L343.439 370.6L344.411 370.364L343.311 365.831L342.339 366.067ZM343.439 370.6L342.777 369.851C341.913 370.615 340.901 371.234 339.732 371.706L340.106 372.633L340.48 373.561C341.845 373.01 343.055 372.274 344.102 371.349L343.439 370.6ZM340.106 372.633L339.732 371.706C338.591 372.166 337.363 372.4 336.039 372.4V373.4V374.4C337.605 374.4 339.088 374.122 340.48 373.561L340.106 372.633ZM351.739 372L351.246 372.87L351.251 372.873L351.739 372ZM347.839 368.2L346.973 368.699L346.977 368.706L346.981 368.713L347.839 368.2ZM347.806 357.667L348.666 358.178L348.669 358.172L347.806 357.667ZM351.473 353.967L350.967 353.104L350.962 353.107L351.473 353.967ZM361.673 353.933L361.171 354.799L361.181 354.804L361.673 353.933ZM366.706 364V365H367.706V364H366.706ZM350.106 363.733L350.258 362.745L348.933 362.541L349.115 363.87L350.106 363.733ZM352.506 368.2L351.843 368.949L351.849 368.954L352.506 368.2ZM363.573 366.833L364.544 366.596L364.02 364.445L362.753 366.261L363.573 366.833ZM364.573 370.933L365.204 371.709L365.694 371.31L365.544 370.696L364.573 370.933ZM361.273 372.767L361.599 373.712L361.609 373.708L361.273 372.767ZM350.006 361.3L349.029 361.085L348.711 362.53L350.17 362.286L350.006 361.3ZM361.706 361.067L361.611 362.062L361.636 362.065L361.661 362.066L361.706 361.067ZM363.173 361.167L363.082 362.163L364.416 362.284L364.153 360.971L363.173 361.167ZM360.839 357.333L360.205 358.106L360.213 358.113L360.839 357.333ZM352.339 357.433L352.997 358.187L353.005 358.18L352.339 357.433ZM357.373 373.4V372.4C355.438 372.4 353.732 371.97 352.228 371.127L351.739 372L351.251 372.873C353.08 373.897 355.129 374.4 357.373 374.4V373.4ZM351.739 372L352.233 371.13C350.737 370.281 349.563 369.136 348.698 367.687L347.839 368.2L346.981 368.713C348.026 370.464 349.453 371.852 351.246 372.87L351.739 372ZM347.839 368.2L348.706 367.701C347.865 366.239 347.439 364.613 347.439 362.8H346.439H345.439C345.439 364.942 345.947 366.916 346.973 368.699L347.839 368.2ZM346.439 362.8H347.439C347.439 361.08 347.852 359.547 348.666 358.177L347.806 357.667L346.946 357.156C345.938 358.853 345.439 360.742 345.439 362.8H346.439ZM347.806 357.667L348.669 358.172C349.495 356.761 350.597 355.65 351.983 354.826L351.473 353.967L350.962 353.107C349.281 354.105 347.939 355.461 346.943 357.161L347.806 357.667ZM351.473 353.967L351.978 354.83C353.375 354.011 354.91 353.6 356.606 353.6V352.6V351.6C354.568 351.6 352.682 352.1 350.967 353.104L351.473 353.967ZM356.606 352.6V353.6C358.282 353.6 359.797 354.002 361.171 354.798L361.673 353.933L362.174 353.068C360.482 352.087 358.619 351.6 356.606 351.6V352.6ZM361.673 353.933L361.181 354.804C362.567 355.588 363.665 356.646 364.486 357.989L365.339 357.467L366.192 356.945C365.192 355.309 363.845 354.012 362.165 353.063L361.673 353.933ZM365.339 357.467L364.486 357.989C365.293 359.308 365.706 360.813 365.706 362.533H366.706H367.706C367.706 360.476 367.207 358.604 366.192 356.945L365.339 357.467ZM366.706 362.533H365.706V364H366.706H367.706V362.533H366.706ZM366.706 364V363H353.639V364V365H366.706V364ZM353.639 364V363C353.087 363 352.523 362.979 351.947 362.936L351.873 363.933L351.799 364.931C352.422 364.977 353.036 365 353.639 365V364ZM351.873 363.933L351.947 362.936C351.372 362.894 350.809 362.83 350.258 362.745L350.106 363.733L349.954 364.722C350.558 364.815 351.173 364.884 351.799 364.931L351.873 363.933ZM350.106 363.733L349.115 363.87C349.393 365.886 350.31 367.592 351.843 368.949L352.506 368.2L353.169 367.451C351.991 366.408 351.308 365.136 351.097 363.597L350.106 363.733ZM352.506 368.2L351.849 368.954C353.416 370.318 355.285 371 357.406 371V370V369C355.75 369 354.352 368.482 353.163 367.446L352.506 368.2ZM357.406 370V371C358.831 371 360.171 370.673 361.408 370.017L360.939 369.133L360.471 368.25C359.53 368.749 358.514 369 357.406 369V370ZM360.939 369.133L361.408 370.017C362.629 369.369 363.63 368.499 364.393 367.406L363.573 366.833L362.753 366.261C362.182 367.079 361.428 367.742 360.471 368.25L360.939 369.133ZM363.573 366.833L362.601 367.07L363.601 371.17L364.573 370.933L365.544 370.696L364.544 366.596L363.573 366.833ZM364.573 370.933L363.941 370.158C363.08 370.859 362.082 371.416 360.936 371.825L361.273 372.767L361.609 373.708C362.953 373.229 364.154 372.563 365.204 371.709L364.573 370.933ZM361.273 372.767L360.946 371.821C359.836 372.205 358.647 372.4 357.373 372.4V373.4V374.4C358.854 374.4 360.265 374.173 361.599 373.712L361.273 372.767ZM350.006 361.3L350.17 362.286C351.316 362.095 352.472 362 353.639 362V361V360C352.362 360 351.096 360.105 349.842 360.314L350.006 361.3ZM353.639 361V362H360.273V361V360H353.639V361ZM360.273 361V362C360.731 362 361.177 362.021 361.611 362.062L361.706 361.067L361.801 360.071C361.301 360.024 360.792 360 360.273 360V361ZM361.706 361.067L361.661 362.066C362.134 362.087 362.608 362.119 363.082 362.163L363.173 361.167L363.263 360.171C362.759 360.125 362.255 360.091 361.751 360.068L361.706 361.067ZM363.173 361.167L364.153 360.971C363.796 359.183 362.892 357.7 361.466 356.554L360.839 357.333L360.213 358.113C361.276 358.967 361.927 360.039 362.192 361.363L363.173 361.167ZM360.839 357.333L361.474 356.561C360.055 355.395 358.42 354.8 356.606 354.8V355.8V356.8C357.947 356.8 359.135 357.227 360.205 358.106L360.839 357.333ZM356.606 355.8V354.8C354.736 354.8 353.078 355.436 351.674 356.687L352.339 357.433L353.005 358.18C354.045 357.253 355.232 356.8 356.606 356.8V355.8ZM352.339 357.433L351.682 356.68C350.307 357.88 349.411 359.354 349.029 361.085L350.006 361.3L350.983 361.515C351.267 360.224 351.927 359.12 352.997 358.187L352.339 357.433ZM375.211 372.367L374.708 373.231L374.72 373.238L375.211 372.367ZM372.245 369.3L371.375 369.793L372.245 369.3ZM371.111 353V352H370.111V353H371.111ZM374.711 353H375.711V352H374.711V353ZM376.111 368.2L375.316 368.807L375.323 368.815L375.329 368.823L376.111 368.2ZM383.845 368.5L384.521 369.237L384.522 369.236L383.845 368.5ZM385.511 353V352H384.511V353H385.511ZM389.111 353H390.111V352H389.111V353ZM389.111 373V374H390.111V373H389.111ZM385.778 373H384.778V374H385.778V373ZM385.778 369.767H386.778V366.269L384.929 369.238L385.778 369.767ZM382.911 372.467L382.444 371.582L382.437 371.586L382.911 372.467ZM379.145 373.4V372.4C377.917 372.4 376.775 372.1 375.702 371.496L375.211 372.367L374.72 373.238C376.092 374.011 377.572 374.4 379.145 374.4V373.4ZM375.211 372.367L375.714 371.502C374.658 370.888 373.79 370 373.115 368.807L372.245 369.3L371.375 369.793C372.21 371.267 373.32 372.423 374.708 373.231L375.211 372.367ZM372.245 369.3L373.115 368.807C372.461 367.654 372.111 366.231 372.111 364.5H371.111H370.111C370.111 366.502 370.517 368.28 371.375 369.793L372.245 369.3ZM371.111 364.5H372.111V353H371.111H370.111V364.5H371.111ZM371.111 353V354H374.711V353V352H371.111V353ZM374.711 353H373.711V364H374.711H375.711V353H374.711ZM374.711 364H373.711C373.711 365.791 374.246 367.406 375.316 368.807L376.111 368.2L376.906 367.593C376.109 366.55 375.711 365.365 375.711 364H374.711ZM376.111 368.2L375.329 368.823C376.498 370.291 378.136 371 380.111 371V370V369C378.665 369 377.636 368.509 376.893 367.577L376.111 368.2ZM380.111 370V371C381.777 371 383.259 370.396 384.521 369.237L383.845 368.5L383.168 367.763C382.252 368.604 381.246 369 380.111 369V370ZM383.845 368.5L384.522 369.236C385.89 367.977 386.511 366.212 386.511 364.1H385.511H384.511C384.511 365.811 384.021 366.979 383.167 367.764L383.845 368.5ZM385.511 364.1H386.511V353H385.511H384.511V364.1H385.511ZM385.511 353V354H389.111V353V352H385.511V353ZM389.111 353H388.111V373H389.111H390.111V353H389.111ZM389.111 373V372H385.778V373V374H389.111V373ZM385.778 373H386.778V369.767H385.778H384.778V373H385.778ZM385.778 369.767L384.929 369.238C384.285 370.272 383.459 371.046 382.444 371.582L382.911 372.467L383.378 373.351C384.719 372.642 385.804 371.617 386.627 370.295L385.778 369.767ZM382.911 372.467L382.437 371.586C381.432 372.127 380.34 372.4 379.145 372.4V373.4V374.4C380.66 374.4 382.079 374.05 383.385 373.347L382.911 372.467ZM395.511 373H394.511V374H395.511V373ZM395.511 353V352H394.511V353H395.511ZM398.845 353H399.845V352H398.845V353ZM398.845 356.667H397.845V360.258L399.701 357.184L398.845 356.667ZM401.678 353.867L402.183 354.73L402.195 354.723L401.678 353.867ZM405.878 352.8L406.848 352.557L406.659 351.8H405.878V352.8ZM406.778 356.4L406.477 357.354L408.182 357.892L407.748 356.157L406.778 356.4ZM400.811 358L401.532 358.693L401.538 358.687L400.811 358ZM399.111 373V374H400.111V373H399.111ZM395.511 373H396.511V353H395.511H394.511V373H395.511ZM395.511 353V354H398.845V353V352H395.511V353ZM398.845 353H397.845V356.667H398.845H399.845V353H398.845ZM398.845 356.667L399.701 357.184C400.326 356.147 401.15 355.334 402.183 354.73L401.678 353.867L401.173 353.003C399.85 353.777 398.785 354.83 397.988 356.15L398.845 356.667ZM401.678 353.867L402.195 354.723C403.191 354.121 404.405 353.8 405.878 353.8V352.8V351.8C404.106 351.8 402.521 352.19 401.161 353.011L401.678 353.867ZM405.878 352.8L404.908 353.043L405.808 356.643L406.778 356.4L407.748 356.157L406.848 352.557L405.878 352.8ZM406.778 356.4L407.079 355.446C406.538 355.276 405.944 355.2 405.311 355.2V356.2V357.2C405.789 357.2 406.173 357.258 406.477 357.354L406.778 356.4ZM405.311 356.2V355.2C403.209 355.2 401.432 355.886 400.084 357.313L400.811 358L401.538 358.687C402.457 357.714 403.68 357.2 405.311 357.2V356.2ZM400.811 358L400.091 357.307C398.723 358.728 398.111 360.7 398.111 363.067H399.111H400.111C400.111 361.034 400.633 359.628 401.532 358.693L400.811 358ZM399.111 363.067H398.111V373H399.111H400.111V363.067H399.111ZM399.111 373V372H395.511V373V374H399.111V373Z" fill="#624B61" mask="url(#path-11-inside-1_242_623)"/>
<path d="M152.652 209.688C156.832 211.674 161.113 213.084 165.488 214.08L187.002 315.822C185.295 315.464 183.671 315.042 182.389 314.543C181.655 314.258 181.055 313.955 180.621 313.64C180.18 313.32 179.963 313.026 179.896 312.774H179.897C170.818 278.412 161.734 244.05 152.652 209.688Z" stroke="#624B61"/>
<path d="M175.579 215.716C181.073 216.288 186.696 216.444 192.42 216.487L208.193 319.201C204.481 318.683 200.781 318.106 197.093 317.453L175.579 215.716Z" stroke="#624B61"/>
<path d="M227.347 321.343C224.249 321.077 221.155 320.774 218.065 320.433L202.096 216.453C208.121 216.269 214.959 215.535 220.661 213.727L227.347 321.343Z" stroke="#624B61"/>
<path d="M230.132 211.37C236.576 214.333 243.149 216.793 249.824 218.702L248.397 322.643C244.598 322.49 240.8 322.297 237.006 322.057L230.132 211.37Z" stroke="#624B61"/>
<path d="M259.399 221.037C264.716 222.112 270.089 222.832 275.502 223.168L270.209 323.15C266.142 323.116 262.072 323.054 257.998 322.955L259.399 221.037Z" stroke="#624B61"/>
<path d="M291.813 323.187C287.809 323.223 283.812 323.225 279.827 323.209L285.108 223.353C291.55 223.204 298.037 222.499 304.548 221.198L291.813 323.187Z" stroke="#624B61"/>
<path d="M166.287 116.01C164.026 124.014 164.047 133.144 165.569 139.847V139.848C170.238 163.204 181.492 178.68 199.268 192.708L200.119 193.375L200.127 193.381C208.151 199.365 216.495 204.577 225.085 208.919C222.367 210.769 218.836 212.16 215.045 213.138C210.943 214.196 206.573 214.766 202.676 214.932C174.151 216.142 147.24 211.796 130.707 186.613C121.856 173.136 122.486 155.763 129.579 141.591C136.574 127.617 149.809 116.842 166.287 116.01Z" stroke="#624B61"/>
<path d="M336 320.256C333.153 320.678 330.292 321.045 327.424 321.358L344.776 199.369C350.61 199.231 356.319 198.728 361.802 197.8L336 320.256Z" stroke="#624B61"/>
<path d="M392.899 185.348C391.959 189.433 391.185 192.998 390.894 194.127C385.922 213.384 380.951 232.64 375.978 251.898C370.615 272.678 365.247 293.46 359.883 314.244C358.194 315.554 355.782 316.45 353.175 317.119C350.781 317.732 348.285 318.142 346.111 318.525L372.042 195.465C379.764 193.215 386.831 189.913 392.899 185.348Z" stroke="#624B61"/>
<path d="M188.462 99.3013C188.862 99.5726 189.252 99.8555 189.638 100.145C189.785 106.462 190.399 112.217 190.817 115.767V115.768C192.518 129.738 200.015 140.623 209.838 149.685C219.651 158.737 231.825 166.007 242.931 172.737V172.738C262.847 185.235 302.758 198.821 339.066 199.384C338.491 201.704 336.871 203.915 334.534 205.978C332.011 208.206 328.703 210.221 325.138 211.981C318.009 215.5 309.935 217.958 305.281 219.046C264.192 228.666 218.902 209.92 189.68 181.045C178.126 169.633 171.446 154.994 167.95 139.264C166.311 131.897 166.317 122.268 169.112 114.405C171.901 106.562 177.426 100.544 186.836 100.144L186.835 100.143C187.536 100.114 188.125 99.77 188.462 99.3013Z" stroke="#624B61"/>
<path d="M203.738 69.3618C203.82 69.4965 203.927 69.6229 204.057 69.7378L204.059 69.7388C205.24 70.7752 206.437 71.7806 207.641 72.7632C207.622 80.5961 209.722 89.037 211.831 94.1606V94.1616L211.837 94.1743C215.956 103.44 223.505 108.394 232.067 111.955C236.344 113.733 240.894 115.172 245.405 116.623C249.924 118.076 254.407 119.543 258.591 121.384C274.441 128.467 293.684 135.726 313.279 139.526C332.868 143.325 352.856 143.676 370.163 136.891L370.17 136.888L370.178 136.885C374.775 134.911 379.104 134.156 381.225 128.524L382.576 125.153L382.624 125.033L382.609 124.905C382.515 124.164 382.401 123.435 382.27 122.719C394.019 124.841 404.234 129.297 408.978 139.833C411.472 145.369 410.64 152.646 408.229 159.673C405.823 166.684 401.883 173.335 398.317 177.55C390.878 186.35 379.778 191.236 368.835 194.25C331.255 204.613 284.413 192.24 250.643 174.589C231.551 164.607 211.132 151.701 199.41 133.417C197.483 130.41 195.518 125.175 193.982 118.904C192.449 112.645 191.355 105.399 191.148 98.395C190.941 91.3844 191.624 84.654 193.617 79.4048C195.597 74.1924 198.839 70.5036 203.738 69.3618Z" stroke="#624B61"/>
<mask id="path-24-inside-2_242_623" fill="white">
<path d="M220.382 54.2141C220.427 54.2464 220.473 54.277 220.517 54.3103C221.12 54.2491 221.746 54.2141 222.403 54.2141H220.382Z"/>
</mask>
<path d="M220.382 54.2141C220.427 54.2464 220.473 54.277 220.517 54.3103C221.12 54.2491 221.746 54.2141 222.403 54.2141H220.382Z" fill="#D99058"/>
<path d="M220.382 54.2141V53.2141H217.282L219.798 55.0256L220.382 54.2141ZM220.517 54.3103L219.914 55.1083L220.228 55.3448L220.618 55.3052L220.517 54.3103ZM220.382 54.2141L219.798 55.0256C219.889 55.0912 219.875 55.0788 219.914 55.1083L220.517 54.3103L221.12 53.5122C221.083 53.4846 221.049 53.4604 221.024 53.4432C220.995 53.423 220.982 53.4139 220.966 53.4025L220.382 54.2141ZM220.517 54.3103L220.618 55.3052C221.189 55.2472 221.782 55.2141 222.403 55.2141V54.2141V53.2141C221.71 53.2141 221.05 53.2511 220.416 53.3154L220.517 54.3103ZM222.403 54.2141V53.2141H220.382V54.2141V55.2141H222.403V54.2141Z" fill="#624B61" mask="url(#path-24-inside-2_242_623)"/>
<path d="M219.936 56.0303C220.76 56.6076 221.589 57.1733 222.421 57.7286C225.834 70.7199 232.518 78.2426 241.488 82.7413C249.901 86.9601 260.294 88.5033 271.774 89.4854L274.085 89.6749L274.095 89.6758C293.236 90.8032 313.358 92.3963 332.842 92.4952C338.928 93.416 345.012 94.0538 350.941 94.0538C354.501 94.0539 358.947 95.9103 363.316 98.9268C367.672 101.934 371.886 106.049 374.98 110.469C378.082 114.898 380.018 119.577 379.914 123.718C379.862 125.779 379.305 127.707 378.134 129.42C376.961 131.135 375.154 132.661 372.562 133.885C354.69 142.326 335.004 142.253 315.515 138.31C296.023 134.366 276.78 126.561 259.811 119.59C256.175 118.096 252.406 116.836 248.639 115.603C244.866 114.367 241.098 113.159 237.438 111.76C230.122 108.963 223.292 105.423 217.863 99.4756H217.862C215.822 97.24 213.897 93.6324 212.428 89.3848C210.96 85.1447 209.961 80.307 209.747 75.6397C209.532 70.9667 210.107 66.5025 211.752 62.9835C213.359 59.5438 215.986 57.0088 219.936 56.0303Z" stroke="#624B61"/>
<path d="M245.704 31.2239C245.525 31.388 245.376 31.5884 245.297 31.8313L245.269 31.9319C244.274 36.2113 244.302 39.8193 245.181 42.8411C246.053 45.8399 247.754 48.2289 250.064 50.1057C253.488 55.5766 259.744 59.2597 269.421 62.0237L269.432 62.0266L269.441 62.0286C276.999 63.8423 287.304 65.531 296.34 64.5237C305.243 63.5312 313.069 59.8924 315.66 51.0129C316.438 51.1208 317.458 51.5621 318.636 52.2678C319.985 53.0764 321.458 54.1797 322.872 55.3411C325.7 57.6625 328.246 60.1769 329.027 60.9358C335.437 67.1563 339.177 75.8908 342.17 84.2454C342.719 86.3553 343.429 88.4093 344.304 90.4036C341.75 91.1139 338.159 91.1885 334.411 91.0461C332.415 90.9704 330.397 90.8352 328.492 90.7092C327.067 90.615 325.703 90.5253 324.467 90.4719L323.276 90.4319C315.132 90.2479 306.993 89.7928 298.853 89.2903L290.714 88.7805C274.324 87.7569 257.087 87.8897 242.165 80.6624C232.069 75.7714 224.993 62.9642 224.721 51.5725C224.585 45.8933 226.143 40.629 229.794 36.8879C233.138 33.4615 238.3 31.2517 245.704 31.2239Z" stroke="#624B61"/>
<path d="M247.184 31.586C246.48 37.8626 246.857 43.0036 248.606 47.2579C247.5 45.9071 246.662 44.352 246.142 42.5626C245.323 39.7443 245.278 36.3156 246.244 32.1583L246.243 32.1573C246.266 32.0618 246.394 31.8929 246.727 31.7383C246.869 31.6723 247.026 31.6217 247.184 31.586Z" fill="#624B61" stroke="#624B61"/>
<mask id="path-29-inside-3_242_623" fill="white">
<path d="M396.245 124.687C392.19 122.821 387.976 121.522 383.681 120.599C382.624 108.104 365.141 96.1812 356.244 91.8647C354.378 90.9599 350.972 90.7413 347.574 90.6549C343.69 76.3034 337.695 63.5817 325.921 54.0853C322.21 51.0893 319.8 49.714 317.32 49.285C321.67 32.7298 301.699 10.5225 289.347 4.22999C272.044 -4.59446 256.423 0.718555 246.703 17.0849C246.304 17.7585 247.328 17.8395 248.215 17.6227C247.925 17.8872 247.642 18.1552 247.372 18.4313C246.616 19.2129 249.397 18.9836 249.959 18.3998C265.8 2.02633 274.152 33.685 248.872 28.5024C248.469 28.4188 247.433 28.5564 246.911 28.9405C231.117 29.0997 222.149 40.6476 221.611 53.3874C221.536 53.3964 221.46 53.4017 221.386 53.4098C220.866 53.1283 219.949 53.3532 219.402 53.7579C211.532 55.4777 207.721 60.9301 206.657 67.8136C206.618 67.7803 206.579 67.7479 206.541 67.7137C206.094 67.3224 205.343 67.4133 204.779 67.7281C204.734 67.1632 204.138 66.6551 203.175 66.8745C190.262 69.7995 188.305 84.9885 188.542 97.5816C188.36 97.7426 188.231 97.9243 188.2 98.1114C188.063 97.8235 187.712 97.6176 187.077 97.6436C174.523 98.1761 168.131 105.164 165.535 114.645C142.275 117.001 123.812 136.805 120.773 160.046C118.498 177.416 129.243 192.878 141.629 203.663C143.541 205.326 145.584 206.765 147.729 208.022C151.188 221.103 154.644 234.184 158.102 247.265C162.52 263.985 166.937 280.703 171.358 297.423C172.095 300.216 173.669 314.038 176.722 315.139C187.232 318.931 198.779 320.315 209.789 321.694C240.59 325.559 272.022 325.815 302.999 324.635C319.298 324.013 335.906 322.825 351.779 318.844C355.439 317.928 360.15 316.854 363.314 314.481C363.649 314.325 363.895 314.139 363.949 313.93C375.27 270.088 386.588 226.245 397.907 182.403C400.639 179.868 403.024 177.021 404.918 173.837C415.99 155.2 417.625 134.516 396.245 124.687ZM252.647 30.6845C254.728 30.8625 257.508 30.572 259.522 30.0333C262.874 29.1347 268.152 26.7098 268.216 22.4419C268.409 9.98283 257.028 10.9147 249.701 16.395C270.549 -17.184 318.921 18.4259 314.109 49.8327C311.468 67.0679 287.456 64.1186 275.329 61.9123C263.215 59.705 251.688 54.4604 249.069 41.4787C248.129 36.8367 246.926 30.1952 252.647 30.6845ZM246.468 30.7322C244.452 51.5165 256.321 60.1629 276.216 63.7868C289.167 66.1442 306.627 66.8035 314.907 54.5971C315.73 53.3846 316.365 52.1218 316.84 50.8167C321.092 52.3997 328.003 59.2437 329.377 60.5757C335.882 66.8898 339.654 75.7323 342.65 84.098C343.239 86.3718 344.018 88.5799 344.991 90.7161C339.652 92.5006 329.309 91.0696 323.266 90.9302C312.395 90.6846 301.535 89.957 290.684 89.2779C274.353 88.2579 256.983 88.3929 241.948 81.111C221.628 71.2692 213.536 30.2141 246.468 30.7322ZM220.037 55.492C220.572 55.8689 221.114 56.2296 221.655 56.5966C222.227 64.9524 226.408 73.4486 234.646 79.2905C247.499 88.4046 263.656 89.4731 278.916 90.3986C293.35 91.272 307.775 92.2433 322.232 92.7281C328.048 92.9233 335.225 93.8507 341.521 93.0781C344.692 93.3776 347.838 93.5557 350.94 93.5557C365.777 93.5557 394.022 124.302 372.775 134.338C336.762 151.347 293.547 133.993 259.62 120.054C245.151 114.11 228.502 111.876 217.493 99.8149C209.079 90.5929 203.071 59.4073 220.037 55.492ZM186.814 99.644C187.669 99.6089 188.232 98.9964 188.266 98.4594C188.324 98.5647 188.418 98.6681 188.562 98.7661L188.567 98.7698C188.654 101.72 188.85 104.497 189.036 106.902C191.152 134.267 206.27 150.124 228.508 164.728C260.785 185.924 300.233 200.098 339.403 200.021C336.23 210.191 314.425 217.422 305.394 219.533C264.092 229.202 218.635 210.36 189.328 181.401C177.689 169.903 170.973 155.168 167.461 139.372C164.151 124.494 167.465 100.468 186.814 99.644ZM130.289 186.887C112.647 160.024 132.255 118.031 165.291 115.576C161.523 131.009 167.296 152.51 172.922 163.84C182.71 183.543 202.084 199.619 224.031 210.163C218.203 213.54 209.694 215.133 202.696 215.431C174.13 216.644 146.974 212.301 130.289 186.887ZM179.413 312.901C170.381 278.722 161.346 244.54 152.314 210.359C156.665 212.286 161.323 213.596 166.087 214.493L187.65 316.463C183.684 315.684 179.85 314.551 179.413 312.901ZM196.675 317.887L175.075 215.747C179.706 216.193 184.318 216.381 188.736 216.488C189.949 216.518 191.373 216.562 192.944 216.599L208.789 319.79C204.738 319.234 200.7 318.605 196.675 317.887ZM217.63 320.889L201.618 216.624C208.058 216.469 215.233 215.831 221.174 213.891L227.883 321.892C224.46 321.603 221.042 321.27 217.63 320.889ZM236.536 322.53L229.717 212.745C236.466 215.64 243.394 218.013 250.311 219.815L248.891 323.164C244.771 323.003 240.651 322.794 236.536 322.53ZM270.684 323.654C266.291 323.621 261.893 323.554 257.492 323.444L258.889 221.755C264.689 222.868 270.419 223.556 275.971 223.792L270.684 323.654ZM279.3 323.708L284.584 223.82C290.777 223.645 297.847 223.149 304.948 222.033L292.256 323.684C287.926 323.725 283.606 323.726 279.3 323.708ZM300.92 323.531L313.81 220.283C321.178 218.497 328.174 215.867 333.802 212.039L318.059 322.711C312.358 323.129 306.641 323.383 300.92 323.531ZM326.838 321.927L344.193 199.933C349.395 199.766 354.588 199.358 359.752 198.661C360.563 198.551 361.385 198.426 362.211 198.29L336.418 320.701C333.239 321.178 330.043 321.587 326.838 321.927ZM391.378 194.252C386.406 213.509 381.435 232.765 376.463 252.023C371.085 272.858 365.703 293.696 360.324 314.535C356.766 317.403 350.103 318.308 345.47 319.146L371.363 196.276C379.041 194.148 386.741 190.859 393.21 186.222C392.351 189.974 391.653 193.191 391.378 194.252ZM398.699 177.874C391.163 186.788 379.947 191.709 368.968 194.733C331.212 205.144 284.233 192.711 250.411 175.034C231.31 165.046 210.787 152.09 198.99 133.688C191.104 121.379 183.059 73.5331 203.707 68.8551C203.834 68.8254 203.944 68.7885 204.046 68.7445C204.058 68.9522 204.161 69.1627 204.388 69.3642C205.042 69.9372 205.7 70.5002 206.359 71.0534C205.881 84.6386 214.306 102.007 223.107 108.159C230.173 113.097 239.37 115.29 247.436 117.896C257.98 121.306 268.017 126.234 278.393 130.139C299.248 137.99 321.208 142.986 343.559 142.567C355.899 142.334 377.452 140.011 382.763 126.766C383.333 125.342 383.635 123.911 383.71 122.483C394.95 124.714 404.774 129.274 409.435 139.628C414.579 151.052 405.914 169.346 398.699 177.874Z"/>
</mask>
<path d="M396.245 124.687C392.19 122.821 387.976 121.522 383.681 120.599C382.624 108.104 365.141 96.1812 356.244 91.8647C354.378 90.9599 350.972 90.7413 347.574 90.6549C343.69 76.3034 337.695 63.5817 325.921 54.0853C322.21 51.0893 319.8 49.714 317.32 49.285C321.67 32.7298 301.699 10.5225 289.347 4.22999C272.044 -4.59446 256.423 0.718555 246.703 17.0849C246.304 17.7585 247.328 17.8395 248.215 17.6227C247.925 17.8872 247.642 18.1552 247.372 18.4313C246.616 19.2129 249.397 18.9836 249.959 18.3998C265.8 2.02633 274.152 33.685 248.872 28.5024C248.469 28.4188 247.433 28.5564 246.911 28.9405C231.117 29.0997 222.149 40.6476 221.611 53.3874C221.536 53.3964 221.46 53.4017 221.386 53.4098C220.866 53.1283 219.949 53.3532 219.402 53.7579C211.532 55.4777 207.721 60.9301 206.657 67.8136C206.618 67.7803 206.579 67.7479 206.541 67.7137C206.094 67.3224 205.343 67.4133 204.779 67.7281C204.734 67.1632 204.138 66.6551 203.175 66.8745C190.262 69.7995 188.305 84.9885 188.542 97.5816C188.36 97.7426 188.231 97.9243 188.2 98.1114C188.063 97.8235 187.712 97.6176 187.077 97.6436C174.523 98.1761 168.131 105.164 165.535 114.645C142.275 117.001 123.812 136.805 120.773 160.046C118.498 177.416 129.243 192.878 141.629 203.663C143.541 205.326 145.584 206.765 147.729 208.022C151.188 221.103 154.644 234.184 158.102 247.265C162.52 263.985 166.937 280.703 171.358 297.423C172.095 300.216 173.669 314.038 176.722 315.139C187.232 318.931 198.779 320.315 209.789 321.694C240.59 325.559 272.022 325.815 302.999 324.635C319.298 324.013 335.906 322.825 351.779 318.844C355.439 317.928 360.15 316.854 363.314 314.481C363.649 314.325 363.895 314.139 363.949 313.93C375.27 270.088 386.588 226.245 397.907 182.403C400.639 179.868 403.024 177.021 404.918 173.837C415.99 155.2 417.625 134.516 396.245 124.687ZM252.647 30.6845C254.728 30.8625 257.508 30.572 259.522 30.0333C262.874 29.1347 268.152 26.7098 268.216 22.4419C268.409 9.98283 257.028 10.9147 249.701 16.395C270.549 -17.184 318.921 18.4259 314.109 49.8327C311.468 67.0679 287.456 64.1186 275.329 61.9123C263.215 59.705 251.688 54.4604 249.069 41.4787C248.129 36.8367 246.926 30.1952 252.647 30.6845ZM246.468 30.7322C244.452 51.5165 256.321 60.1629 276.216 63.7868C289.167 66.1442 306.627 66.8035 314.907 54.5971C315.73 53.3846 316.365 52.1218 316.84 50.8167C321.092 52.3997 328.003 59.2437 329.377 60.5757C335.882 66.8898 339.654 75.7323 342.65 84.098C343.239 86.3718 344.018 88.5799 344.991 90.7161C339.652 92.5006 329.309 91.0696 323.266 90.9302C312.395 90.6846 301.535 89.957 290.684 89.2779C274.353 88.2579 256.983 88.3929 241.948 81.111C221.628 71.2692 213.536 30.2141 246.468 30.7322ZM220.037 55.492C220.572 55.8689 221.114 56.2296 221.655 56.5966C222.227 64.9524 226.408 73.4486 234.646 79.2905C247.499 88.4046 263.656 89.4731 278.916 90.3986C293.35 91.272 307.775 92.2433 322.232 92.7281C328.048 92.9233 335.225 93.8507 341.521 93.0781C344.692 93.3776 347.838 93.5557 350.94 93.5557C365.777 93.5557 394.022 124.302 372.775 134.338C336.762 151.347 293.547 133.993 259.62 120.054C245.151 114.11 228.502 111.876 217.493 99.8149C209.079 90.5929 203.071 59.4073 220.037 55.492ZM186.814 99.644C187.669 99.6089 188.232 98.9964 188.266 98.4594C188.324 98.5647 188.418 98.6681 188.562 98.7661L188.567 98.7698C188.654 101.72 188.85 104.497 189.036 106.902C191.152 134.267 206.27 150.124 228.508 164.728C260.785 185.924 300.233 200.098 339.403 200.021C336.23 210.191 314.425 217.422 305.394 219.533C264.092 229.202 218.635 210.36 189.328 181.401C177.689 169.903 170.973 155.168 167.461 139.372C164.151 124.494 167.465 100.468 186.814 99.644ZM130.289 186.887C112.647 160.024 132.255 118.031 165.291 115.576C161.523 131.009 167.296 152.51 172.922 163.84C182.71 183.543 202.084 199.619 224.031 210.163C218.203 213.54 209.694 215.133 202.696 215.431C174.13 216.644 146.974 212.301 130.289 186.887ZM179.413 312.901C170.381 278.722 161.346 244.54 152.314 210.359C156.665 212.286 161.323 213.596 166.087 214.493L187.65 316.463C183.684 315.684 179.85 314.551 179.413 312.901ZM196.675 317.887L175.075 215.747C179.706 216.193 184.318 216.381 188.736 216.488C189.949 216.518 191.373 216.562 192.944 216.599L208.789 319.79C204.738 319.234 200.7 318.605 196.675 317.887ZM217.63 320.889L201.618 216.624C208.058 216.469 215.233 215.831 221.174 213.891L227.883 321.892C224.46 321.603 221.042 321.27 217.63 320.889ZM236.536 322.53L229.717 212.745C236.466 215.64 243.394 218.013 250.311 219.815L248.891 323.164C244.771 323.003 240.651 322.794 236.536 322.53ZM270.684 323.654C266.291 323.621 261.893 323.554 257.492 323.444L258.889 221.755C264.689 222.868 270.419 223.556 275.971 223.792L270.684 323.654ZM279.3 323.708L284.584 223.82C290.777 223.645 297.847 223.149 304.948 222.033L292.256 323.684C287.926 323.725 283.606 323.726 279.3 323.708ZM300.92 323.531L313.81 220.283C321.178 218.497 328.174 215.867 333.802 212.039L318.059 322.711C312.358 323.129 306.641 323.383 300.92 323.531ZM326.838 321.927L344.193 199.933C349.395 199.766 354.588 199.358 359.752 198.661C360.563 198.551 361.385 198.426 362.211 198.29L336.418 320.701C333.239 321.178 330.043 321.587 326.838 321.927ZM391.378 194.252C386.406 213.509 381.435 232.765 376.463 252.023C371.085 272.858 365.703 293.696 360.324 314.535C356.766 317.403 350.103 318.308 345.47 319.146L371.363 196.276C379.041 194.148 386.741 190.859 393.21 186.222C392.351 189.974 391.653 193.191 391.378 194.252ZM398.699 177.874C391.163 186.788 379.947 191.709 368.968 194.733C331.212 205.144 284.233 192.711 250.411 175.034C231.31 165.046 210.787 152.09 198.99 133.688C191.104 121.379 183.059 73.5331 203.707 68.8551C203.834 68.8254 203.944 68.7885 204.046 68.7445C204.058 68.9522 204.161 69.1627 204.388 69.3642C205.042 69.9372 205.7 70.5002 206.359 71.0534C205.881 84.6386 214.306 102.007 223.107 108.159C230.173 113.097 239.37 115.29 247.436 117.896C257.98 121.306 268.017 126.234 278.393 130.139C299.248 137.99 321.208 142.986 343.559 142.567C355.899 142.334 377.452 140.011 382.763 126.766C383.333 125.342 383.635 123.911 383.71 122.483C394.95 124.714 404.774 129.274 409.435 139.628C414.579 151.052 405.914 169.346 398.699 177.874Z" fill="#624B61" stroke="#624B61" stroke-width="2" mask="url(#path-29-inside-3_242_623)"/>
<path d="M289.816 21.155C291.328 21.5934 292.78 22.4903 294.05 23.5662L294.408 23.8787C296.262 25.6229 297.761 27.7214 298.88 30.0046L298.885 30.0154C300.063 32.2795 300.775 34.7657 301.202 37.3943C301.387 38.6964 301.428 40.0445 301.321 41.4441V41.446C301.226 42.7563 300.788 44.5085 300.154 45.6873L300.15 45.696L300.146 45.7048C298.935 48.1839 296.685 50.2156 294.234 51.2556L293.741 51.45C291.055 52.4293 288.331 52.6663 285.778 52.325H285.774C281.396 51.7822 277.221 50.0563 274.184 47.2058C278.133 48.5379 282.122 48.9927 285.885 48.8093H285.888C290.327 48.5665 294.298 46.8795 295.861 43.5369C296.342 42.5951 296.476 41.989 296.617 40.9343C296.727 40.1911 296.756 39.4112 296.747 38.6248L296.728 37.8347C296.674 35.663 296.163 33.4703 295.607 31.3347L295.605 31.325L295.602 31.3162C294.999 29.3197 294.25 27.3035 293.191 25.4373L292.975 25.0662C292.153 23.6356 291.148 22.2846 289.816 21.155Z" fill="#624B61" stroke="#624B61"/>
<path d="M238.019 58.4393C239.347 60.0776 240.482 61.8789 241.726 63.579C243.407 66.0014 245.289 68.114 247.509 69.5389L247.511 69.5399C249.726 70.9481 252.371 71.883 255.101 72.5956L255.106 72.5966C257.813 73.2761 260.632 73.872 263.402 74.0721V74.0731L263.515 74.0809L263.688 74.1161V74.1171C266.279 74.6582 269.227 74.6239 272.209 74.3026C273.716 74.2066 275.239 74.0255 276.771 73.8397C278.309 73.6532 279.857 73.4628 281.431 73.3456L281.441 73.3446C284.579 73.0522 287.811 72.9249 291.043 73.3641V73.3651C293.351 73.7142 295.673 74.4227 297.573 75.6385C295.365 75.1058 293.152 75.0494 290.977 75.2723C287.972 75.5214 284.99 76.2272 282.001 76.8954L281.992 76.8983C279.014 77.6279 275.963 78.2727 272.768 78.8212C269.649 79.2103 266.396 79.5066 262.989 78.8427L262.992 78.828L262.639 78.7753L262.637 78.7831C259.587 78.4103 256.66 77.813 253.81 76.8212C250.874 75.7509 247.88 74.5082 245.405 72.2704L245.393 72.2606C243.011 70.2355 241.488 67.5657 240.372 64.9462L240.155 64.4227C239.597 63.0024 239.123 61.5976 238.636 60.1854C238.435 59.6037 238.23 59.0223 238.019 58.4393Z" fill="#624B61" stroke="#624B61"/>
<path d="M353.435 105.821C357.094 106.506 360.639 108.194 363.417 111.068L363.795 111.471C365.7 113.653 366.803 116.82 366.476 119.896L366.475 119.907L366.474 119.918C366.292 122.881 364.525 126.124 361.926 127.884L361.921 127.888L361.915 127.893C359.329 129.757 356.393 130.606 353.544 131.065L353.543 131.066C350.671 131.537 347.835 131.657 345.023 131.632H345.024C339.328 131.522 334.046 130.743 328.508 130.23C322.961 129.474 317.485 128.241 312.207 126.488H312.208C306.958 124.725 301.736 122.375 297.046 119.96L297.024 119.951L296.116 119.542C291.563 117.534 286.799 115.988 281.832 114.997H281.833C278.085 114.198 274.246 113.701 270.391 113.248C274.262 112.975 278.158 112.923 282.081 113.175C287.242 113.56 292.428 114.598 297.371 116.343L298.356 116.703C303.557 118.756 308.354 120.787 313.547 122.213V122.214C318.648 123.713 323.852 124.863 329.128 125.471H329.129C334.436 126.06 339.955 126.894 345.163 127.139V127.14C350.326 127.441 355.911 127.248 359.914 124.984C363.901 122.794 365.238 116.729 362.296 112.56H362.296C360.297 109.537 357.069 107.26 353.435 105.821Z" fill="#624B61" stroke="#624B61"/>
<path d="M386.63 145.3C388.038 147.549 388.67 150.419 388.963 153.148C389.341 156.958 389.033 160.778 388.236 164.63C387.144 168.681 385.13 172.352 382.144 175.418V175.419C379.185 178.46 375.466 180.622 371.706 182.1L371.705 182.101C367.922 183.598 364.066 184.513 360.268 185.153H360.266C358.359 185.48 356.476 185.754 354.608 185.953L351.813 186.251L348.835 186.464C341.081 186.885 333.194 186.033 325.723 184.295H325.724C319.167 182.751 312.927 180.651 306.859 178.426L304.268 177.466C297.697 174.922 290.69 172.875 283.729 170.548L283.727 170.547L281.104 169.672C274.982 167.595 268.851 165.249 262.926 162.391C257.142 159.483 251.547 156.057 246.856 151.732C259.366 157.565 272.47 160.033 285.812 162.722C292.988 164.205 300.245 165.698 307.496 168.028L307.501 168.03C314.476 170.192 321.312 172.419 328.108 173.969V173.97C334.901 175.574 341.691 176.443 348.592 176.457H348.596L351.097 176.443H351.116L353.806 176.322H353.81C355.581 176.227 357.345 176.143 359.077 175.997L359.08 175.996C362.541 175.69 365.924 175.243 369.092 174.408L369.093 174.409C372.275 173.58 375.199 172.321 377.722 170.497L377.723 170.498C380.28 168.724 382.362 166.044 383.75 163.217L383.751 163.218L383.756 163.207C385.208 160.073 386.175 156.603 386.738 153.113V153.112C386.982 151.573 387.108 150.003 387.042 148.429L387.001 147.754C386.952 146.935 386.836 146.112 386.63 145.3Z" fill="#624B61" stroke="#624B61"/>
<path d="M205.803 177.548C209.723 181.591 214.022 184.955 218.628 187.82L218.632 187.823C224.039 191.12 229.777 193.844 235.751 196.031C241.692 198.306 247.855 200.034 254.09 201.586L254.093 201.587C259.442 202.882 264.861 203.961 270.394 205.008C264.813 205.744 259.123 205.677 253.492 205.067L253.489 205.066C246.884 204.381 240.358 202.825 234.065 200.517H234.064C227.819 198.115 221.78 194.961 216.582 190.669L216.579 190.666C212.135 187.052 208.27 182.6 205.803 177.548Z" fill="#624B61" stroke="#624B61"/>
<path d="M150.932 138.013C147.526 145.954 146.583 153.46 147.544 160.546C148.038 164.277 149.002 167.886 150.343 171.358V171.359C151.667 174.824 153.4 178.233 155.453 181.102V181.103C159.635 187.299 164.919 192.405 171.609 196.465V196.466C177.918 200.37 185.349 203.152 193.454 206.005C185.262 208.544 176.237 208.681 167.486 206.028H167.484C158.261 203.283 149.692 196.886 144.276 188.673L144.273 188.667L143.74 187.867C141.133 183.854 139.309 179.61 138.178 175.111C136.975 170.317 136.547 165.285 137.167 160.363C137.801 155.451 139.411 150.667 142.037 146.643L142.036 146.642C144.391 143.047 147.425 140.036 150.932 138.013Z" fill="#624B61" stroke="#624B61"/>
</svg>
