<svg width="18" height="18" viewBox="0 0 18 18" fill="none" xmlns="http://www.w3.org/2000/svg">
<path d="M10.9326 6.91875V9.77544C10.9326 9.84777 10.8763 9.90402 10.804 9.90402H10.346C10.3018 9.90402 10.2616 9.87991 10.2415 9.85179L8.9317 8.08393V9.77946C8.9317 9.85178 8.87545 9.90804 8.80313 9.90804H8.34509C8.27277 9.90804 8.21652 9.85178 8.21652 9.77946V6.92277C8.21652 6.85045 8.27277 6.7942 8.34509 6.7942H8.79911C8.83929 6.7942 8.88348 6.81429 8.90357 6.85045L10.2134 8.6183V6.92277C10.2134 6.85045 10.2696 6.7942 10.342 6.7942H10.8C10.8723 6.79018 10.9326 6.85045 10.9326 6.91875ZM7.63795 6.79018H7.17991C7.10759 6.79018 7.05134 6.84643 7.05134 6.91875V9.77544C7.05134 9.84777 7.10759 9.90402 7.17991 9.90402H7.63795C7.71027 9.90402 7.76652 9.84777 7.76652 9.77544V6.91875C7.76652 6.85045 7.71027 6.79018 7.63795 6.79018ZM6.53304 9.18482H5.28349V6.91875C5.28349 6.84643 5.22724 6.79018 5.15491 6.79018H4.69688C4.62456 6.79018 4.56831 6.84643 4.56831 6.91875V9.77544C4.56831 9.81161 4.58036 9.83973 4.60447 9.86384C4.62858 9.88393 4.6567 9.9 4.69286 9.9H6.52902C6.60134 9.9 6.65759 9.84375 6.65759 9.77143V9.31339C6.65759 9.24509 6.60134 9.18482 6.53304 9.18482ZM13.3433 6.79018H11.5071C11.4388 6.79018 11.3786 6.84643 11.3786 6.91875V9.77544C11.3786 9.84375 11.4348 9.90402 11.5071 9.90402H13.3433C13.4156 9.90402 13.4719 9.84777 13.4719 9.77544V9.31741C13.4719 9.24509 13.4156 9.18884 13.3433 9.18884H12.0937V8.7067H13.3433C13.4156 8.7067 13.4719 8.65045 13.4719 8.57813V8.11607C13.4719 8.04375 13.4156 7.9875 13.3433 7.9875H12.0937V7.50536H13.3433C13.4156 7.50536 13.4719 7.44911 13.4719 7.37679V6.91875C13.4679 6.85045 13.4116 6.79018 13.3433 6.79018ZM18 3.28259V14.7455C17.996 16.5455 16.5214 18.004 14.7174 18H3.25447C1.45447 17.996 -0.00400957 16.5174 8.28145e-06 14.7174V3.25447C0.00402613 1.45447 1.4826 -0.00400957 3.28259 8.28145e-06H14.7455C16.5455 0.00402613 18.004 1.47858 18 3.28259ZM15.525 8.20848C15.525 5.27545 12.5839 2.88884 8.97188 2.88884C5.35983 2.88884 2.41876 5.27545 2.41876 8.20848C2.41876 10.8362 4.74911 13.0379 7.89911 13.4558C8.66652 13.6205 8.57812 13.9018 8.40536 14.9344C8.37723 15.0991 8.27277 15.5812 8.97188 15.2879C9.67098 14.9946 12.7446 13.0661 14.1228 11.483C15.071 10.4384 15.525 9.3817 15.525 8.20848Z" fill="black"/>
</svg>
