<svg width="103" height="103" viewBox="0 0 103 103" fill="none" xmlns="http://www.w3.org/2000/svg">
<circle cx="51.5" cy="51.5" r="51.5" fill="white" fill-opacity="0.6"/>
<path d="M38.4331 70.0037V59.7797H34.9931V58.2117H43.7771V59.7797H40.3211V70.0037H38.4331ZM51.7147 70.2277C50.712 70.2277 49.8214 69.977 49.0427 69.4757C48.2747 68.9743 47.672 68.265 47.2347 67.3477C46.7974 66.4197 46.5787 65.3263 46.5787 64.0677C46.5787 62.7983 46.7974 61.7157 47.2347 60.8197C47.672 59.913 48.2747 59.2197 49.0427 58.7397C49.8214 58.249 50.712 58.0037 51.7147 58.0037C52.7281 58.0037 53.6187 58.249 54.3867 58.7397C55.1547 59.2197 55.7574 59.913 56.1947 60.8197C56.632 61.7157 56.8507 62.7983 56.8507 64.0677C56.8507 65.3263 56.632 66.4197 56.1947 67.3477C55.7574 68.265 55.1547 68.9743 54.3867 69.4757C53.6187 69.977 52.7281 70.2277 51.7147 70.2277ZM51.7147 68.5957C52.3654 68.5957 52.9307 68.409 53.4107 68.0357C53.9014 67.6623 54.2801 67.1397 54.5467 66.4677C54.8134 65.785 54.9467 64.985 54.9467 64.0677C54.9467 63.1503 54.8134 62.361 54.5467 61.6997C54.2801 61.0277 53.9014 60.5157 53.4107 60.1637C52.9307 59.801 52.3654 59.6197 51.7147 59.6197C51.064 59.6197 50.4934 59.801 50.0027 60.1637C49.5227 60.5157 49.1494 61.0277 48.8827 61.6997C48.6267 62.361 48.4987 63.1503 48.4987 64.0677C48.4987 64.985 48.6267 65.785 48.8827 66.4677C49.1494 67.1397 49.5227 67.6623 50.0027 68.0357C50.4934 68.409 51.064 68.5957 51.7147 68.5957ZM61.2172 70.0037V58.2117H64.7852C65.6705 58.2117 66.4492 58.329 67.1212 58.5637C67.7932 58.7877 68.3212 59.161 68.7052 59.6837C69.0999 60.1957 69.2972 60.8997 69.2972 61.7957C69.2972 62.649 69.1052 63.353 68.7212 63.9077C68.3372 64.4517 67.8092 64.8623 67.1372 65.1397C66.4759 65.4063 65.7132 65.5397 64.8492 65.5397H63.0732V70.0037H61.2172ZM63.0732 64.0357H64.6892C65.6172 64.0357 66.3105 63.8543 66.7692 63.4917C67.2279 63.129 67.4572 62.5637 67.4572 61.7957C67.4572 61.0063 67.2172 60.4623 66.7372 60.1637C66.2572 59.865 65.5479 59.7157 64.6092 59.7157H63.0732V64.0357Z" fill="black"/>
<path d="M52.3736 32.3066L57.4402 37.3732C57.7903 37.7234 57.7903 38.2896 57.4402 38.6361L56.5982 39.478C56.248 39.8282 55.6818 39.8282 55.3353 39.478L51.7403 35.8905L48.149 39.4817C47.7988 39.8319 47.2325 39.8319 46.8861 39.4817L46.0404 38.6398C45.6902 38.2896 45.6902 37.7234 46.0404 37.3769L51.107 32.3103C51.4572 31.9564 52.0234 31.9564 52.3736 32.3066Z" fill="black"/>
</svg>
